G04 ================== begin FILE IDENTIFICATION RECORD ==================*
G04 Layout Name:  D:/Project/Circuit/AVANT/KSZ/02v4/pcb/KSZ_02v4.brd*
G04 Film Name:    BOTTOM*
G04 File Format:  Gerber RS274X*
G04 File Origin:  Cadence Allegro 16.6-2015-S073*
G04 Origin Date:  Tue Dec 26 10:31:59 2017*
G04 *
G04 Layer:  ETCH/BOTTOM*
G04 Layer:  PIN/BOTTOM*
G04 Layer:  VIA CLASS/BOTTOM*
G04 *
G04 Offset:    (0.000 0.000)*
G04 Mirror:    No*
G04 Mode:      Positive*
G04 Rotation:  0*
G04 FullContactRelief:  No*
G04 UndefLineWidth:     0.250*
G04 ================== end FILE IDENTIFICATION RECORD ====================*
%FSLAX34Y34*MOMM*%
%IR0*IPPOS*OFA0.00000B0.00000*MIA0B0*SFA1.00000B1.00000*%
%ADD10C,4.*%
%ADD15C,2.5*%
%ADD12C,1.7*%
%ADD16R,2.5X2.5*%
%ADD11R,1.7X1.7*%
%ADD17C,.2*%
%ADD14R,1.7X1.7*%
%ADD13C,.8*%
%ADD18C,.5*%
%ADD23C,3.004*%
%ADD19C,2.204*%
%ADD22C,4.504*%
%ADD20C,3.704*%
%ADD21C,6.784*%
G75*
%LPD*%
G75*
G36*
G01X-886470Y666180D02*
X-886200Y666150D01*
G03Y725770I3550J29810D01*
G01X-886470Y725740D01*
X-886980Y725890D01*
X-888580Y727320D01*
G02X-889000Y728250I829J934D01*
G01Y2046050D01*
G02X-884000Y2051050I5000J0D01*
G01X7700D01*
G02X12700Y2046050I0J-5000D01*
G01Y1967150D01*
G03X17700Y1962150I5000J0D01*
G01X90250D01*
G02X95250Y1957150I0J-5000D01*
G01Y-115650D01*
G02X90250Y-120650I-5000J0D01*
G01X17700D01*
G03X12700Y-125650I0J-5000D01*
G01Y-210900D01*
G02X7700Y-215900I-5000J0D01*
G01X-857290D01*
G02X-858420Y-215190I-3J1250D01*
G01X-859550Y-212830D01*
X-859470Y-212120D01*
X-859240Y-211840D01*
G03X-886200Y-163230I-23407J18799D01*
G01X-886470Y-163260D01*
X-886980Y-163110D01*
X-888580Y-161680D01*
G02X-889000Y-160750I829J934D01*
G01Y663670D01*
G02X-888580Y664600I1249J-4D01*
G01X-886980Y666030D01*
X-886470Y666180D01*
G37*
%LPC*%
G75*
G36*
G01X-233860Y1843240D02*
G02X-197300Y1898530I24307J23659D01*
G03X-196400I450J1167D01*
G02X-171900I12250J-31630D01*
G03X-171000I450J1167D01*
G02X-134440Y1843240I12253J-31631D01*
G01X-134610Y1843070D01*
X-134800Y1842620D01*
Y1840380D01*
X-134610Y1839930D01*
X-134440Y1839760D01*
G02X-171000Y1784470I-24307J-23659D01*
G03X-171900I-450J-1167D01*
G02X-196400I-12250J31630D01*
G03X-197300I-450J-1167D01*
G02X-239480Y1800130I-12254J31631D01*
G01X-239640Y1800440D01*
X-240230Y1800800D01*
X-240580D01*
G03X-241830Y1799550I0J-1250D01*
G01Y1798830D01*
G02X-243080Y1797580I-1250J0D01*
G01X-277620D01*
G02X-278870Y1798830I0J1250D01*
G01Y1833370D01*
G02X-277620Y1834620I1250J0D01*
G01X-243080D01*
G02X-241830Y1833370I0J-1250D01*
G01Y1832650D01*
G03X-240580Y1831400I1250J0D01*
G01X-240230D01*
X-239640Y1831760D01*
X-239480Y1832070D01*
G02X-233860Y1839760I29927J-15972D01*
G01X-233690Y1839930D01*
X-233500Y1840380D01*
Y1842620D01*
X-233690Y1843070D01*
X-233860Y1843240D01*
G37*
G36*
G01X10910Y1290490D02*
X10260Y1287790D01*
X10430Y1287160D01*
X10660Y1286930D01*
G02X-10660I-10660J-10580D01*
G01X-10430Y1287160D01*
X-10260Y1287790D01*
X-10910Y1290490D01*
X-11350Y1290970D01*
X-11670Y1291070D01*
G02X-28870Y1351740I11669J36081D01*
G03Y1353360I-948J810D01*
G02X-18440Y1411080I28869J24586D01*
G01X-18200Y1411220D01*
X-17880Y1411660D01*
X-17390Y1414070D01*
X-17520Y1414600D01*
X-17690Y1414820D01*
G02Y1442680I17690J13930D01*
G01X-17520Y1442900D01*
X-17390Y1443430D01*
X-17880Y1445840D01*
X-18200Y1446280D01*
X-18440Y1446420D01*
G02X-37890Y1478110I18440J33132D01*
G01X-37910Y1478470D01*
X-38320Y1479070D01*
X-41090Y1480230D01*
X-41800Y1480110D01*
X-42070Y1479860D01*
G02X-81520Y1534520I-22826J25092D01*
G01X-81220Y1534690D01*
X-80880Y1535270D01*
Y1538130D01*
X-81220Y1538710D01*
X-81520Y1538880D01*
G02Y1598020I16620J29570D01*
G01X-81220Y1598190D01*
X-80880Y1598770D01*
Y1601630D01*
X-81220Y1602210D01*
X-81520Y1602380D01*
G02Y1661520I16620J29570D01*
G01X-81220Y1661690D01*
X-80880Y1662270D01*
Y1665130D01*
X-81220Y1665710D01*
X-81520Y1665880D01*
G02X-48180Y1724960I16619J29569D01*
G01X-47890Y1724800D01*
X-47230D01*
X-45070Y1726060D01*
G03X-44450Y1727140I-630J1080D01*
G01Y1727200D01*
X-38110Y1733540D01*
X-37920Y1733990D01*
X-37910Y1734230D01*
G02X-28870Y1758140I37914J-671D01*
G03Y1759760I-948J810D01*
G02Y1808940I28870J24590D01*
G03Y1810560I-948J810D01*
G02X28870I28870J24590D01*
G03Y1808940I948J-810D01*
G02Y1759760I-28870J-24590D01*
G03Y1758140I948J-810D01*
G02X18440Y1700420I-28869J-24586D01*
G01X18200Y1700280D01*
X17880Y1699840D01*
X17390Y1697430D01*
X17520Y1696900D01*
X17690Y1696680D01*
G02Y1668820I-17690J-13930D01*
G01X17520Y1668600D01*
X17390Y1668070D01*
X17880Y1665660D01*
X18200Y1665220D01*
X18440Y1665080D01*
G02X28870Y1607360I-18439J-33134D01*
G03Y1605740I948J-810D01*
G02Y1556560I-28870J-24590D01*
G03Y1554940I948J-810D01*
G02Y1505760I-28870J-24590D01*
G03Y1504140I948J-810D01*
G02X18440Y1446420I-28869J-24586D01*
G01X18200Y1446280D01*
X17880Y1445840D01*
X17390Y1443430D01*
X17520Y1442900D01*
X17690Y1442680D01*
G02Y1414820I-17690J-13930D01*
G01X17520Y1414600D01*
X17390Y1414070D01*
X17880Y1411660D01*
X18200Y1411220D01*
X18440Y1411080D01*
G02X28870Y1353360I-18439J-33134D01*
G03Y1351740I948J-810D01*
G02X11670Y1291070I-28869J-24589D01*
G01X11350Y1290970D01*
X10910Y1290490D01*
G37*
G36*
G01X-279570Y1282530D02*
G03X-280250Y1278280I918J-2326D01*
G02X-303950I-11850J-14230D01*
G03X-304630Y1282530I-1598J1924D01*
G02X-279570I12530J31520D01*
G37*
G36*
G01X37920Y1109820D02*
Y1036480D01*
G02X36670Y1035230I-1250J0D01*
G01X-36670D01*
G02X-37920Y1036480I0J1250D01*
G01Y1109820D01*
G02X-36670Y1111070I1250J0D01*
G01X-22760D01*
G03X-21710Y1111640I0J1252D01*
G01X-20400Y1113680D01*
X-20360Y1114310D01*
X-20490Y1114610D01*
G02X20490I20490J9340D01*
G01X20360Y1114310D01*
X20400Y1113680D01*
X21710Y1111640D01*
G03X22760Y1111070I1050J682D01*
G01X36670D01*
G02X37920Y1109820I0J-1250D01*
G37*
G36*
G01X-279570Y1015830D02*
G03X-280250Y1011580I918J-2326D01*
G02X-303950I-11850J-14230D01*
G03X-304630Y1015830I-1598J1924D01*
G02X-279570I12530J31520D01*
G37*
G36*
G01X10910Y471340D02*
X10260Y468640D01*
X10430Y468010D01*
X10660Y467780D01*
G02X-10660I-10660J-10580D01*
G01X-10430Y468010D01*
X-10260Y468640D01*
X-10910Y471340D01*
X-11350Y471820D01*
X-11670Y471920D01*
G02X-29060Y483640I11671J36079D01*
G01X-29280Y483900D01*
X-29900Y484130D01*
X-32670Y483670D01*
X-33190Y483260D01*
X-33310Y482950D01*
G02X-81520Y524870I-31591J12350D01*
G01X-81220Y525040D01*
X-80880Y525620D01*
Y528480D01*
X-81220Y529060D01*
X-81520Y529230D01*
G02Y588370I16620J29570D01*
G01X-81220Y588540D01*
X-80880Y589120D01*
Y591980D01*
X-81220Y592560D01*
X-81520Y592730D01*
G02Y651870I16620J29570D01*
G01X-81220Y652040D01*
X-80880Y652620D01*
Y655480D01*
X-81220Y656060D01*
X-81520Y656230D01*
G02X-31110Y688730I16618J29570D01*
G01X-31080Y688360D01*
X-30630Y687790D01*
X-27810Y686760D01*
X-27110Y686920D01*
X-26850Y687180D01*
G02X-18440Y693530I26833J-26793D01*
G01X-18200Y693670D01*
X-17880Y694110D01*
X-17390Y696520D01*
X-17520Y697050D01*
X-17690Y697270D01*
G02Y725130I17690J13930D01*
G01X-17520Y725350D01*
X-17390Y725880D01*
X-17880Y728290D01*
X-18200Y728730D01*
X-18440Y728870D01*
G02X18440I18440J33130D01*
G01X18200Y728730D01*
X17880Y728290D01*
X17390Y725880D01*
X17520Y725350D01*
X17690Y725130D01*
G02Y697270I-17690J-13930D01*
G01X17520Y697050D01*
X17390Y696520D01*
X17880Y694110D01*
X18200Y693670D01*
X18440Y693530D01*
G02X28870Y635810I-18439J-33134D01*
G03Y634190I948J-810D01*
G02Y585010I-28870J-24590D01*
G03Y583390I948J-810D01*
G02Y534210I-28870J-24590D01*
G03Y532590I948J-810D01*
G02X11670Y471920I-28869J-24589D01*
G01X11350Y471820D01*
X10910Y471340D01*
G37*
G36*
G01X-438400Y362130D02*
X-583950D01*
G03X-584490Y362010I-5J-1251D01*
G02Y387290I-6060J12640D01*
G03X-583950Y387170I535J1131D01*
G01X-438400D01*
G03X-437860Y387290I5J1251D01*
G02Y362010I6060J-12640D01*
G03X-438400Y362130I-535J-1131D01*
G37*
G36*
G01X-393880Y298200D02*
Y235200D01*
G03X-393760Y234660I1251J-5D01*
G02X-419040I-12640J-6060D01*
G03X-418920Y235200I-1131J535D01*
G01Y298200D01*
G03X-419040Y298740I-1251J5D01*
G02X-393760I12640J6060D01*
G03X-393880Y298200I1131J-535D01*
G37*
G36*
G01X-298700Y101420D02*
G03X-298160Y101540I5J1251D01*
G02Y76260I6060J-12640D01*
G03X-298700Y76380I-535J-1131D01*
G01X-384720D01*
G02X-408900Y86400I6J34199D01*
G01X-417140Y94630D01*
X-417400Y94730D01*
G02X-399530Y112600I4650J13220D01*
G01X-399430Y112340D01*
X-391200Y104100D01*
G03X-384720Y101420I6475J6481D01*
G01X-298700D01*
G37*
G36*
G01X37920Y38180D02*
Y-36670D01*
G02X36670Y-37920I-1250J0D01*
G01X-36670D01*
G02X-37920Y-36670I0J1250D01*
G01Y38180D01*
G02X-37660Y38940I1249J-3D01*
G01X-36690Y40210D01*
X-36570Y40780D01*
X-36650Y41060D01*
G02X-28870Y75390I36649J9741D01*
G03Y77010I-948J810D01*
G02Y126190I28870J24590D01*
G03Y127810I-948J810D01*
G02X-11670Y188480I28869J24589D01*
G01X-11350Y188580D01*
X-10910Y189060D01*
X-10260Y191760D01*
X-10430Y192390D01*
X-10660Y192620D01*
G02X10660I10660J10580D01*
G01X10430Y192390D01*
X10260Y191760D01*
X10910Y189060D01*
X11350Y188580D01*
X11670Y188480D01*
G02X28870Y127810I-11669J-36081D01*
G03Y126190I948J-810D01*
G02Y77010I-28870J-24590D01*
G03Y75390I948J-810D01*
G02X36650Y41060I-28869J-24589D01*
G01X36570Y40780D01*
X36690Y40210D01*
X37660Y38940D01*
G02X37920Y38180I-989J-763D01*
G37*
G36*
G01X-298700Y-50980D02*
G03X-298160Y-50860I5J1251D01*
G02Y-76140I6060J-12640D01*
G03X-298700Y-76020I-535J-1131D01*
G01X-384720D01*
G02X-408900Y-66000I6J34199D01*
G01X-417140Y-57770D01*
X-417400Y-57670D01*
G02X-399530Y-39800I4650J13220D01*
G01X-399430Y-40060D01*
X-391200Y-48300D01*
G03X-384720Y-50980I6475J6481D01*
G01X-298700D01*
G37*
G36*
G01X-866600Y305790D02*
X-866120Y308060D01*
X-866220Y308550D01*
X-866360Y308760D01*
G02X-867680Y318530I9109J6205D01*
G01X-867580Y318820D01*
X-867660Y319420D01*
X-869020Y321320D01*
G03X-870040Y321840I-1016J-732D01*
G01X-874520D01*
G02X-875770Y323090I0J1250D01*
G01Y357630D01*
G02X-874520Y358880I1250J0D01*
G01X-870040D01*
G03X-869020Y359400I4J1252D01*
G01X-867660Y361300D01*
X-867580Y361900D01*
X-867680Y362190D01*
G02X-851050Y374870I10427J3570D01*
G01X-850840Y374730D01*
X-850350Y374630D01*
X-848080Y375110D01*
X-847670Y375390D01*
X-847530Y375610D01*
G02X-846040Y377660I15689J-9837D01*
G03Y379260I-961J800D01*
G02X-847530Y381310I14199J11887D01*
G01X-847670Y381530D01*
X-848080Y381810D01*
X-850350Y382290D01*
X-850840Y382190D01*
X-851050Y382050D01*
G02X-866360Y397360I-6200J9110D01*
G01X-866220Y397570D01*
X-866120Y398060D01*
X-866600Y400330D01*
X-866880Y400740D01*
X-867100Y400880D01*
G02Y432240I9850J15680D01*
G01X-866880Y432380D01*
X-866600Y432790D01*
X-866120Y435060D01*
X-866220Y435550D01*
X-866360Y435760D01*
G02Y448160I9110J6200D01*
G01X-866220Y448370D01*
X-866120Y448860D01*
X-866600Y451130D01*
X-866880Y451540D01*
X-867100Y451680D01*
G02X-871440Y479260I9851J15682D01*
G03Y480860I-961J800D01*
G02Y504660I14190J11900D01*
G03Y506260I-961J800D01*
G02Y530060I14190J11900D01*
G03Y531660I-961J800D01*
G02Y555460I14190J11900D01*
G03Y557060I-961J800D01*
G02X-875000Y574230I14192J11897D01*
G01X-874950Y574410D01*
Y575110D01*
X-875680Y575840D01*
X-875770D01*
Y612150D01*
X-875040Y612880D01*
X-874950D01*
Y614310D01*
X-875000Y614490D01*
G02X-871440Y631660I17752J5273D01*
G03Y633260I-961J800D01*
G02X-845350Y659350I14190J11900D01*
G03X-843750I800J961D01*
G02X-819950I11900J-14190D01*
G03X-818350I800J961D01*
G02X-792260Y633260I11900J-14190D01*
G03Y631660I961J-800D01*
G02X-788700Y614490I-14192J-11897D01*
G01X-788750Y614310D01*
Y613610D01*
X-788020Y612880D01*
X-787930D01*
Y576570D01*
X-788660Y575840D01*
X-788750D01*
Y574410D01*
X-788700Y574230D01*
G02X-792260Y557060I-17752J-5273D01*
G03Y555460I961J-800D01*
G02Y531660I-14190J-11900D01*
G03Y530060I961J-800D01*
G02Y506260I-14190J-11900D01*
G03Y504660I961J-800D01*
G02Y480860I-14190J-11900D01*
G03Y479260I961J-800D01*
G02X-796600Y451680I-14191J-11898D01*
G01X-796820Y451540D01*
X-797100Y451130D01*
X-797580Y448860D01*
X-797480Y448370D01*
X-797340Y448160D01*
G02Y435760I-9110J-6200D01*
G01X-797480Y435550D01*
X-797580Y435060D01*
X-797100Y432790D01*
X-796820Y432380D01*
X-796600Y432240D01*
G02Y400880I-9850J-15680D01*
G01X-796820Y400740D01*
X-797100Y400330D01*
X-797580Y398060D01*
X-797480Y397570D01*
X-797340Y397360D01*
G02X-812650Y382050I-9110J-6200D01*
G01X-812860Y382190D01*
X-813350Y382290D01*
X-815620Y381810D01*
X-816030Y381530D01*
X-816170Y381310D01*
G02X-817660Y379260I-15689J9837D01*
G03Y377660I961J-800D01*
G02X-816170Y375610I-14199J-11887D01*
G01X-816030Y375390D01*
X-815620Y375110D01*
X-813350Y374630D01*
X-812860Y374730D01*
X-812650Y374870D01*
G02X-796020Y362190I6203J-9110D01*
G01X-796120Y361900D01*
X-796040Y361300D01*
X-794680Y359400D01*
G03X-793660Y358880I1016J732D01*
G01X-789180D01*
G02X-787930Y357630I0J-1250D01*
G01Y323090D01*
G02X-789180Y321840I-1250J0D01*
G01X-793660D01*
G03X-794680Y321320I-4J-1252D01*
G01X-796040Y319420D01*
X-796120Y318820D01*
X-796020Y318530D01*
G02X-797340Y308760I-10429J-3565D01*
G01X-797480Y308550D01*
X-797580Y308060D01*
X-797100Y305790D01*
X-796820Y305380D01*
X-796600Y305240D01*
G02X-792260Y277660I-9851J-15682D01*
G03Y276060I961J-800D01*
G02Y252260I-14190J-11900D01*
G03Y250660I961J-800D01*
G02Y226860I-14190J-11900D01*
G03Y225260I961J-800D01*
G02Y201460I-14190J-11900D01*
G03Y199860I961J-800D01*
G02Y176060I-14190J-11900D01*
G03Y174460I961J-800D01*
G02Y150660I-14190J-11900D01*
G03Y149060I961J-800D01*
G02Y125260I-14190J-11900D01*
G03Y123660I961J-800D01*
G02X-788700Y106490I-14192J-11897D01*
G01X-788750Y106310D01*
Y105610D01*
X-788020Y104880D01*
X-787930D01*
Y68570D01*
X-788660Y67840D01*
X-788750D01*
Y66410D01*
X-788700Y66230D01*
G02X-792260Y49060I-17752J-5273D01*
G03Y47460I961J-800D01*
G02Y23660I-14190J-11900D01*
G03Y22060I961J-800D01*
G02Y-1740I-14190J-11900D01*
G03Y-3340I961J-800D01*
G02Y-27140I-14190J-11900D01*
G03Y-28740I961J-800D01*
G02Y-52540I-14190J-11900D01*
G03Y-54140I961J-800D01*
G02Y-77940I-14190J-11900D01*
G03Y-79540I961J-800D01*
G02Y-103340I-14190J-11900D01*
G03Y-104940I961J-800D01*
G02X-788700Y-122110I-14192J-11897D01*
G01X-788750Y-122290D01*
Y-122990D01*
X-788020Y-123720D01*
X-787930D01*
Y-159510D01*
G02X-789180Y-160760I-1250J0D01*
G01X-809380D01*
G03X-810110Y-161000I6J-1250D01*
G02X-825500Y-165960I-15388J21390D01*
G01X-838200D01*
G02X-853590Y-161000I0J26356D01*
G03X-854320Y-160760I-736J-1010D01*
G01X-874520D01*
G02X-875770Y-159510I0J1250D01*
G01Y-124450D01*
X-875040Y-123720D01*
X-874950D01*
Y-122290D01*
X-875000Y-122110D01*
G02X-871440Y-104940I17752J5273D01*
G03Y-103340I-961J800D01*
G02Y-79540I14190J11900D01*
G03Y-77940I-961J800D01*
G02Y-54140I14190J11900D01*
G03Y-52540I-961J800D01*
G02Y-28740I14190J11900D01*
G03Y-27140I-961J800D01*
G02Y-3340I14190J11900D01*
G03Y-1740I-961J800D01*
G02Y22060I14190J11900D01*
G03Y23660I-961J800D01*
G02Y47460I14190J11900D01*
G03Y49060I-961J800D01*
G02X-875000Y66230I14192J11897D01*
G01X-874950Y66410D01*
Y67110D01*
X-875680Y67840D01*
X-875770D01*
Y104150D01*
X-875040Y104880D01*
X-874950D01*
Y106310D01*
X-875000Y106490D01*
G02X-871440Y123660I17752J5273D01*
G03Y125260I-961J800D01*
G02Y149060I14190J11900D01*
G03Y150660I-961J800D01*
G02Y174460I14190J11900D01*
G03Y176060I-961J800D01*
G02Y199860I14190J11900D01*
G03Y201460I-961J800D01*
G02Y225260I14190J11900D01*
G03Y226860I-961J800D01*
G02Y250660I14190J11900D01*
G03Y252260I-961J800D01*
G02Y276060I14190J11900D01*
G03Y277660I-961J800D01*
G02X-867100Y305240I14191J11898D01*
G01X-866880Y305380D01*
X-866600Y305790D01*
G37*
G54D23*
X0Y304800D03*
Y1225550D03*
G54D19*
X-622300Y871350D03*
Y1138050D03*
X-260350Y1866900D03*
X-146050Y379800D03*
Y1033850D03*
Y1277550D03*
Y1230700D03*
G54D22*
X0Y254000D03*
Y355600D03*
Y406400D03*
Y1174750D03*
G54D20*
X-622300Y1046350D03*
Y1313050D03*
X-468500Y908050D03*
Y1174750D03*
X-419100Y997350D03*
Y1047350D03*
Y1264050D03*
Y1314050D03*
X-239900Y495300D03*
Y558800D03*
Y622300D03*
Y685800D03*
Y1504950D03*
Y1568450D03*
Y1631950D03*
Y1695450D03*
X-146050Y229800D03*
Y883850D03*
Y1080700D03*
Y1427550D03*
G54D21*
X-293500Y908050D03*
Y1174750D03*
%LPD*%
G75*
G54D10*
X-882650Y-193040D03*
Y695960D03*
G54D11*
X-857250Y-142240D03*
Y86360D03*
Y340360D03*
Y594360D03*
X-831850Y-142240D03*
X-806450D03*
X-831850Y86360D03*
X-806450D03*
X-831850Y340360D03*
X-806450D03*
X-831850Y594360D03*
X-806450D03*
G54D12*
X-857250Y-116840D03*
Y-91440D03*
Y-66040D03*
Y-40640D03*
Y-15240D03*
Y10160D03*
Y35560D03*
Y60960D03*
Y111760D03*
Y137160D03*
Y162560D03*
Y187960D03*
Y213360D03*
Y238760D03*
Y264160D03*
Y289560D03*
Y314960D03*
Y365760D03*
Y391160D03*
Y416560D03*
Y441960D03*
Y467360D03*
Y492760D03*
Y518160D03*
Y543560D03*
Y568960D03*
Y619760D03*
Y645160D03*
X-831850Y-116840D03*
Y-91440D03*
X-806450Y-116840D03*
Y-91440D03*
X-831850Y-66040D03*
Y-40640D03*
Y-15240D03*
X-806450Y-66040D03*
Y-40640D03*
Y-15240D03*
X-831850Y10160D03*
Y35560D03*
Y60960D03*
X-806450Y10160D03*
Y35560D03*
Y60960D03*
X-831850Y111760D03*
Y137160D03*
X-806450Y111760D03*
Y137160D03*
X-831850Y162560D03*
Y187960D03*
Y213360D03*
X-806450Y162560D03*
Y187960D03*
Y213360D03*
X-831850Y238760D03*
Y264160D03*
Y289560D03*
X-806450Y238760D03*
Y264160D03*
Y289560D03*
X-831850Y314960D03*
Y365760D03*
X-806450Y314960D03*
Y365760D03*
X-831850Y391160D03*
Y416560D03*
Y441960D03*
X-806450Y391160D03*
Y416560D03*
Y441960D03*
X-831850Y467360D03*
Y492760D03*
Y518160D03*
X-806450Y467360D03*
Y492760D03*
Y518160D03*
X-831850Y543560D03*
Y568960D03*
X-806450Y543560D03*
Y568960D03*
X-831850Y619760D03*
Y645160D03*
X-806450Y619760D03*
Y645160D03*
X-622300Y871350D03*
Y1046350D03*
Y1138050D03*
Y1313050D03*
X-468500Y908050D03*
Y1174750D03*
X-419100Y997350D03*
Y1047350D03*
Y1264050D03*
Y1314050D03*
X-239900Y495300D03*
Y558800D03*
Y622300D03*
Y685800D03*
X-293500Y908050D03*
X-292100Y1047350D03*
Y997350D03*
X-293500Y1174750D03*
X-292100Y1264050D03*
Y1314050D03*
X-239900Y1504950D03*
Y1568450D03*
Y1631950D03*
Y1695450D03*
X-260350Y1866900D03*
X-158750Y1816100D03*
X-184150D03*
X-209550D03*
Y1866900D03*
X-184150D03*
X-158750D03*
X-146050Y229800D03*
Y379800D03*
Y883850D03*
Y1033850D03*
Y1080700D03*
Y1277550D03*
Y1230700D03*
Y1427550D03*
X-64900Y495300D03*
Y558800D03*
Y622300D03*
Y685800D03*
Y1504950D03*
Y1568450D03*
Y1631950D03*
Y1695450D03*
G54D13*
X-762000Y216230D03*
X-660400Y1087570D03*
Y1354270D03*
X-590550Y374650D03*
X-552450Y1089820D03*
Y1356520D03*
X-497870Y62350D03*
X-533400Y1105090D03*
X-514350Y1089820D03*
Y1356520D03*
X-533400Y1371790D03*
X-412750Y-44450D03*
Y107950D03*
X-406400Y228600D03*
Y304800D03*
X-431800Y374650D03*
X-323850Y487550D03*
X-354280Y524250D03*
X-323850Y614550D03*
X-292100Y-63500D03*
X-266700Y-65980D03*
X-292100Y88900D03*
X-266700Y86420D03*
X-264130Y481450D03*
X-306080Y472280D03*
X-261630Y535780D03*
X-308580Y544950D03*
X-279400Y551050D03*
X-306080Y599280D03*
X-264130Y608450D03*
X-308580Y671950D03*
X-261630Y662780D03*
X-279400Y678050D03*
X-219980Y-76200D03*
Y76200D03*
X-63500Y190310D03*
X-81270Y205580D03*
X-45730D03*
X-63500Y291910D03*
X-81270Y307180D03*
X-45730D03*
Y435770D03*
X-81270D03*
X-63500Y451040D03*
Y797220D03*
X-81070Y780150D03*
X-45930D03*
X-81270Y1121570D03*
X-63500Y1206500D03*
Y1136840D03*
Y1276350D03*
X-45930Y1224650D03*
Y1258200D03*
X-44450Y1347100D03*
X-82550D03*
G54D14*
X-260350Y1816100D03*
G54D15*
X0Y50800D03*
Y101600D03*
Y203200D03*
Y152400D03*
Y254000D03*
Y355600D03*
Y304800D03*
Y406400D03*
Y508000D03*
Y457200D03*
Y558800D03*
Y660400D03*
Y609600D03*
Y711200D03*
Y762000D03*
Y1123950D03*
Y1174750D03*
Y1276350D03*
Y1225550D03*
Y1327150D03*
Y1428750D03*
Y1377950D03*
Y1479550D03*
Y1581150D03*
Y1530350D03*
Y1631950D03*
Y1733550D03*
Y1682750D03*
Y1784350D03*
Y1835150D03*
G54D16*
Y0D03*
Y1073150D03*
G54D17*
G01X-857250Y-116840D02*
X-849040Y-125050D01*
G03X-838200Y-129540I10840J10840D01*
G01X-825500D01*
G03X-814660Y-125050I0J15330D01*
G01X-806450Y-116840D01*
G01X-857250Y-142240D02*
X-849040Y-150450D01*
G03X-838200Y-154940I10840J10840D01*
G01X-825500D01*
G03X-814660Y-150450I0J15330D01*
G01X-806450Y-142240D01*
G01X-857250Y-91440D02*
X-849040Y-99650D01*
G03X-838200Y-104140I10840J10840D01*
G01X-825500D01*
G03X-814660Y-99650I0J15330D01*
G01X-806450Y-91440D01*
G01D02*
X-814660Y-83230D01*
G03X-825500Y-78740I-10840J-10840D01*
G01X-838200D01*
G03X-849040Y-83230I0J-15330D01*
G01X-857250Y-91440D01*
G01X-806450Y-15240D02*
X-814660Y-7030D01*
G03X-825500Y-2540I-10840J-10840D01*
G01X-838200D01*
G03X-849040Y-7030I0J-15330D01*
G01X-857250Y-15240D01*
G01X-806450Y-40640D02*
X-814660Y-32430D01*
G03X-825500Y-27940I-10840J-10840D01*
G01X-838200D01*
G03X-849040Y-32430I0J-15330D01*
G01X-857250Y-40640D01*
G01X-806450Y-66040D02*
X-814660Y-57830D01*
G03X-825500Y-53340I-10840J-10840D01*
G01X-838200D01*
G03X-849040Y-57830I0J-15330D01*
G01X-857250Y-66040D01*
G01X-806450Y60960D02*
X-814660Y69170D01*
G03X-825500Y73660I-10840J-10840D01*
G01X-838200D01*
G03X-849040Y69170I0J-15330D01*
G01X-857250Y60960D01*
G01X-806450Y35560D02*
X-814660Y43770D01*
G03X-825500Y48260I-10840J-10840D01*
G01X-838200D01*
G03X-849040Y43770I0J-15330D01*
G01X-857250Y35560D01*
G01X-806450Y10160D02*
X-814660Y18370D01*
G03X-825500Y22860I-10840J-10840D01*
G01X-838200D01*
G03X-849040Y18370I0J-15330D01*
G01X-857250Y10160D01*
G01X-806450Y111760D02*
X-814660Y119970D01*
G03X-825500Y124460I-10840J-10840D01*
G01X-838200D01*
G03X-849040Y119970I0J-15330D01*
G01X-857250Y111760D01*
G01D02*
X-849040Y103550D01*
G03X-838200Y99060I10840J10840D01*
G01X-825500D01*
G03X-814660Y103550I0J15330D01*
G01X-806450Y111760D01*
G01Y187960D02*
X-814660Y196170D01*
G03X-825500Y200660I-10840J-10840D01*
G01X-838200D01*
G03X-849040Y196170I0J-15330D01*
G01X-857250Y187960D01*
G01X-838200Y175260D02*
G03X-849040Y170770I0J-15330D01*
G01X-857250Y162560D01*
G01Y187960D02*
X-849040Y179750D01*
G03X-838200Y175260I10840J10840D01*
G01X-857250Y162560D02*
X-849040Y154350D01*
G03X-838200Y149860I10840J10840D01*
G01X-825500D01*
G03X-814660Y154350I0J15330D01*
G01X-806450Y162560D01*
G01Y264160D02*
X-814660Y272370D01*
G03X-825500Y276860I-10840J-10840D01*
G01X-838200D01*
G03X-849040Y272370I0J-15330D01*
G01X-857250Y264160D01*
G01X-838200Y251460D02*
G03X-849040Y246970I0J-15330D01*
G01X-857250Y238760D01*
G01Y264160D02*
X-849040Y255950D01*
G03X-838200Y251460I10840J10840D01*
G01X-857250Y238760D02*
X-849040Y230550D01*
G03X-838200Y226060I10840J10840D01*
G01X-825500D01*
G03X-814660Y230550I0J15330D01*
G01X-806450Y238760D01*
G01X-857250Y314960D02*
X-849040Y306750D01*
G03X-838200Y302260I10840J10840D01*
G01X-825500D01*
G03X-814660Y306750I0J15330D01*
G01X-806450Y314960D01*
G01D02*
X-814660Y323170D01*
G03X-825500Y327660I-10840J-10840D01*
G01X-838200D01*
G03X-849040Y323170I0J-15330D01*
G01X-857250Y314960D01*
G01X-806450Y340360D02*
X-814660Y348570D01*
G03X-825500Y353060I-10840J-10840D01*
G01X-838200D01*
G03X-849040Y348570I0J-15330D01*
G01X-857250Y340360D01*
G01X-806450Y441960D02*
X-814660Y450170D01*
G03X-825500Y454660I-10840J-10840D01*
G01X-838200D01*
G03X-849040Y450170I0J-15330D01*
G01X-857250Y441960D01*
G01X-806450Y391160D02*
X-814660Y399370D01*
G03X-825500Y403860I-10840J-10840D01*
G01X-838200D01*
G03X-849040Y399370I0J-15330D01*
G01X-857250Y391160D01*
G01X-850900Y378460D02*
X-812800D01*
G01X-806450Y416560D02*
X-814660Y424770D01*
G03X-825500Y429260I-10840J-10840D01*
G01X-838200D01*
G03X-849040Y424770I0J-15330D01*
G01X-857250Y416560D01*
G01X-806450Y518160D02*
X-814660Y526370D01*
G03X-825500Y530860I-10840J-10840D01*
G01X-838200D01*
G03X-849040Y526370I0J-15330D01*
G01X-857250Y518160D01*
G01X-806450Y492760D02*
X-814660Y500970D01*
G03X-825500Y505460I-10840J-10840D01*
G01X-838200D01*
G03X-849040Y500970I0J-15330D01*
G01X-857250Y492760D01*
G01X-806450Y467360D02*
X-814660Y475570D01*
G03X-825500Y480060I-10840J-10840D01*
G01X-838200D01*
G03X-849040Y475570I0J-15330D01*
G01X-857250Y467360D01*
G01X-806450Y568960D02*
X-814660Y577170D01*
G03X-825500Y581660I-10840J-10840D01*
G01X-838200D01*
G03X-849040Y577170I0J-15330D01*
G01X-857250Y568960D01*
G01X-806450Y543560D02*
X-814660Y551770D01*
G03X-825500Y556260I-10840J-10840D01*
G01X-838200D01*
G03X-849040Y551770I0J-15330D01*
G01X-857250Y543560D01*
G01X-806450Y162560D02*
X-814660Y170770D01*
G03X-825500Y175260I-10840J-10840D01*
G01D02*
G03X-814660Y179750I0J15330D01*
G01X-806450Y187960D01*
G01X-838200Y175260D02*
X-825500D01*
G01X-806450Y238760D02*
X-814660Y246970D01*
G03X-825500Y251460I-10840J-10840D01*
G01D02*
G03X-814660Y255950I0J15330D01*
G01X-806450Y264160D01*
G01X-838200Y251460D02*
X-825500D01*
X82750Y-193040D03*
Y2029460D03*
G54D18*
G01X-857250Y365760D02*
Y378030D01*
G01X-869520Y365760D02*
X-857250D01*
G01X-869520Y314960D02*
X-857250D01*
G01X-870070Y309230D02*
X-857250Y314960D01*
G01X-869520Y441960D02*
X-857250D01*
G01X-870070Y436230D02*
X-857250Y441960D01*
G01Y378890D02*
Y391160D01*
G01X-869520D02*
X-857250D01*
G01X-806450Y365760D02*
Y378030D01*
G01Y365760D02*
X-794180D01*
G01X-806450Y314960D02*
X-794180D01*
G01X-806450D02*
X-793630Y320690D01*
G01X-806450Y441960D02*
X-794180D01*
G01X-806450D02*
X-793630Y447690D01*
G01X-806450Y378890D02*
Y391160D01*
G01D02*
X-794180D01*
G01X-622300Y859080D02*
Y871350D01*
G01D02*
Y883620D01*
G01X-634570Y871350D02*
X-622300D01*
G01D02*
X-610030D01*
G01X-622300Y1125780D02*
Y1138050D01*
G01D02*
Y1150320D01*
G01X-634570Y1138050D02*
X-622300D01*
G01D02*
X-610030D01*
G01X-590550Y374650D02*
X-431800D01*
G01X-292100Y-63500D02*
X-384720D01*
G02X-400050Y-57150I0J21680D01*
G01X-412750Y-44450D01*
G01X-292100Y88900D02*
X-384720D01*
G02X-400050Y95250I0J21680D01*
G01X-412750Y107950D01*
G01X-406400Y304800D02*
Y228600D01*
G01X-260350Y1854630D02*
Y1866900D01*
G01D02*
Y1879170D01*
G01X-272620Y1866900D02*
X-260350D01*
G01D02*
X-248080D01*
G01X-146050Y367530D02*
Y379800D01*
G01D02*
Y392070D01*
G01X-158320Y379800D02*
X-146050D01*
G01D02*
X-133780D01*
G01X-146050Y1021580D02*
Y1033850D01*
G01D02*
Y1046120D01*
G01X-158320Y1033850D02*
X-146050D01*
G01D02*
X-133780D01*
G01X-146050Y1218430D02*
Y1230700D01*
G01D02*
Y1242970D01*
G01X-158320Y1230700D02*
X-146050D01*
G01D02*
X-133780D01*
G01X-146050Y1265280D02*
Y1277550D01*
G01D02*
Y1289820D01*
G01X-158320Y1277550D02*
X-146050D01*
G01D02*
X-133780D01*
G01X-16270Y203200D02*
X0D01*
G01X-16270Y304800D02*
X0D01*
G01X-16270Y457200D02*
X0D01*
G01X-16270Y1225550D02*
X0D01*
G01X-16270Y1276350D02*
X0D01*
G01Y203200D02*
Y219470D01*
G01Y203200D02*
X16270D01*
G01X0Y288530D02*
Y304800D01*
G01D02*
Y321070D01*
G01Y304800D02*
X16270D01*
G01X0Y440930D02*
Y457200D01*
G01D02*
X16270D01*
G01X0Y1209280D02*
Y1225550D01*
G01D02*
Y1241820D01*
G01Y1225550D02*
X16270D01*
G01X0Y1260080D02*
Y1276350D01*
G01D02*
X16270D01*
M02*
