G04 ================== begin FILE IDENTIFICATION RECORD ==================*
G04 Layout Name:  D:/Project/Circuit/ORCAD/KSZ/02v3/pcb/KSZ_02v3.brd*
G04 Film Name:    BOTTOM*
G04 File Format:  Gerber RS274X*
G04 File Origin:  Cadence Allegro 16.6-S018*
G04 Origin Date:  Wed Nov 27 09:27:39 2013*
G04 *
G04 Layer:  ETCH/BOTTOM*
G04 Layer:  PIN/BOTTOM*
G04 Layer:  VIA CLASS/BOTTOM*
G04 *
G04 Offset:    (0.000 0.000)*
G04 Mirror:    No*
G04 Mode:      Positive*
G04 Rotation:  0*
G04 FullContactRelief:  No*
G04 UndefLineWidth:     0.250*
G04 ================== end FILE IDENTIFICATION RECORD ====================*
%FSLAX34Y34*MOMM*%
%IR0*IPPOS*OFA0.00000B0.00000*MIA0B0*SFA1.00000B1.00000*%
%ADD13C,1.*%
%ADD10C,4.*%
%ADD18C,2.5*%
%ADD14C,1.6*%
%ADD17C,1.8*%
%ADD11C,1.55*%
%ADD15C,1.95*%
%ADD12R,1.55X1.55*%
%ADD16R,1.95X1.95*%
%ADD19R,2.5X2.5*%
%ADD20C,.2*%
%ADD21C,.5*%
%ADD29C,3.004*%
%ADD22C,2.104*%
%ADD27C,2.304*%
%ADD28C,4.504*%
%ADD23C,3.604*%
%ADD26C,3.804*%
%ADD24C,3.954*%
%ADD25C,6.684*%
G75*
%LPD*%
G75*
G36*
G01X-886470Y666180D02*
X-886200Y666150D01*
G03Y725770I3550J29810D01*
G01X-886470Y725740D01*
X-886980Y725890D01*
X-888580Y727320D01*
G02X-889000Y728250I829J934D01*
G01Y2046050D01*
G02X-884000Y2051050I5000J0D01*
G01X7700D01*
G02X12700Y2046050I0J-5000D01*
G01Y1967150D01*
G03X17700Y1962150I5000J0D01*
G01X90250D01*
G02X95250Y1957150I0J-5000D01*
G01Y-115650D01*
G02X90250Y-120650I-5000J0D01*
G01X17700D01*
G03X12700Y-125650I0J-5000D01*
G01Y-210900D01*
G02X7700Y-215900I-5000J0D01*
G01X-857290D01*
G02X-858420Y-215190I-3J1250D01*
G01X-859550Y-212830D01*
X-859470Y-212120D01*
X-859240Y-211840D01*
G03X-886200Y-163230I-23407J18799D01*
G01X-886470Y-163260D01*
X-886980Y-163110D01*
X-888580Y-161680D01*
G02X-889000Y-160750I829J934D01*
G01Y663670D01*
G02X-888580Y664600I1249J-4D01*
G01X-886980Y666030D01*
X-886470Y666180D01*
G37*
%LPC*%
G75*
G36*
G01X-240750Y1877280D02*
G02X-197010Y1897730I31503J-10379D01*
G03X-196090I460J1161D01*
G02X-171610I12240J-30830D01*
G03X-170690I460J1161D01*
G02X-135160Y1843280I12242J-30829D01*
G01X-135340Y1843100D01*
X-135530Y1842640D01*
Y1840360D01*
X-135340Y1839900D01*
X-135160Y1839720D01*
G02X-170690Y1785270I-23288J-23621D01*
G03X-171610I-460J-1161D01*
G02X-196090I-12240J30830D01*
G03X-197010I-460J-1161D01*
G02X-237640Y1798950I-12238J30830D01*
G01X-237860Y1799310D01*
X-238630Y1799620D01*
X-242280Y1798600D01*
Y1798330D01*
X-276570D01*
G02X-277820Y1799580I0J1250D01*
G01Y1832620D01*
G02X-276570Y1833870I1250J0D01*
G01X-242280D01*
Y1833600D01*
X-238630Y1832580D01*
X-237860Y1832890D01*
X-237640Y1833250D01*
G02X-232540Y1839720I28398J-17140D01*
G01X-232360Y1839900D01*
X-232170Y1840360D01*
Y1842640D01*
X-232360Y1843100D01*
X-232540Y1843280D01*
G02X-240750Y1856520I23296J23611D01*
G01X-240870Y1856870D01*
X-241420Y1857320D01*
X-244370Y1857720D01*
X-245020Y1857420D01*
X-245220Y1857120D01*
G02Y1876680I-14830J9780D01*
G01X-245020Y1876380D01*
X-244370Y1876080D01*
X-241420Y1876480D01*
X-240870Y1876930D01*
X-240750Y1877280D01*
G37*
G36*
G01X10910Y1290490D02*
X10260Y1287790D01*
X10430Y1287160D01*
X10660Y1286930D01*
G02X-10660I-10660J-10580D01*
G01X-10430Y1287160D01*
X-10260Y1287790D01*
X-10910Y1290490D01*
X-11350Y1290970D01*
X-11670Y1291070D01*
G02X-28870Y1351740I11669J36081D01*
G03Y1353360I-948J810D01*
G02X-18440Y1411080I28869J24586D01*
G01X-18200Y1411220D01*
X-17880Y1411660D01*
X-17390Y1414070D01*
X-17520Y1414600D01*
X-17690Y1414820D01*
G02Y1442680I17690J13930D01*
G01X-17520Y1442900D01*
X-17390Y1443430D01*
X-17880Y1445840D01*
X-18200Y1446280D01*
X-18440Y1446420D01*
G02X-37910Y1478730I18439J33133D01*
G01X-37920Y1479100D01*
X-38330Y1479710D01*
X-41120Y1480880D01*
X-41840Y1480750D01*
X-42110Y1480500D01*
G02X-80530Y1534490I-22784J24452D01*
G01X-80220Y1534660D01*
X-79860Y1535240D01*
Y1538160D01*
X-80220Y1538740D01*
X-80530Y1538910D01*
G02Y1597990I15630J29540D01*
G01X-80220Y1598160D01*
X-79860Y1598740D01*
Y1601660D01*
X-80220Y1602240D01*
X-80530Y1602410D01*
G02Y1661490I15630J29540D01*
G01X-80220Y1661660D01*
X-79860Y1662240D01*
Y1665160D01*
X-80220Y1665740D01*
X-80530Y1665910D01*
G02X-49270I15630J29540D01*
G01X-49580Y1665740D01*
X-49940Y1665160D01*
Y1662240D01*
X-49580Y1661660D01*
X-49270Y1661490D01*
G02X-37170Y1650600I-15633J-29537D01*
G01X-36990Y1650330D01*
X-36410Y1650040D01*
X-33640Y1650140D01*
X-33090Y1650480D01*
X-32930Y1650760D01*
G02X-18440Y1665080I32920J-18820D01*
G01X-18200Y1665220D01*
X-17880Y1665660D01*
X-17390Y1668070D01*
X-17520Y1668600D01*
X-17690Y1668820D01*
G02Y1696680I17690J13930D01*
G01X-17520Y1696900D01*
X-17390Y1697430D01*
X-17880Y1699840D01*
X-18200Y1700280D01*
X-18440Y1700420D01*
G02X-28870Y1758140I18439J33134D01*
G03Y1759760I-948J810D01*
G02X-36650Y1794090I28869J24589D01*
G01X-36570Y1794370D01*
X-36690Y1794940D01*
X-37660Y1796210D01*
G02X-37920Y1796970I989J763D01*
G01Y1871820D01*
G02X-36670Y1873070I1250J0D01*
G01X36670D01*
G02X37920Y1871820I0J-1250D01*
G01Y1796970D01*
G02X37660Y1796210I-1249J3D01*
G01X36690Y1794940D01*
X36570Y1794370D01*
X36650Y1794090D01*
G02X28870Y1759760I-36649J-9741D01*
G03Y1758140I948J-810D01*
G02X18440Y1700420I-28869J-24586D01*
G01X18200Y1700280D01*
X17880Y1699840D01*
X17390Y1697430D01*
X17520Y1696900D01*
X17690Y1696680D01*
G02Y1668820I-17690J-13930D01*
G01X17520Y1668600D01*
X17390Y1668070D01*
X17880Y1665660D01*
X18200Y1665220D01*
X18440Y1665080D01*
G02X28870Y1607360I-18439J-33134D01*
G03Y1605740I948J-810D01*
G02Y1556560I-28870J-24590D01*
G03Y1554940I948J-810D01*
G02Y1505760I-28870J-24590D01*
G03Y1504140I948J-810D01*
G02X18440Y1446420I-28869J-24586D01*
G01X18200Y1446280D01*
X17880Y1445840D01*
X17390Y1443430D01*
X17520Y1442900D01*
X17690Y1442680D01*
G02Y1414820I-17690J-13930D01*
G01X17520Y1414600D01*
X17390Y1414070D01*
X17880Y1411660D01*
X18200Y1411220D01*
X18440Y1411080D01*
G02X28870Y1353360I-18439J-33134D01*
G03Y1351740I948J-810D01*
G02X11670Y1291070I-28869J-24589D01*
G01X11350Y1290970D01*
X10910Y1290490D01*
G37*
G36*
G01X-272330Y1284310D02*
Y1245530D01*
G02X-273580Y1244280I-1250J0D01*
G01X-310620D01*
G02X-311870Y1245530I0J1250D01*
G01Y1284310D01*
G03X-312400Y1285330I-1250J-2D01*
G02X-271800I20300J28720D01*
G03X-272330Y1284310I720J-1022D01*
G37*
G36*
G01X-18440Y1106280D02*
G03X-17690Y1110020I-1213J2188D01*
G02X17690I17690J13930D01*
G03X18440Y1106280I1963J-1552D01*
G02X-18440I-18440J-33130D01*
G37*
G36*
G01X-272330Y1017610D02*
Y978830D01*
G02X-273580Y977580I-1250J0D01*
G01X-310620D01*
G02X-311870Y978830I0J1250D01*
G01Y1017610D01*
G03X-312400Y1018630I-1250J-2D01*
G02X-271800I20300J28720D01*
G03X-272330Y1017610I720J-1022D01*
G37*
G36*
G01X-10260Y468640D02*
X-10910Y471340D01*
X-11350Y471820D01*
X-11670Y471920D01*
G02X-29410Y484060I11668J36081D01*
G01X-29620Y484320D01*
X-30240Y484560D01*
X-33050Y484110D01*
X-33560Y483690D01*
X-33680Y483370D01*
G02X-80530Y524840I-31219J11930D01*
G01X-80220Y525010D01*
X-79860Y525590D01*
Y528510D01*
X-80220Y529090D01*
X-80530Y529260D01*
G02Y588340I15630J29540D01*
G01X-80220Y588510D01*
X-79860Y589090D01*
Y592010D01*
X-80220Y592590D01*
X-80530Y592760D01*
G02Y651840I15630J29540D01*
G01X-80220Y652010D01*
X-79860Y652590D01*
Y655510D01*
X-80220Y656090D01*
X-80530Y656260D01*
G02X-31570Y688290I15632J29540D01*
G01X-31550Y687920D01*
X-31100Y687330D01*
X-28260Y686300D01*
X-27540Y686470D01*
X-27280Y686740D01*
G02X-18440Y693530I27267J-26350D01*
G01X-18200Y693670D01*
X-17880Y694110D01*
X-17390Y696520D01*
X-17520Y697050D01*
X-17690Y697270D01*
G02X-20490Y720540I17691J13932D01*
G01X-20360Y720840D01*
X-20400Y721470D01*
X-21710Y723510D01*
G03X-22760Y724080I-1050J-682D01*
G01X-36670D01*
G02X-37920Y725330I0J1250D01*
G01Y798670D01*
G02X-36670Y799920I1250J0D01*
G01X36670D01*
G02X37920Y798670I0J-1250D01*
G01Y725330D01*
G02X36670Y724080I-1250J0D01*
G01X22760D01*
G03X21710Y723510I0J-1252D01*
G01X20400Y721470D01*
X20360Y720840D01*
X20490Y720540D01*
G02X17690Y697270I-20491J-9338D01*
G01X17520Y697050D01*
X17390Y696520D01*
X17880Y694110D01*
X18200Y693670D01*
X18440Y693530D01*
G02X28870Y635810I-18439J-33134D01*
G03Y634190I948J-810D01*
G02Y585010I-28870J-24590D01*
G03Y583390I948J-810D01*
G02Y534210I-28870J-24590D01*
G03Y532590I948J-810D01*
G02X11670Y471920I-28869J-24589D01*
G01X11350Y471820D01*
X10910Y471340D01*
X10260Y468640D01*
X10430Y468010D01*
X10660Y467780D01*
G02X-10660I-10660J-10580D01*
G01X-10430Y468010D01*
X-10260Y468640D01*
G37*
G36*
G01X-798150Y400580D02*
X-798620Y398190D01*
X-798500Y397670D01*
X-798330Y397450D01*
G02X-814570I-8120J-6290D01*
G01X-814400Y397670D01*
X-814280Y398190D01*
X-814750Y400580D01*
X-815060Y401010D01*
X-815300Y401150D01*
G02Y431970I8850J15410D01*
G01X-815060Y432110D01*
X-814750Y432540D01*
X-814280Y434930D01*
X-814400Y435450D01*
X-814570Y435670D01*
G02Y448250I8120J6290D01*
G01X-814400Y448470D01*
X-814280Y448990D01*
X-814750Y451380D01*
X-815060Y451810D01*
X-815300Y451950D01*
G02X-819980Y478880I8850J15410D01*
G03X-819680Y479690I-949J812D01*
G01Y480430D01*
G03X-819980Y481240I-1249J-2D01*
G02Y504280I13530J11520D01*
G03X-819680Y505090I-949J812D01*
G01Y505830D01*
G03X-819980Y506640I-1249J-2D01*
G02Y529680I13530J11520D01*
G03X-819680Y530490I-949J812D01*
G01Y531230D01*
G03X-819980Y532040I-1249J-2D01*
G02Y555080I13530J11520D01*
G03X-819680Y555890I-949J812D01*
G01Y556630D01*
G03X-819980Y557440I-1249J-2D01*
G02X-823190Y574920I13530J11519D01*
G01X-823120Y575120D01*
Y575860D01*
X-823850Y576590D01*
X-824220D01*
Y611400D01*
X-823490Y612130D01*
X-823120D01*
Y613600D01*
X-823190Y613800D01*
G02X-819980Y631280I16740J5961D01*
G03X-819680Y632090I-949J812D01*
G01Y632830D01*
G03X-819980Y633640I-1249J-2D01*
G02X-792920I13530J11520D01*
G03X-793220Y632830I949J-812D01*
G01Y632090D01*
G03X-792920Y631280I1249J2D01*
G02X-789710Y613800I-13530J-11519D01*
G01X-789780Y613600D01*
Y612860D01*
X-789050Y612130D01*
X-788680D01*
Y577320D01*
X-789410Y576590D01*
X-789780D01*
Y575120D01*
X-789710Y574920D01*
G02X-792920Y557440I-16740J-5961D01*
G03X-793220Y556630I949J-812D01*
G01Y555890D01*
G03X-792920Y555080I1249J2D01*
G02Y532040I-13530J-11520D01*
G03X-793220Y531230I949J-812D01*
G01Y530490D01*
G03X-792920Y529680I1249J2D01*
G02Y506640I-13530J-11520D01*
G03X-793220Y505830I949J-812D01*
G01Y505090D01*
G03X-792920Y504280I1249J2D01*
G02Y481240I-13530J-11520D01*
G03X-793220Y480430I949J-812D01*
G01Y479690D01*
G03X-792920Y478880I1249J2D01*
G02X-797600Y451950I-13530J-11520D01*
G01X-797840Y451810D01*
X-798150Y451380D01*
X-798620Y448990D01*
X-798500Y448470D01*
X-798330Y448250D01*
G02Y435670I-8120J-6290D01*
G01X-798500Y435450D01*
X-798620Y434930D01*
X-798150Y432540D01*
X-797840Y432110D01*
X-797600Y431970D01*
G02Y401150I-8850J-15410D01*
G01X-797840Y401010D01*
X-798150Y400580D01*
G37*
G36*
G01X-848950D02*
X-849420Y398190D01*
X-849300Y397670D01*
X-849130Y397450D01*
G02X-865370I-8120J-6290D01*
G01X-865200Y397670D01*
X-865080Y398190D01*
X-865550Y400580D01*
X-865860Y401010D01*
X-866100Y401150D01*
G02Y431970I8850J15410D01*
G01X-865860Y432110D01*
X-865550Y432540D01*
X-865080Y434930D01*
X-865200Y435450D01*
X-865370Y435670D01*
G02Y448250I8120J6290D01*
G01X-865200Y448470D01*
X-865080Y448990D01*
X-865550Y451380D01*
X-865860Y451810D01*
X-866100Y451950D01*
G02X-870780Y478880I8850J15410D01*
G03X-870480Y479690I-949J812D01*
G01Y480430D01*
G03X-870780Y481240I-1249J-2D01*
G02Y504280I13530J11520D01*
G03X-870480Y505090I-949J812D01*
G01Y505830D01*
G03X-870780Y506640I-1249J-2D01*
G02Y529680I13530J11520D01*
G03X-870480Y530490I-949J812D01*
G01Y531230D01*
G03X-870780Y532040I-1249J-2D01*
G02Y555080I13530J11520D01*
G03X-870480Y555890I-949J812D01*
G01Y556630D01*
G03X-870780Y557440I-1249J-2D01*
G02X-873990Y574920I13530J11519D01*
G01X-873920Y575120D01*
Y575860D01*
X-874650Y576590D01*
X-875020D01*
Y611400D01*
X-874290Y612130D01*
X-873920D01*
Y613600D01*
X-873990Y613800D01*
G02X-870780Y631280I16740J5961D01*
G03X-870480Y632090I-949J812D01*
G01Y632830D01*
G03X-870780Y633640I-1249J-2D01*
G02X-843720I13530J11520D01*
G03X-844020Y632830I949J-812D01*
G01Y632090D01*
G03X-843720Y631280I1249J2D01*
G02X-840510Y613800I-13530J-11519D01*
G01X-840580Y613600D01*
Y612860D01*
X-839850Y612130D01*
X-839480D01*
Y577320D01*
X-840210Y576590D01*
X-840580D01*
Y575120D01*
X-840510Y574920D01*
G02X-843720Y557440I-16740J-5961D01*
G03X-844020Y556630I949J-812D01*
G01Y555890D01*
G03X-843720Y555080I1249J2D01*
G02Y532040I-13530J-11520D01*
G03X-844020Y531230I949J-812D01*
G01Y530490D01*
G03X-843720Y529680I1249J2D01*
G02Y506640I-13530J-11520D01*
G03X-844020Y505830I949J-812D01*
G01Y505090D01*
G03X-843720Y504280I1249J2D01*
G02Y481240I-13530J-11520D01*
G03X-844020Y480430I949J-812D01*
G01Y479690D01*
G03X-843720Y478880I1249J2D01*
G02X-848400Y451950I-13530J-11520D01*
G01X-848640Y451810D01*
X-848950Y451380D01*
X-849420Y448990D01*
X-849300Y448470D01*
X-849130Y448250D01*
G02Y435670I-8120J-6290D01*
G01X-849300Y435450D01*
X-849420Y434930D01*
X-848950Y432540D01*
X-848640Y432110D01*
X-848400Y431970D01*
G02Y401150I-8850J-15410D01*
G01X-848640Y401010D01*
X-848950Y400580D01*
G37*
G36*
G01X-440470Y362130D02*
X-569180D01*
G03X-569850Y361940I-7J-1251D01*
G02Y387360I-8000J12710D01*
G03X-569180Y387170I663J1061D01*
G01X-440470D01*
G03X-439800Y387360I7J1251D01*
G02Y361940I8000J-12710D01*
G03X-440470Y362130I-663J-1061D01*
G37*
G36*
G01X-393880Y296130D02*
Y237270D01*
G03X-393690Y236600I1251J-7D01*
G02X-419110I-12710J-8000D01*
G03X-418920Y237270I-1061J663D01*
G01Y296130D01*
G03X-419110Y296800I-1251J7D01*
G02X-393690I12710J8000D01*
G03X-393880Y296130I1061J-663D01*
G37*
G36*
G01X-397900Y110800D02*
X-388880Y101790D01*
G03X-388000Y101420I887J879D01*
G01X-300770D01*
G03X-300100Y101610I7J1251D01*
G02Y76190I8000J-12710D01*
G03X-300770Y76380I-663J-1061D01*
G01X-391630D01*
X-391760D01*
G02X-404010Y81500I128J17521D01*
G01X-415600Y93100D01*
X-415910Y93260D01*
X-416080Y93300D01*
G02X-398100Y111280I3330J14650D01*
G01X-398060Y111110D01*
X-397900Y110800D01*
G37*
G36*
G01X-28870Y77010D02*
G02Y126190I28870J24590D01*
G03Y127810I-948J810D01*
G02X-11670Y188480I28869J24589D01*
G01X-11350Y188580D01*
X-10910Y189060D01*
X-10260Y191760D01*
X-10430Y192390D01*
X-10660Y192620D01*
G02X10660I10660J10580D01*
G01X10430Y192390D01*
X10260Y191760D01*
X10910Y189060D01*
X11350Y188580D01*
X11670Y188480D01*
G02X28870Y127810I-11669J-36081D01*
G03Y126190I948J-810D01*
G02Y77010I-28870J-24590D01*
G03Y75390I948J-810D01*
G02Y26210I-28870J-24590D01*
G03Y24590I948J-810D01*
G02X-28870I-28870J-24590D01*
G03Y26210I-948J810D01*
G02Y75390I28870J24590D01*
G03Y77010I-948J810D01*
G37*
G36*
G01X-404010Y-70900D02*
X-415600Y-59300D01*
X-415910Y-59140D01*
X-416080Y-59100D01*
G02X-398100Y-41120I3330J14650D01*
G01X-398060Y-41290D01*
X-397900Y-41600D01*
X-388880Y-50610D01*
G03X-388000Y-50980I887J879D01*
G01X-300770D01*
G03X-300100Y-50790I7J1251D01*
G02Y-76210I8000J-12710D01*
G03X-300770Y-76020I-663J-1061D01*
G01X-391630D01*
X-391760D01*
G02X-404010Y-70900I128J17521D01*
G37*
G36*
G01X-788680Y-124470D02*
Y-158760D01*
G02X-789930Y-160010I-1250J0D01*
G01X-822970D01*
G02X-824220Y-158760I0J1250D01*
G01Y-125200D01*
X-823490Y-124470D01*
X-823120D01*
Y-123000D01*
X-823190Y-122800D01*
G02X-819980Y-105320I16740J5961D01*
G03X-819680Y-104510I-949J812D01*
G01Y-103770D01*
G03X-819980Y-102960I-1249J-2D01*
G02Y-79920I13530J11520D01*
G03X-819680Y-79110I-949J812D01*
G01Y-78370D01*
G03X-819980Y-77560I-1249J-2D01*
G02Y-54520I13530J11520D01*
G03X-819680Y-53710I-949J812D01*
G01Y-52970D01*
G03X-819980Y-52160I-1249J-2D01*
G02Y-29120I13530J11520D01*
G03X-819680Y-28310I-949J812D01*
G01Y-27570D01*
G03X-819980Y-26760I-1249J-2D01*
G02Y-3720I13530J11520D01*
G03X-819680Y-2910I-949J812D01*
G01Y-2170D01*
G03X-819980Y-1360I-1249J-2D01*
G02Y21680I13530J11520D01*
G03X-819680Y22490I-949J812D01*
G01Y23230D01*
G03X-819980Y24040I-1249J-2D01*
G02Y47080I13530J11520D01*
G03X-819680Y47890I-949J812D01*
G01Y48630D01*
G03X-819980Y49440I-1249J-2D01*
G02X-823190Y66920I13530J11519D01*
G01X-823120Y67120D01*
Y67860D01*
X-823850Y68590D01*
X-824220D01*
Y103400D01*
X-823490Y104130D01*
X-823120D01*
Y105600D01*
X-823190Y105800D01*
G02X-819980Y123280I16740J5961D01*
G03X-819680Y124090I-949J812D01*
G01Y124830D01*
G03X-819980Y125640I-1249J-2D01*
G02Y148680I13530J11520D01*
G03X-819680Y149490I-949J812D01*
G01Y150230D01*
G03X-819980Y151040I-1249J-2D01*
G02Y174080I13530J11520D01*
G03X-819680Y174890I-949J812D01*
G01Y175630D01*
G03X-819980Y176440I-1249J-2D01*
G02Y199480I13530J11520D01*
G03X-819680Y200290I-949J812D01*
G01Y201030D01*
G03X-819980Y201840I-1249J-2D01*
G02Y224880I13530J11520D01*
G03X-819680Y225690I-949J812D01*
G01Y226430D01*
G03X-819980Y227240I-1249J-2D01*
G02Y250280I13530J11520D01*
G03X-819680Y251090I-949J812D01*
G01Y251830D01*
G03X-819980Y252640I-1249J-2D01*
G02Y275680I13530J11520D01*
G03X-819680Y276490I-949J812D01*
G01Y277230D01*
G03X-819980Y278040I-1249J-2D01*
G02X-815300Y304970I13530J11520D01*
G01X-815060Y305110D01*
X-814750Y305540D01*
X-814280Y307930D01*
X-814400Y308450D01*
X-814570Y308670D01*
G02X-815850Y319090I8121J6286D01*
G01X-815720Y319380D01*
X-815770Y320000D01*
X-817100Y322020D01*
G03X-818140Y322590I-1048J-679D01*
G01X-822970D01*
G02X-824220Y323840I0J1250D01*
G01Y356880D01*
G02X-822970Y358130I1250J0D01*
G01X-818140D01*
G03X-817100Y358700I-8J1249D01*
G01X-815770Y360720D01*
X-815720Y361340D01*
X-815850Y361630D01*
G02X-797050I9400J4130D01*
G01X-797180Y361340D01*
X-797130Y360720D01*
X-795800Y358700D01*
G03X-794760Y358130I1048J679D01*
G01X-789930D01*
G02X-788680Y356880I0J-1250D01*
G01Y323840D01*
G02X-789930Y322590I-1250J0D01*
G01X-794760D01*
G03X-795800Y322020I8J-1249D01*
G01X-797130Y320000D01*
X-797180Y319380D01*
X-797050Y319090D01*
G02X-798330Y308670I-9401J-4134D01*
G01X-798500Y308450D01*
X-798620Y307930D01*
X-798150Y305540D01*
X-797840Y305110D01*
X-797600Y304970D01*
G02X-792920Y278040I-8850J-15410D01*
G03X-793220Y277230I949J-812D01*
G01Y276490D01*
G03X-792920Y275680I1249J2D01*
G02Y252640I-13530J-11520D01*
G03X-793220Y251830I949J-812D01*
G01Y251090D01*
G03X-792920Y250280I1249J2D01*
G02Y227240I-13530J-11520D01*
G03X-793220Y226430I949J-812D01*
G01Y225690D01*
G03X-792920Y224880I1249J2D01*
G02Y201840I-13530J-11520D01*
G03X-793220Y201030I949J-812D01*
G01Y200290D01*
G03X-792920Y199480I1249J2D01*
G02Y176440I-13530J-11520D01*
G03X-793220Y175630I949J-812D01*
G01Y174890D01*
G03X-792920Y174080I1249J2D01*
G02Y151040I-13530J-11520D01*
G03X-793220Y150230I949J-812D01*
G01Y149490D01*
G03X-792920Y148680I1249J2D01*
G02Y125640I-13530J-11520D01*
G03X-793220Y124830I949J-812D01*
G01Y124090D01*
G03X-792920Y123280I1249J2D01*
G02X-789710Y105800I-13530J-11519D01*
G01X-789780Y105600D01*
Y104860D01*
X-789050Y104130D01*
X-788680D01*
Y69320D01*
X-789410Y68590D01*
X-789780D01*
Y67120D01*
X-789710Y66920D01*
G02X-792920Y49440I-16740J-5961D01*
G03X-793220Y48630I949J-812D01*
G01Y47890D01*
G03X-792920Y47080I1249J2D01*
G02Y24040I-13530J-11520D01*
G03X-793220Y23230I949J-812D01*
G01Y22490D01*
G03X-792920Y21680I1249J2D01*
G02Y-1360I-13530J-11520D01*
G03X-793220Y-2170I949J-812D01*
G01Y-2910D01*
G03X-792920Y-3720I1249J2D01*
G02Y-26760I-13530J-11520D01*
G03X-793220Y-27570I949J-812D01*
G01Y-28310D01*
G03X-792920Y-29120I1249J2D01*
G02Y-52160I-13530J-11520D01*
G03X-793220Y-52970I949J-812D01*
G01Y-53710D01*
G03X-792920Y-54520I1249J2D01*
G02Y-77560I-13530J-11520D01*
G03X-793220Y-78370I949J-812D01*
G01Y-79110D01*
G03X-792920Y-79920I1249J2D01*
G02Y-102960I-13530J-11520D01*
G03X-793220Y-103770I949J-812D01*
G01Y-104510D01*
G03X-792920Y-105320I1249J2D01*
G02X-789710Y-122800I-13530J-11519D01*
G01X-789780Y-123000D01*
Y-123740D01*
X-789050Y-124470D01*
X-788680D01*
G37*
G36*
G01X-839480D02*
Y-158760D01*
G02X-840730Y-160010I-1250J0D01*
G01X-873770D01*
G02X-875020Y-158760I0J1250D01*
G01Y-125200D01*
X-874290Y-124470D01*
X-873920D01*
Y-123000D01*
X-873990Y-122800D01*
G02X-870780Y-105320I16740J5961D01*
G03X-870480Y-104510I-949J812D01*
G01Y-103770D01*
G03X-870780Y-102960I-1249J-2D01*
G02Y-79920I13530J11520D01*
G03X-870480Y-79110I-949J812D01*
G01Y-78370D01*
G03X-870780Y-77560I-1249J-2D01*
G02Y-54520I13530J11520D01*
G03X-870480Y-53710I-949J812D01*
G01Y-52970D01*
G03X-870780Y-52160I-1249J-2D01*
G02Y-29120I13530J11520D01*
G03X-870480Y-28310I-949J812D01*
G01Y-27570D01*
G03X-870780Y-26760I-1249J-2D01*
G02Y-3720I13530J11520D01*
G03X-870480Y-2910I-949J812D01*
G01Y-2170D01*
G03X-870780Y-1360I-1249J-2D01*
G02Y21680I13530J11520D01*
G03X-870480Y22490I-949J812D01*
G01Y23230D01*
G03X-870780Y24040I-1249J-2D01*
G02Y47080I13530J11520D01*
G03X-870480Y47890I-949J812D01*
G01Y48630D01*
G03X-870780Y49440I-1249J-2D01*
G02X-873990Y66920I13530J11519D01*
G01X-873920Y67120D01*
Y67860D01*
X-874650Y68590D01*
X-875020D01*
Y103400D01*
X-874290Y104130D01*
X-873920D01*
Y105600D01*
X-873990Y105800D01*
G02X-870780Y123280I16740J5961D01*
G03X-870480Y124090I-949J812D01*
G01Y124830D01*
G03X-870780Y125640I-1249J-2D01*
G02Y148680I13530J11520D01*
G03X-870480Y149490I-949J812D01*
G01Y150230D01*
G03X-870780Y151040I-1249J-2D01*
G02Y174080I13530J11520D01*
G03X-870480Y174890I-949J812D01*
G01Y175630D01*
G03X-870780Y176440I-1249J-2D01*
G02Y199480I13530J11520D01*
G03X-870480Y200290I-949J812D01*
G01Y201030D01*
G03X-870780Y201840I-1249J-2D01*
G02Y224880I13530J11520D01*
G03X-870480Y225690I-949J812D01*
G01Y226430D01*
G03X-870780Y227240I-1249J-2D01*
G02Y250280I13530J11520D01*
G03X-870480Y251090I-949J812D01*
G01Y251830D01*
G03X-870780Y252640I-1249J-2D01*
G02Y275680I13530J11520D01*
G03X-870480Y276490I-949J812D01*
G01Y277230D01*
G03X-870780Y278040I-1249J-2D01*
G02X-866100Y304970I13530J11520D01*
G01X-865860Y305110D01*
X-865550Y305540D01*
X-865080Y307930D01*
X-865200Y308450D01*
X-865370Y308670D01*
G02X-866650Y319090I8121J6286D01*
G01X-866520Y319380D01*
X-866570Y320000D01*
X-867900Y322020D01*
G03X-868940Y322590I-1048J-679D01*
G01X-873770D01*
G02X-875020Y323840I0J1250D01*
G01Y356880D01*
G02X-873770Y358130I1250J0D01*
G01X-868940D01*
G03X-867900Y358700I-8J1249D01*
G01X-866570Y360720D01*
X-866520Y361340D01*
X-866650Y361630D01*
G02X-847850I9400J4130D01*
G01X-847980Y361340D01*
X-847930Y360720D01*
X-846600Y358700D01*
G03X-845560Y358130I1048J679D01*
G01X-840730D01*
G02X-839480Y356880I0J-1250D01*
G01Y323840D01*
G02X-840730Y322590I-1250J0D01*
G01X-845560D01*
G03X-846600Y322020I8J-1249D01*
G01X-847930Y320000D01*
X-847980Y319380D01*
X-847850Y319090D01*
G02X-849130Y308670I-9401J-4134D01*
G01X-849300Y308450D01*
X-849420Y307930D01*
X-848950Y305540D01*
X-848640Y305110D01*
X-848400Y304970D01*
G02X-843720Y278040I-8850J-15410D01*
G03X-844020Y277230I949J-812D01*
G01Y276490D01*
G03X-843720Y275680I1249J2D01*
G02Y252640I-13530J-11520D01*
G03X-844020Y251830I949J-812D01*
G01Y251090D01*
G03X-843720Y250280I1249J2D01*
G02Y227240I-13530J-11520D01*
G03X-844020Y226430I949J-812D01*
G01Y225690D01*
G03X-843720Y224880I1249J2D01*
G02Y201840I-13530J-11520D01*
G03X-844020Y201030I949J-812D01*
G01Y200290D01*
G03X-843720Y199480I1249J2D01*
G02Y176440I-13530J-11520D01*
G03X-844020Y175630I949J-812D01*
G01Y174890D01*
G03X-843720Y174080I1249J2D01*
G02Y151040I-13530J-11520D01*
G03X-844020Y150230I949J-812D01*
G01Y149490D01*
G03X-843720Y148680I1249J2D01*
G02Y125640I-13530J-11520D01*
G03X-844020Y124830I949J-812D01*
G01Y124090D01*
G03X-843720Y123280I1249J2D01*
G02X-840510Y105800I-13530J-11519D01*
G01X-840580Y105600D01*
Y104860D01*
X-839850Y104130D01*
X-839480D01*
Y69320D01*
X-840210Y68590D01*
X-840580D01*
Y67120D01*
X-840510Y66920D01*
G02X-843720Y49440I-16740J-5961D01*
G03X-844020Y48630I949J-812D01*
G01Y47890D01*
G03X-843720Y47080I1249J2D01*
G02Y24040I-13530J-11520D01*
G03X-844020Y23230I949J-812D01*
G01Y22490D01*
G03X-843720Y21680I1249J2D01*
G02Y-1360I-13530J-11520D01*
G03X-844020Y-2170I949J-812D01*
G01Y-2910D01*
G03X-843720Y-3720I1249J2D01*
G02Y-26760I-13530J-11520D01*
G03X-844020Y-27570I949J-812D01*
G01Y-28310D01*
G03X-843720Y-29120I1249J2D01*
G02Y-52160I-13530J-11520D01*
G03X-844020Y-52970I949J-812D01*
G01Y-53710D01*
G03X-843720Y-54520I1249J2D01*
G02Y-77560I-13530J-11520D01*
G03X-844020Y-78370I949J-812D01*
G01Y-79110D01*
G03X-843720Y-79920I1249J2D01*
G02Y-102960I-13530J-11520D01*
G03X-844020Y-103770I949J-812D01*
G01Y-104510D01*
G03X-843720Y-105320I1249J2D01*
G02X-840510Y-122800I-13530J-11519D01*
G01X-840580Y-123000D01*
Y-123740D01*
X-839850Y-124470D01*
X-839480D01*
G37*
G36*
G01X-437620Y1067120D02*
X-400580D01*
G02X-399330Y1065870I0J-1250D01*
G01Y1028830D01*
G02X-400580Y1027580I-1250J0D01*
G01X-437620D01*
G02X-438870Y1028830I0J1250D01*
G01Y1065870D01*
G02X-437620Y1067120I1250J0D01*
G37*
G36*
G01Y1333820D02*
X-400580D01*
G02X-399330Y1332570I0J-1250D01*
G01Y1295530D01*
G02X-400580Y1294280I-1250J0D01*
G01X-437620D01*
G02X-438870Y1295530I0J1250D01*
G01Y1332570D01*
G02X-437620Y1333820I1250J0D01*
G37*
G54D29*
X0Y304800D03*
Y1225550D03*
G54D22*
X-622300Y871350D03*
Y1138050D03*
G54D27*
X-146050Y379800D03*
Y1033850D03*
Y1277550D03*
Y1230700D03*
G54D28*
X0Y254000D03*
Y355600D03*
Y406400D03*
Y1174750D03*
G54D23*
X-622300Y1046350D03*
Y1313050D03*
X-468500Y908050D03*
Y1174750D03*
X-239900Y495300D03*
Y558800D03*
Y622300D03*
Y685800D03*
Y1504950D03*
Y1568450D03*
Y1631950D03*
Y1695450D03*
G54D26*
X-146050Y229800D03*
Y883850D03*
Y1080700D03*
Y1427550D03*
G54D24*
X-419100Y997350D03*
Y1264050D03*
G54D25*
X-293500Y908050D03*
Y1174750D03*
%LPD*%
G75*
G54D10*
X-882650Y-193040D03*
Y695960D03*
G54D20*
X82750Y-193040D03*
Y2029460D03*
G54D11*
X-857250Y-91440D03*
Y-116840D03*
Y-15240D03*
Y-40640D03*
Y-66040D03*
Y60960D03*
Y35560D03*
Y10160D03*
Y137160D03*
Y111760D03*
Y213360D03*
Y187960D03*
Y162560D03*
Y289560D03*
Y264160D03*
Y238760D03*
Y365760D03*
Y314960D03*
Y441960D03*
Y416560D03*
Y391160D03*
Y518160D03*
Y492760D03*
Y467360D03*
Y568960D03*
Y543560D03*
Y645160D03*
Y619760D03*
X-806450Y-91440D03*
Y-116840D03*
Y-15240D03*
Y-40640D03*
Y-66040D03*
Y60960D03*
Y35560D03*
Y10160D03*
Y137160D03*
Y111760D03*
Y213360D03*
Y187960D03*
Y162560D03*
Y289560D03*
Y264160D03*
Y238760D03*
Y365760D03*
Y314960D03*
Y441960D03*
Y416560D03*
Y391160D03*
Y518160D03*
Y492760D03*
Y467360D03*
Y568960D03*
Y543560D03*
Y645160D03*
Y619760D03*
X-260050Y1866900D03*
X-158450Y1816100D03*
X-183850D03*
X-209250D03*
Y1866900D03*
X-183850D03*
X-158450D03*
G54D21*
G01X-868770Y314960D02*
X-857250D01*
G01D02*
X-845730D01*
G01X-857250Y365760D02*
Y377280D01*
G01X-868770Y365760D02*
X-857250D01*
G01D02*
X-845730D01*
G01X-857250Y379640D02*
Y391160D01*
G01X-868770D02*
X-857250D01*
G01D02*
X-845730D01*
G01X-868770Y441960D02*
X-857250D01*
G01D02*
X-845730D01*
G01X-817970Y314960D02*
X-806450D01*
G01D02*
X-794930D01*
G01X-806450Y365760D02*
Y377280D01*
G01X-817970Y365760D02*
X-806450D01*
G01D02*
X-794930D01*
G01X-806450Y379640D02*
Y391160D01*
G01X-817970D02*
X-806450D01*
G01D02*
X-794930D01*
G01X-817970Y441960D02*
X-806450D01*
G01D02*
X-794930D01*
G01X-622300Y859580D02*
Y871350D01*
G01D02*
Y883120D01*
G01X-634070Y871350D02*
X-622300D01*
G01D02*
X-610530D01*
G01X-622300Y1126280D02*
Y1138050D01*
G01D02*
Y1149820D01*
G01X-634070Y1138050D02*
X-622300D01*
G01D02*
X-610530D01*
G01X-577850Y374650D02*
X-431800D01*
G01X-292100Y-63500D02*
X-391630D01*
G02X-395160Y-62040I1J5000D01*
G01X-412750Y-44450D01*
G01X-292100Y88900D02*
X-391630D01*
G02X-395160Y90360I1J5000D01*
G01X-412750Y107950D01*
G01X-406400Y304800D02*
Y228600D01*
G01X-146050Y367030D02*
Y379800D01*
G01D02*
Y392570D01*
G01X-158820Y379800D02*
X-146050D01*
G01D02*
X-133280D01*
G01X-146050Y1021080D02*
Y1033850D01*
G01D02*
Y1046620D01*
G01X-158820Y1033850D02*
X-146050D01*
G01D02*
X-133280D01*
G01X-146050Y1217930D02*
Y1230700D01*
G01D02*
Y1243470D01*
G01X-158820Y1230700D02*
X-146050D01*
G01D02*
X-133280D01*
G01X-146050Y1264780D02*
Y1277550D01*
G01D02*
Y1290320D01*
G01X-158820Y1277550D02*
X-146050D01*
G01D02*
X-133280D01*
G01X-16270Y203200D02*
X0D01*
G01X-16270Y304800D02*
X0D01*
G01X-16270Y457200D02*
X0D01*
G01X-16270Y1276350D02*
X0D01*
G01X-16270Y1225550D02*
X0D01*
G01Y203200D02*
Y219470D01*
G01Y203200D02*
X16270D01*
G01X0Y288530D02*
Y304800D01*
G01D02*
Y321070D01*
G01Y304800D02*
X16270D01*
G01X0Y440930D02*
Y457200D01*
G01D02*
X16270D01*
G01X0Y1260080D02*
Y1276350D01*
G01D02*
X16270D01*
G01X0Y1209280D02*
Y1225550D01*
G01D02*
Y1241820D01*
G01Y1225550D02*
X16270D01*
G54D12*
X-857250Y-142240D03*
Y86360D03*
Y340360D03*
Y594360D03*
X-806450Y-142240D03*
Y86360D03*
Y340360D03*
Y594360D03*
X-260050Y1816100D03*
G54D13*
X-762000Y221830D03*
X-654050Y1087970D03*
Y1354670D03*
X-577850Y374650D03*
X-549920Y1088300D03*
X-550000Y1355000D03*
X-499350Y61200D03*
X-516800Y1088300D03*
X-533400Y1104900D03*
X-516800Y1355000D03*
X-533400Y1371600D03*
X-412750Y-44450D03*
Y107950D03*
X-406400Y228600D03*
Y304800D03*
X-431800Y374650D03*
X-323850Y490320D03*
X-368300Y537020D03*
X-323850Y617320D03*
X-292100Y-63500D03*
X-266700Y-67230D03*
X-292100Y88900D03*
X-266700Y85170D03*
X-262650Y480300D03*
X-307250Y473800D03*
X-279400Y553820D03*
X-262800Y537300D03*
X-307100Y543800D03*
X-262800Y664300D03*
X-262650Y607300D03*
X-307250Y600800D03*
X-307100Y670800D03*
X-279400Y680820D03*
X-80100Y207100D03*
X-46900D03*
X-63500Y190500D03*
Y292100D03*
X-80100Y308700D03*
X-46900D03*
Y434250D03*
X-80100D03*
X-63500Y450850D03*
X-46900Y777150D03*
X-80100D03*
X-63500Y793750D03*
X-80100Y1120050D03*
X-63500Y1205130D03*
Y1136650D03*
Y1277720D03*
X-46900Y1261200D03*
Y1221650D03*
Y1350100D03*
X-63500Y1366620D03*
G54D14*
X-622300Y871350D03*
Y1046350D03*
Y1138050D03*
Y1313050D03*
X-468500Y908050D03*
Y1174750D03*
X-239900Y495300D03*
Y558800D03*
Y622300D03*
Y685800D03*
X-293500Y908050D03*
Y1174750D03*
X-239900Y1504950D03*
Y1568450D03*
Y1631950D03*
Y1695450D03*
X-64900Y495300D03*
Y558800D03*
Y622300D03*
Y685800D03*
Y1504950D03*
Y1568450D03*
Y1631950D03*
Y1695450D03*
G54D15*
X-419100Y997350D03*
Y1264050D03*
X-292100Y1047350D03*
Y1314050D03*
G54D16*
X-419100Y1047350D03*
Y1314050D03*
X-292100Y997350D03*
Y1264050D03*
G54D17*
X-146050Y229800D03*
Y379800D03*
Y883850D03*
Y1033850D03*
Y1080700D03*
Y1277550D03*
Y1230700D03*
Y1427550D03*
G54D18*
X0Y0D03*
Y50800D03*
Y101600D03*
Y152400D03*
Y203200D03*
Y254000D03*
Y355600D03*
Y304800D03*
Y406400D03*
Y457200D03*
Y508000D03*
Y558800D03*
Y609600D03*
Y660400D03*
Y711200D03*
Y1073150D03*
Y1123950D03*
Y1174750D03*
Y1225550D03*
Y1276350D03*
Y1327150D03*
Y1428750D03*
Y1377950D03*
Y1479550D03*
Y1530350D03*
Y1581150D03*
Y1631950D03*
Y1682750D03*
Y1733550D03*
Y1784350D03*
G54D19*
Y762000D03*
Y1835150D03*
M02*
