M48
METRIC,TZ
T01C.4
T02C1.
T03C1.8
T04C3.
T05C2.7
;LEADER: 12 
;HEADER: 
;CODE  : ASCII 
;FILE  : KSZ_02v4-1-2.drl for  ... layers TOP and BOTTOM
;DESIGN: KSZ_02v4.brd
;T01 Holesize 1. = 0.400000 Tolerance = +0.000000/-0.000000 PLATED MM Quantity = 55
;T02 Holesize 2. = 1.000000 Tolerance = +0.000000/-0.000000 PLATED MM Quantity = 144
;T03 Holesize 3. = 1.800000 Tolerance = +0.000000/-0.000000 PLATED MM Quantity = 32
;T04 Holesize 4. = 3.000000 Tolerance = +0.100000/-0.100000 PLATED MM Quantity = 2
;T05 Holesize 5. = 2.700000 Tolerance = +0.000000/-0.000000 NON_PLATED MM Quantity = 2
%
G90
T01
X-45730Y307180
X-306080Y472280
X-323850Y487550
X-45930Y780150
X-266700Y-65980
X-261630Y662780
X-308580Y671950
X-660400Y1354270
X-63500Y291910
X-514350Y1356520
X-63500Y1136840
X-354280Y524250
X-264130Y481450
X-762000Y216230
X-82550Y1347100
X-45730Y205580
X-63500Y451040
X-81270Y205580
X-63500Y190310
X-279400Y551050
X-533400Y1371790
X-81270Y435770
X-63500Y1206500
X-45930Y1258200
X-45730Y435770
X-81070Y780150
X-45930Y1224650
X-44450Y1347100
X-323850Y614550
X-552450Y1356520
X-81270Y1121570
X-552450Y1089820
X-514350
X-533400Y1105090
X-660400Y1087570
X-81270Y307180
X-63500Y797220
X-308580Y544950
X-279400Y678050
X-264130Y608450
X-306080Y599280
X-63500Y1276350
X-261630Y535780
X-266700Y86420
X-219980Y76200
Y-76200
X-497870Y62350
X-412750Y107950
X-292100Y88900
X-406400Y304800
X-412750Y-44450
X-406400Y228600
X-292100Y-63500
X-590550Y374650
X-431800
T02
X-146050Y229800
Y379800
X-239900Y558800
X-64900
X-239900Y495300
X-64900
X-239900Y685800
X-64900
X-239900Y622300
X-64900
X-806450Y645160
R31Y-25400
X-831850Y645160
R31Y-25400
X-857250Y645160
R31Y-25400
X-146050Y883850
Y1033850
Y1080700
Y1230700
Y1427550
Y1277550
X-260350Y1816100
X-209550
X-184150
X-158750
Y1866900
R02X-25400
X-260350
X-239900Y1504950
X-64900
X-419100Y1047350
Y997350
X-239900Y1568450
X-64900
X-468500Y1174750
X-293500
X-622300Y1138050
Y1313050
Y871350
Y1046350
X-468500Y908050
X-293500
X-239900Y1695450
X-64900
X-239900Y1631950
X-64900
X-292100Y1264050
Y1314050
X-419100
Y1264050
X-292100Y997350
Y1047350
T03
X0Y0
R15Y50800
X0Y1073150
R15Y50800
T04
X-882650Y695960
Y-193040
T05
X82750Y2029460
Y-193040
M30
