M48
METRIC,TZ
T01C.5
T02C1.
T03C1.3
T04C2.
T05C2.7
T06C2.7
;LEADER: 12 
;HEADER: 
;CODE  : ASCII 
;FILE  : KSZ_02v3-1-2.drl for  ... layers TOP and BOTTOM
;T01 Holesize 1. = 0.500000 Tolerance = +0.000000/-0.000000 PLATED MM Quantity = 53
;T02 Holesize 2. = 1.000000 Tolerance = +0.000000/-0.000000 PLATED MM Quantity = 96
;T03 Holesize 3. = 1.300000 Tolerance = +0.000000/-0.000000 PLATED MM Quantity = 16
;T04 Holesize 4. = 2.000000 Tolerance = +0.000000/-0.000000 PLATED MM Quantity = 32
;T05 Holesize 5. = 2.700000 Tolerance = +0.000000/-0.000000 PLATED MM Quantity = 2
;T06 Holesize 6. = 2.700000 Tolerance = +0.000000/-0.000000 NON_PLATED MM Quantity = 2
%
G90
T01
X-654050Y1354670
Y1087970
X-80100Y434250
X-63500Y793750
Y1136650
X-46900Y1221650
X-266700Y85170
X-499350Y61200
X-46900Y308700
Y1261200
X-533400Y1371600
Y1104900
X-368300Y537020
X-307250Y473800
X-262650Y480300
X-307100Y670800
X-307250Y600800
X-262650Y607300
X-307100Y543800
X-262800Y537300
Y664300
X-762000Y221830
X-266700Y-67230
X-80100Y777150
X-46900
X-80100Y308700
X-63500Y292100
Y190500
X-46900Y207100
X-80100
X-279400Y680820
Y553820
X-323850Y490320
Y617320
X-516800Y1088300
X-549920
X-63500Y1205130
X-80100Y1120050
X-63500Y1277720
X-516800Y1355000
X-550000
X-46900Y434250
X-63500Y450850
X-46900Y1350100
X-63500Y1366620
X-406400Y304800
Y228600
X-292100Y88900
X-412750Y107950
X-292100Y-63500
X-412750Y-44450
X-577850Y374650
X-431800
T02
X-260050Y1816100
X-209250
X-183850
X-158450
Y1866900
R02X-25400
X-260050
X-239900Y1504950
X-64900
X-239900Y1568450
X-64900
X-239900Y558800
X-64900
X-239900Y495300
X-64900
X-468500Y1174750
X-293500
X-622300Y1138050
Y1313050
Y871350
Y1046350
X-468500Y908050
X-293500
X-239900Y1695450
X-64900
X-239900Y685800
X-64900
X-239900Y1631950
X-64900
X-239900Y622300
X-64900
X-857250Y-142240
Y86360
Y111760
R08Y25400
Y-116840
Y340360
Y365760
R08Y25400
Y-91440
Y594360
Y619760
Y645160
Y-66040
R05Y25400
X-806450Y-142240
Y86360
Y111760
R08Y25400
Y-116840
Y340360
Y365760
R08Y25400
Y-91440
Y594360
Y619760
Y645160
Y-66040
R05Y25400
T03
X-146050Y883850
Y1033850
Y1080700
Y1230700
Y1427550
Y1277550
Y229800
Y379800
X-419100Y1047350
Y997350
X-292100Y1264050
Y1314050
X-419100
Y1264050
X-292100Y997350
Y1047350
T04
X0Y1835150
R15Y-50800
X0Y762000
R15Y-50800
T05
X-882650Y-193040
Y695960
T06
X82750Y2029460
Y-193040
M30
