G04 ================== begin FILE IDENTIFICATION RECORD ==================*
G04 Layout Name:  D:/Project/Circuit/ORCAD/KSZ/02v3/pcb/KSZ_02v3.brd*
G04 Film Name:    MASK_TOP*
G04 File Format:  Gerber RS274X*
G04 File Origin:  Cadence Allegro 16.6-S018*
G04 Origin Date:  Wed Nov 27 09:27:39 2013*
G04 *
G04 Layer:  VIA CLASS/SOLDERMASK_TOP*
G04 Layer:  PIN/SOLDERMASK_TOP*
G04 Layer:  PACKAGE GEOMETRY/SOLDERMASK_TOP*
G04 *
G04 Offset:    (0.000 0.000)*
G04 Mirror:    No*
G04 Mode:      Positive*
G04 Rotation:  0*
G04 FullContactRelief:  No*
G04 UndefLineWidth:     0.000*
G04 ================== end FILE IDENTIFICATION RECORD ====================*
%FSLAX34Y34*MOMM*%
%IR0*IPPOS*OFA0.00000B0.00000*MIA0B0*SFA1.00000B1.00000*%
%ADD23C,2.*%
%ADD13C,3.*%
%ADD10C,4.2*%
%ADD20C,2.15*%
%ADD24C,2.7*%
%ADD15C,1.8*%
%ADD26C,2.8*%
%ADD11C,1.75*%
%ADD21R,2.15X2.15*%
%ADD18R,2.25X2.25*%
%ADD12R,1.75X1.75*%
%ADD16O,2.15X1.2*%
%ADD14R,2.X1.45*%
%ADD19O,2.2X1.95*%
%ADD25R,2.7X2.7*%
%ADD17R,1.95X1.2*%
%ADD22R,1.95X1.35*%
%LPD*%
G75*
G54D10*
X-882650Y-193040D03*
Y695960D03*
G54D11*
X-857250Y-91440D03*
Y-116840D03*
Y-15240D03*
Y-40640D03*
Y-66040D03*
Y60960D03*
Y35560D03*
Y10160D03*
Y137160D03*
Y111760D03*
Y213360D03*
Y187960D03*
Y162560D03*
Y289560D03*
Y264160D03*
Y238760D03*
Y365760D03*
Y314960D03*
Y441960D03*
Y416560D03*
Y391160D03*
Y518160D03*
Y492760D03*
Y467360D03*
Y568960D03*
Y543560D03*
Y645160D03*
Y619760D03*
X-806450Y-91440D03*
Y-116840D03*
Y-15240D03*
Y-40640D03*
Y-66040D03*
Y60960D03*
Y35560D03*
Y10160D03*
Y137160D03*
Y111760D03*
Y213360D03*
Y187960D03*
Y162560D03*
Y289560D03*
Y264160D03*
Y238760D03*
Y365760D03*
Y314960D03*
Y441960D03*
Y416560D03*
Y391160D03*
Y518160D03*
Y492760D03*
Y467360D03*
Y568960D03*
Y543560D03*
Y645160D03*
Y619760D03*
X-260050Y1866900D03*
X-158450Y1816100D03*
X-183850D03*
X-209250D03*
Y1866900D03*
X-183850D03*
X-158450D03*
G54D20*
X-419100Y997350D03*
Y1264050D03*
X-292100Y1047350D03*
Y1314050D03*
G54D12*
X-857250Y-142240D03*
Y86360D03*
Y340360D03*
Y594360D03*
X-806450Y-142240D03*
Y86360D03*
Y340360D03*
Y594360D03*
X-260050Y1816100D03*
G54D21*
X-419100Y1047350D03*
Y1314050D03*
X-292100Y997350D03*
Y1264050D03*
G54D22*
X-368300Y353550D03*
Y319550D03*
Y417050D03*
Y383050D03*
Y491000D03*
Y525000D03*
X-298450Y1858500D03*
Y1824500D03*
G54D13*
X-806450Y-193040D03*
Y2029460D03*
X-6150Y-193040D03*
Y2029460D03*
G54D14*
X-762000Y209310D03*
Y179310D03*
X-654050Y1045450D03*
Y1075450D03*
Y1342150D03*
Y1312150D03*
X-482600Y61200D03*
Y91200D03*
X-323850Y543800D03*
Y573800D03*
Y670800D03*
Y700800D03*
X-317500Y1528050D03*
Y1558050D03*
Y1655050D03*
Y1685050D03*
X-279400Y480300D03*
Y510300D03*
Y607300D03*
Y637300D03*
G54D23*
X-146050Y229800D03*
Y379800D03*
Y883850D03*
Y1033850D03*
Y1080700D03*
Y1277550D03*
Y1230700D03*
Y1427550D03*
G54D15*
X-622300Y871350D03*
Y1046350D03*
Y1138050D03*
Y1313050D03*
X-468500Y908050D03*
Y1174750D03*
X-239900Y495300D03*
Y558800D03*
Y622300D03*
Y685800D03*
X-293500Y908050D03*
Y1174750D03*
X-239900Y1504950D03*
Y1568450D03*
Y1631950D03*
Y1695450D03*
X-64900Y495300D03*
Y558800D03*
Y622300D03*
Y685800D03*
Y1504950D03*
Y1568450D03*
Y1631950D03*
Y1695450D03*
G54D24*
X0Y0D03*
Y50800D03*
Y101600D03*
Y152400D03*
Y203200D03*
Y254000D03*
Y355600D03*
Y304800D03*
Y406400D03*
Y457200D03*
Y508000D03*
Y558800D03*
Y609600D03*
Y660400D03*
Y711200D03*
Y1073150D03*
Y1123950D03*
Y1174750D03*
Y1225550D03*
Y1276350D03*
Y1327150D03*
Y1428750D03*
Y1377950D03*
Y1479550D03*
Y1530350D03*
Y1581150D03*
Y1631950D03*
Y1682750D03*
Y1733550D03*
Y1784350D03*
G54D25*
Y762000D03*
Y1835150D03*
G54D16*
X-578900Y971550D03*
Y996950D03*
Y1238250D03*
Y1263650D03*
X-487900Y971550D03*
Y996950D03*
Y1263650D03*
Y1238250D03*
X-337600Y406400D03*
Y431800D03*
X-236000Y-76200D03*
Y-50800D03*
Y76200D03*
Y101600D03*
X-246600Y431800D03*
Y406400D03*
X-145000Y-50800D03*
Y-76200D03*
Y101600D03*
Y76200D03*
G54D17*
X-482600Y-97550D03*
Y-67550D03*
Y40400D03*
Y10400D03*
X-393700Y351550D03*
Y321550D03*
Y415050D03*
Y385050D03*
X-266700Y-48500D03*
Y-78500D03*
X-292100Y-48500D03*
Y-78500D03*
X-266700Y103900D03*
Y73900D03*
X-292100Y103900D03*
Y73900D03*
G54D26*
X82750Y-193040D03*
Y2029460D03*
G54D18*
X-533400Y1045300D03*
Y1088300D03*
Y1355000D03*
Y1312000D03*
X-323850Y473800D03*
Y516800D03*
Y600800D03*
Y643800D03*
X-279400Y537300D03*
Y580300D03*
Y664300D03*
Y707300D03*
Y1521550D03*
Y1564550D03*
Y1648550D03*
Y1691550D03*
X-63500Y3900D03*
Y46900D03*
Y105500D03*
Y148500D03*
Y207100D03*
Y250100D03*
Y308700D03*
Y351700D03*
Y434250D03*
Y391250D03*
Y734150D03*
Y777150D03*
Y1120050D03*
Y1077050D03*
Y1178650D03*
Y1261200D03*
Y1221650D03*
Y1350100D03*
Y1304200D03*
Y1393100D03*
Y1756500D03*
Y1799500D03*
Y1826350D03*
Y1869350D03*
G54D19*
X-437200Y-88900D03*
Y-63500D03*
Y-38100D03*
Y63500D03*
Y88900D03*
Y114300D03*
X-350200Y-88900D03*
Y-38100D03*
Y-63500D03*
Y63500D03*
Y114300D03*
Y88900D03*
M02*
