G04 ================== begin FILE IDENTIFICATION RECORD ==================*
G04 Layout Name:  D:/Project/Circuit/AVANT/KSZ/02v4/pcb/KSZ_02v4.brd*
G04 Film Name:    SILK_TOP*
G04 File Format:  Gerber RS274X*
G04 File Origin:  Cadence Allegro 16.6-2015-S073*
G04 Origin Date:  Tue Dec 26 10:31:59 2017*
G04 *
G04 Layer:  MANUFACTURING/AUTOSILK_TOP*
G04 *
G04 Offset:    (0.000 0.000)*
G04 Mirror:    No*
G04 Mode:      Positive*
G04 Rotation:  0*
G04 FullContactRelief:  No*
G04 UndefLineWidth:     0.200*
G04 ================== end FILE IDENTIFICATION RECORD ====================*
%FSLAX34Y34*MOMM*%
%IR0*IPPOS*OFA0.00000B0.00000*MIA0B0*SFA1.00000B1.00000*%
%ADD10C,.05*%
%ADD11C,.2*%
%ADD12C,.4*%
%ADD13C,.5*%
%ADD14C,.203*%
%ADD15C,.15*%
%ADD16C,.25*%
G75*
%LPD*%
G75*
G54D10*
G01X-604070Y1994990D02*
X-605920Y1994880D01*
X-604140Y1991150D01*
X-602080Y1986820D01*
X-600480Y1983700D01*
X-599750Y1982490D01*
X-599040Y1981470D01*
X-598300Y1980600D01*
X-598270Y1980580D01*
G02X-598410Y1980150I-173J-182D01*
G01X-602310Y1979680D01*
X-604420Y1979830D01*
X-605820Y1980230D01*
X-606740Y1980800D01*
X-607430Y1981470D01*
X-608440Y1982720D01*
X-609270Y1984110D01*
X-610070Y1985870D01*
X-611000Y1988240D01*
X-613230Y1994110D01*
X-613600Y1994080D01*
X-615310Y1986620D01*
X-615860Y1982970D01*
X-615790Y1982130D01*
X-615550Y1981330D01*
X-615140Y1980580D01*
X-615130Y1980560D01*
X-615270Y1980280D01*
X-625460D01*
X-625540Y1980510D01*
X-624830Y1981260D01*
X-624270Y1982070D01*
X-623830Y1982910D01*
X-623210Y1984680D01*
X-622770Y1986520D01*
X-619600Y2000220D01*
X-618600Y2001140D01*
X-617690Y2002280D01*
X-616930Y2003530D01*
X-616320Y2004840D01*
X-615510Y2007450D01*
X-615200Y2009540D01*
X-608300D01*
X-605380Y2009470D01*
X-603300Y2009250D01*
X-601870Y2008910D01*
X-600900Y2008470D01*
X-600330Y2008090D01*
X-599800Y2007610D01*
X-599310Y2007030D01*
X-598870Y2006360D01*
X-598510Y2005610D01*
X-598240Y2004780D01*
X-598060Y2003880D01*
X-598000Y2002910D01*
X-598170Y2001160D01*
X-598650Y1999430D01*
X-599420Y1997870D01*
X-600440Y1996630D01*
X-601460Y1995880D01*
X-602690Y1995320D01*
X-604070Y1994990D01*
G01X-622900Y1985950D02*
X-615410D01*
G01X-623020Y1985450D02*
X-615490D01*
G01X-623140Y1984950D02*
X-615560D01*
G01X-623290Y1984450D02*
X-615640D01*
G01X-623460Y1983950D02*
X-615720D01*
G01X-623640Y1983450D02*
X-615790D01*
G01X-623820Y1982950D02*
X-615860D01*
G01X-624070Y1982450D02*
X-615820D01*
G01X-624360Y1981950D02*
X-615730D01*
G01X-624700Y1981450D02*
X-615580D01*
G01X-625130Y1980950D02*
X-615340D01*
G01X-625520Y1980450D02*
X-615180D01*
G01X-632080Y2015160D02*
X-633260Y2015270D01*
X-634430D01*
X-640200Y1988870D01*
X-641000Y1983840D01*
X-640950Y1983130D01*
X-640720Y1982250D01*
X-640200Y1981200D01*
X-639870Y1980730D01*
G02X-640070Y1980340I-205J-141D01*
G01X-654130D01*
G02X-654280Y1980790I1J250D01*
G01X-654270Y1980800D01*
X-653340Y1981790D01*
X-652600Y1982850D01*
X-652010Y1983970D01*
X-651190Y1986320D01*
X-650600Y1988770D01*
X-645660Y2011000D01*
X-644920Y2016030D01*
X-645040Y2017170D01*
X-645370Y2018200D01*
X-645900Y2019120D01*
X-646000Y2019240D01*
X-645860Y2019530D01*
X-629980D01*
X-627690Y2019480D01*
X-625330Y2019240D01*
X-624180Y2019020D01*
X-623060Y2018700D01*
X-622020Y2018290D01*
X-621040Y2017750D01*
X-619910Y2016850D01*
X-618810Y2015470D01*
X-618340Y2014570D01*
X-617970Y2013510D01*
X-617730Y2012260D01*
X-617640Y2010820D01*
X-617830Y2008500D01*
X-618400Y2006210D01*
X-619390Y2004030D01*
X-620810Y2002050D01*
X-622690Y2000350D01*
X-625050Y1999030D01*
X-627920Y1998170D01*
X-631340Y1997860D01*
X-632580Y1997900D01*
X-633970Y1998070D01*
X-635230Y1998360D01*
G02X-635410Y1998690I55J244D01*
G01X-635390Y1998740D01*
X-633930Y1999200D01*
X-632860Y1999810D01*
X-632120Y2000440D01*
X-631310Y2001360D01*
X-630610Y2002410D01*
X-630020Y2003570D01*
X-629540Y2004790D01*
X-629170Y2006080D01*
X-628910Y2007390D01*
X-628760Y2008720D01*
X-628710Y2010030D01*
X-628850Y2011670D01*
X-629250Y2012950D01*
X-629840Y2013890D01*
X-630570Y2014540D01*
X-632080Y2015160D01*
G01X-645900Y2019450D02*
X-627430D01*
G01X-645800Y2018950D02*
X-623940D01*
G01X-645520Y2018450D02*
X-622430D01*
G01X-645290Y2017950D02*
X-621400D01*
G01X-645130Y2017450D02*
X-620660D01*
G01X-645010Y2016950D02*
X-620030D01*
G01X-644960Y2016450D02*
X-619590D01*
G01X-644930Y2015950D02*
X-619190D01*
G01X-645000Y2015450D02*
X-618800D01*
G01X-631560Y2014950D02*
X-618540D01*
G01X-645080D02*
X-634500D01*
G01X-630470Y2014450D02*
X-618300D01*
G01X-645150D02*
X-634610D01*
G01X-629910Y2013950D02*
X-618130D01*
G01X-645230D02*
X-634720D01*
G01X-629570Y2013450D02*
X-617960D01*
G01X-645300D02*
X-634830D01*
G01X-629250Y2012950D02*
X-617860D01*
G01X-645380D02*
X-634940D01*
G01X-629090Y2012450D02*
X-617770D01*
G01X-645450D02*
X-635050D01*
G01X-628940Y2011950D02*
X-617710D01*
G01X-645520D02*
X-635160D01*
G01X-628830Y2011450D02*
X-617680D01*
G01X-645600D02*
X-635270D01*
G01X-628790Y2010950D02*
X-617650D01*
G01X-645680D02*
X-635380D01*
G01X-628740Y2010450D02*
X-617670D01*
G01X-645790D02*
X-635490D01*
G01X-628710Y2009950D02*
X-617710D01*
G01X-645900D02*
X-635600D01*
G01X-628730Y2009450D02*
X-617750D01*
G01X-646010D02*
X-635700D01*
G01X-628750Y2008950D02*
X-617790D01*
G01X-646120D02*
X-635810D01*
G01X-628790Y2008450D02*
X-617840D01*
G01X-646230D02*
X-635920D01*
G01X-628850Y2007950D02*
X-617970D01*
G01X-646340D02*
X-636030D01*
G01X-628910Y2007450D02*
X-618090D01*
G01X-646450D02*
X-636140D01*
G01X-629000Y2006950D02*
X-618220D01*
G01X-646560D02*
X-636250D01*
G01X-629100Y2006450D02*
X-618340D01*
G01X-646670D02*
X-636360D01*
G01X-629210Y2005950D02*
X-618520D01*
G01X-646780D02*
X-636470D01*
G01X-629350Y2005450D02*
X-618750D01*
G01X-646900D02*
X-636580D01*
G01X-629500Y2004950D02*
X-618970D01*
G01X-647010D02*
X-636690D01*
G01X-629680Y2004450D02*
X-619200D01*
G01X-647120D02*
X-636800D01*
G01X-629870Y2003950D02*
X-619440D01*
G01X-647230D02*
X-636910D01*
G01X-630080Y2003450D02*
X-619800D01*
G01X-647340D02*
X-637020D01*
G01X-630330Y2002950D02*
X-620160D01*
G01X-647450D02*
X-637120D01*
G01X-630590Y2002450D02*
X-620520D01*
G01X-647560D02*
X-637230D01*
G01X-630920Y2001950D02*
X-620920D01*
G01X-647670D02*
X-637340D01*
G01X-631250Y2001450D02*
X-621470D01*
G01X-647780D02*
X-637450D01*
G01X-631670Y2000950D02*
X-622020D01*
G01X-647890D02*
X-637560D01*
G01X-632110Y2000450D02*
X-622580D01*
G01X-648000D02*
X-637670D01*
G01X-632700Y1999950D02*
X-623400D01*
G01X-648120D02*
X-637780D01*
G01X-633500Y1999450D02*
X-624300D01*
G01X-648230D02*
X-637890D01*
G01X-634720Y1998950D02*
X-625310D01*
G01X-648340D02*
X-638000D01*
G01X-635370Y1998450D02*
X-626980D01*
G01X-648450D02*
X-638110D01*
G01X-632980Y1997950D02*
X-630350D01*
G01X-648560D02*
X-638220D01*
G01X-648670Y1997450D02*
X-638330D01*
G01X-648780Y1996950D02*
X-638440D01*
G01X-648890Y1996450D02*
X-638550D01*
G01X-649000Y1995950D02*
X-638660D01*
G01X-649110Y1995450D02*
X-638760D01*
G01X-649220Y1994950D02*
X-638870D01*
G01X-649340Y1994450D02*
X-638980D01*
G01X-649450Y1993950D02*
X-639090D01*
G01X-649560Y1993450D02*
X-639200D01*
G01X-649670Y1992950D02*
X-639310D01*
G01X-649780Y1992450D02*
X-639420D01*
G01X-649890Y1991950D02*
X-639530D01*
G01X-650000Y1991450D02*
X-639640D01*
G01X-650110Y1990950D02*
X-639750D01*
G01X-650220Y1990450D02*
X-639860D01*
G01X-650340Y1989950D02*
X-639970D01*
G01X-650450Y1989450D02*
X-640080D01*
G01X-650560Y1988950D02*
X-640190D01*
G01X-650670Y1988450D02*
X-640270D01*
G01X-650790Y1987950D02*
X-640350D01*
G01X-650910Y1987450D02*
X-640430D01*
G01X-651030Y1986950D02*
X-640510D01*
G01X-651150Y1986450D02*
X-640590D01*
G01X-651320Y1985950D02*
X-640670D01*
G01X-651490Y1985450D02*
X-640750D01*
G01X-651660Y1984950D02*
X-640820D01*
G01X-651840Y1984450D02*
X-640900D01*
G01X-652020Y1983950D02*
X-640980D01*
G01X-652280Y1983450D02*
X-640970D01*
G01X-652540Y1982950D02*
X-640900D01*
G01X-652880Y1982450D02*
X-640770D01*
G01X-653220Y1981950D02*
X-640570D01*
G01X-653660Y1981450D02*
X-640320D01*
G01X-654120Y1980950D02*
X-640020D01*
G01X-654340Y1980450D02*
X-639870D01*
G01X-555300Y1958990D02*
X-553970Y1958090D01*
X-551750Y1957630D01*
X-549070Y1958520D01*
X-547960Y1960980D01*
X-548660Y1962430D01*
X-550390Y1963150D01*
X-551400Y1963450D01*
X-553310Y1964650D01*
X-553940Y1966430D01*
X-553820Y1967480D01*
X-553470Y1968470D01*
X-552880Y1969350D01*
X-552050Y1970080D01*
X-551220Y1970530D01*
X-550380Y1970790D01*
X-549560Y1970920D01*
X-548810Y1970950D01*
X-546240Y1970340D01*
X-545410Y1969670D01*
G02X-545390Y1969290I-155J-199D01*
G01X-546090Y1968600D01*
X-547080Y1969370D01*
X-548930Y1969830D01*
X-551060Y1969180D01*
X-551720Y1968530D01*
X-552080Y1967890D01*
X-552230Y1967320D01*
X-552260Y1966880D01*
X-551740Y1965530D01*
X-550060Y1964740D01*
X-548760Y1964360D01*
X-546940Y1963330D01*
X-546220Y1961360D01*
X-546370Y1960320D01*
X-546790Y1959320D01*
X-547440Y1958430D01*
X-548280Y1957690D01*
X-549000Y1957260D01*
X-549880Y1956910D01*
X-550940Y1956680D01*
X-552170Y1956590D01*
X-555050Y1957250D01*
X-555970Y1957870D01*
G02X-556020Y1958250I135J211D01*
G01X-555300Y1958990D01*
G01X-552990Y1964450D02*
X-549070D01*
G01X-552190Y1963950D02*
X-548040D01*
G01X-551400Y1963450D02*
X-547150D01*
G01X-549910Y1962950D02*
X-546800D01*
G01X-548700Y1962450D02*
X-546620D01*
G01X-548430Y1961950D02*
X-546440D01*
G01X-548180Y1961450D02*
X-546260D01*
G01X-547970Y1960950D02*
X-546280D01*
G01X-548190Y1960450D02*
X-546350D01*
G01X-548420Y1959950D02*
X-546530D01*
G01X-548650Y1959450D02*
X-546740D01*
G01X-548870Y1958950D02*
X-547060D01*
G01X-555340D02*
X-555240D01*
G01X-549290Y1958450D02*
X-547420D01*
G01X-555820D02*
X-554500D01*
G01X-550790Y1957950D02*
X-547980D01*
G01X-556050D02*
X-553300D01*
G01X-555350Y1957450D02*
X-548680D01*
G01X-553750Y1956950D02*
X-549790D01*
G01X-609570Y1996110D02*
X-610750Y1995630D01*
X-612090Y1995470D01*
X-613280Y1995690D01*
X-610920Y2006220D01*
X-610330D01*
X-609140Y2006140D01*
X-608190Y2005910D01*
X-607450Y2005550D01*
X-606900Y2005090D01*
X-606540Y2004550D01*
X-606310Y2003970D01*
X-606210Y2003390D01*
X-606180Y2002820D01*
X-606280Y2001450D01*
X-606570Y2000130D01*
X-607050Y1998890D01*
X-607710Y1997780D01*
X-608560Y1996840D01*
X-609570Y1996110D01*
G01X-615210Y2009450D02*
X-605220D01*
G01X-615290Y2008950D02*
X-602040D01*
G01X-615360Y2008450D02*
X-600870D01*
G01X-615430Y2007950D02*
X-600180D01*
G01X-615510Y2007450D02*
X-599670D01*
G01X-615660Y2006950D02*
X-599260D01*
G01X-615820Y2006450D02*
X-598930D01*
G01X-608360Y2005950D02*
X-598680D01*
G01X-615980D02*
X-610980D01*
G01X-607330Y2005450D02*
X-598460D01*
G01X-616130D02*
X-611090D01*
G01X-606810Y2004950D02*
X-598300D01*
G01X-616290D02*
X-611210D01*
G01X-606500Y2004450D02*
X-598170D01*
G01X-616500D02*
X-611320D01*
G01X-606310Y2003950D02*
X-598080D01*
G01X-616740D02*
X-611430D01*
G01X-606220Y2003450D02*
X-598040D01*
G01X-616980D02*
X-611540D01*
G01X-606180Y2002950D02*
X-598010D01*
G01X-617280D02*
X-611650D01*
G01X-606200Y2002450D02*
X-598050D01*
G01X-617580D02*
X-611760D01*
G01X-606240Y2001950D02*
X-598100D01*
G01X-617950D02*
X-611880D01*
G01X-606280Y2001450D02*
X-598140D01*
G01X-618350D02*
X-611990D01*
G01X-606390Y2000950D02*
X-598230D01*
G01X-618800D02*
X-612100D01*
G01X-606500Y2000450D02*
X-598370D01*
G01X-619340D02*
X-612210D01*
G01X-606640Y1999950D02*
X-598510D01*
G01X-619660D02*
X-612320D01*
G01X-606830Y1999450D02*
X-598650D01*
G01X-619770D02*
X-612440D01*
G01X-607030Y1998950D02*
X-598890D01*
G01X-619890D02*
X-612550D01*
G01X-607310Y1998450D02*
X-599130D01*
G01X-620000D02*
X-612660D01*
G01X-607610Y1997950D02*
X-599380D01*
G01X-620120D02*
X-612770D01*
G01X-608010Y1997450D02*
X-599760D01*
G01X-620240D02*
X-612880D01*
G01X-608460Y1996950D02*
X-600170D01*
G01X-620350D02*
X-613000D01*
G01X-609090Y1996450D02*
X-600680D01*
G01X-620470D02*
X-613110D01*
G01X-609960Y1995950D02*
X-601370D01*
G01X-620580D02*
X-613220D01*
G01X-620700Y1995450D02*
X-602420D01*
G01X-620820Y1994950D02*
X-604710D01*
G01X-620930Y1994450D02*
X-605720D01*
G01X-613170Y1993950D02*
X-605480D01*
G01X-621050D02*
X-613630D01*
G01X-612980Y1993450D02*
X-605240D01*
G01X-621160D02*
X-613750D01*
G01X-612790Y1992950D02*
X-605000D01*
G01X-621280D02*
X-613860D01*
G01X-612600Y1992450D02*
X-604760D01*
G01X-621400D02*
X-613980D01*
G01X-612410Y1991950D02*
X-604530D01*
G01X-621510D02*
X-614090D01*
G01X-612220Y1991450D02*
X-604290D01*
G01X-621630D02*
X-614200D01*
G01X-612030Y1990950D02*
X-604050D01*
G01X-621740D02*
X-614320D01*
G01X-611840Y1990450D02*
X-603810D01*
G01X-621860D02*
X-614430D01*
G01X-611650Y1989950D02*
X-603570D01*
G01X-621970D02*
X-614550D01*
G01X-611460Y1989450D02*
X-603340D01*
G01X-622090D02*
X-614660D01*
G01X-611270Y1988950D02*
X-603100D01*
G01X-622200D02*
X-614780D01*
G01X-611080Y1988450D02*
X-602860D01*
G01X-622320D02*
X-614890D01*
G01X-610880Y1987950D02*
X-602620D01*
G01X-622440D02*
X-615000D01*
G01X-610690Y1987450D02*
X-602380D01*
G01X-622550D02*
X-615120D01*
G01X-610490Y1986950D02*
X-602140D01*
G01X-622670D02*
X-615230D01*
G01X-610290Y1986450D02*
X-601890D01*
G01X-622780D02*
X-615330D01*
G01X-610100Y1985950D02*
X-601630D01*
G01X-609880Y1985450D02*
X-601380D01*
G01X-609650Y1984950D02*
X-601120D01*
G01X-609420Y1984450D02*
X-600860D01*
G01X-609170Y1983950D02*
X-600600D01*
G01X-608880Y1983450D02*
X-600330D01*
G01X-608580Y1982950D02*
X-600030D01*
G01X-608230Y1982450D02*
X-599720D01*
G01X-607820Y1981950D02*
X-599370D01*
G01X-607410Y1981450D02*
X-599020D01*
G01X-606900Y1980950D02*
X-598590D01*
G01X-606180Y1980450D02*
X-598200D01*
G01X-604840Y1979950D02*
X-600050D01*
G01X-570460Y1991650D02*
X-570950Y1990270D01*
G02X-571320Y1990140I-236J79D01*
G01X-575840Y1993110D01*
X-574880Y1984110D01*
X-575930Y1983170D01*
X-577170Y1982270D01*
X-578490Y1981500D01*
X-579910Y1980850D01*
X-581410Y1980350D01*
X-582990Y1979980D01*
X-584650Y1979750D01*
X-586370Y1979680D01*
X-590160Y1980090D01*
X-593010Y1981200D01*
X-595070Y1982790D01*
X-596480Y1984690D01*
X-597370Y1986710D01*
X-597850Y1988640D01*
X-598050Y1990300D01*
X-598080Y1991470D01*
X-598010Y1993380D01*
X-597770Y1995270D01*
X-597380Y1997140D01*
X-596850Y1998950D01*
X-596160Y2000690D01*
X-595330Y2002330D01*
X-594360Y2003850D01*
X-593260Y2005250D01*
X-592080Y2006420D01*
X-590820Y2007420D01*
X-589460Y2008260D01*
X-588000Y2008950D01*
X-586440Y2009470D01*
X-584770Y2009840D01*
X-583000Y2010070D01*
X-581110Y2010140D01*
X-579250Y2010050D01*
X-576950Y2009630D01*
X-575740Y2009240D01*
X-574530Y2008680D01*
X-573360Y2007940D01*
X-572280Y2006980D01*
X-571520Y2006070D01*
X-570910Y2005090D01*
X-570430Y2004040D01*
X-570080Y2002950D01*
X-569660Y2000680D01*
X-569540Y1998400D01*
X-569650Y1996020D01*
X-569960Y1993770D01*
X-570460Y1991650D01*
G01X-578140Y1994620D02*
X-578730Y1991740D01*
X-579600Y1988960D01*
X-580230Y1987530D01*
X-580910Y1986330D01*
X-581640Y1985330D01*
X-582390Y1984530D01*
X-583180Y1983930D01*
X-583980Y1983510D01*
X-584780Y1983260D01*
X-585570Y1983180D01*
X-586160Y1983230D01*
X-586840Y1983420D01*
X-587570Y1983800D01*
X-588280Y1984420D01*
X-588920Y1985320D01*
X-589440Y1986550D01*
X-589780Y1988140D01*
X-589910Y1990150D01*
X-589750Y1992980D01*
X-589310Y1995940D01*
X-588640Y1998790D01*
X-587810Y2001250D01*
X-587070Y2002800D01*
X-585900Y2004560D01*
X-585140Y2005360D01*
X-584250Y2006030D01*
X-583230Y2006480D01*
X-582100Y2006640D01*
X-581480Y2006600D01*
X-580790Y2006430D01*
X-580050Y2006080D01*
X-579330Y2005490D01*
X-578690Y2004590D01*
X-578180Y2003360D01*
X-577840Y2001740D01*
X-577710Y1999680D01*
X-577820Y1997350D01*
X-578140Y1994620D01*
G01X-583920Y2009950D02*
X-578710D01*
G01X-586500Y2009450D02*
X-576400D01*
G01X-587990Y2008950D02*
X-575120D01*
G01X-589060Y2008450D02*
X-574170D01*
G01X-589960Y2007950D02*
X-573380D01*
G01X-590770Y2007450D02*
X-572810D01*
G01X-591410Y2006950D02*
X-572250D01*
G01X-580850Y2006450D02*
X-571830D01*
G01X-592040D02*
X-583300D01*
G01X-579890Y2005950D02*
X-571440D01*
G01X-592550D02*
X-584350D01*
G01X-579310Y2005450D02*
X-571130D01*
G01X-593050D02*
X-585020D01*
G01X-578950Y2004950D02*
X-570850D01*
G01X-593490D02*
X-585530D01*
G01X-578630Y2004450D02*
X-570620D01*
G01X-593890D02*
X-585980D01*
G01X-578420Y2003950D02*
X-570400D01*
G01X-594290D02*
X-586310D01*
G01X-578210Y2003450D02*
X-570240D01*
G01X-594620D02*
X-586640D01*
G01X-578090Y2002950D02*
X-570080D01*
G01X-594940D02*
X-586980D01*
G01X-577980Y2002450D02*
X-569980D01*
G01X-595260D02*
X-587240D01*
G01X-577880Y2001950D02*
X-569890D01*
G01X-595520D02*
X-587480D01*
G01X-577820Y2001450D02*
X-569800D01*
G01X-595780D02*
X-587720D01*
G01X-577790Y2000950D02*
X-569710D01*
G01X-596030D02*
X-587910D01*
G01X-577760Y2000450D02*
X-569640D01*
G01X-596260D02*
X-588080D01*
G01X-577730Y1999950D02*
X-569620D01*
G01X-596450D02*
X-588250D01*
G01X-577720Y1999450D02*
X-569600D01*
G01X-596650D02*
X-588420D01*
G01X-577740Y1998950D02*
X-569570D01*
G01X-596850D02*
X-588590D01*
G01X-577770Y1998450D02*
X-569540D01*
G01X-597000D02*
X-588720D01*
G01X-577790Y1997950D02*
X-569560D01*
G01X-597140D02*
X-588840D01*
G01X-577810Y1997450D02*
X-569580D01*
G01X-597290D02*
X-588960D01*
G01X-577860Y1996950D02*
X-569610D01*
G01X-597420D02*
X-589080D01*
G01X-577920Y1996450D02*
X-569630D01*
G01X-597530D02*
X-589190D01*
G01X-577980Y1995950D02*
X-569660D01*
G01X-597630D02*
X-589310D01*
G01X-578040Y1995450D02*
X-569730D01*
G01X-597740D02*
X-589380D01*
G01X-578100Y1994950D02*
X-569800D01*
G01X-597810D02*
X-589460D01*
G01X-578180Y1994450D02*
X-569860D01*
G01X-597870D02*
X-589530D01*
G01X-578280Y1993950D02*
X-569930D01*
G01X-597940D02*
X-589610D01*
G01X-578380Y1993450D02*
X-570030D01*
G01X-598000D02*
X-589680D01*
G01X-575600Y1992950D02*
X-570150D01*
G01X-578480D02*
X-575820D01*
G01X-598020D02*
X-589750D01*
G01X-574840Y1992450D02*
X-570270D01*
G01X-578580D02*
X-575770D01*
G01X-598040D02*
X-589780D01*
G01X-574080Y1991950D02*
X-570390D01*
G01X-578680D02*
X-575710D01*
G01X-598060D02*
X-589810D01*
G01X-573320Y1991450D02*
X-570530D01*
G01X-578820D02*
X-575660D01*
G01X-598080D02*
X-589840D01*
G01X-572560Y1990950D02*
X-570710D01*
G01X-578970D02*
X-575610D01*
G01X-598070D02*
X-589860D01*
G01X-571800Y1990450D02*
X-570880D01*
G01X-579130D02*
X-575550D01*
G01X-598050D02*
X-589890D01*
G01X-579290Y1989950D02*
X-575500D01*
G01X-598000D02*
X-589900D01*
G01X-579440Y1989450D02*
X-575450D01*
G01X-597940D02*
X-589870D01*
G01X-579600Y1988950D02*
X-575400D01*
G01X-597880D02*
X-589840D01*
G01X-579820Y1988450D02*
X-575340D01*
G01X-597800D02*
X-589800D01*
G01X-580040Y1987950D02*
X-575290D01*
G01X-597680D02*
X-589740D01*
G01X-580270Y1987450D02*
X-575240D01*
G01X-597550D02*
X-589640D01*
G01X-580560Y1986950D02*
X-575180D01*
G01X-597420D02*
X-589530D01*
G01X-580840Y1986450D02*
X-575130D01*
G01X-597250D02*
X-589400D01*
G01X-581180Y1985950D02*
X-575080D01*
G01X-597030D02*
X-589190D01*
G01X-581550Y1985450D02*
X-575020D01*
G01X-596810D02*
X-588980D01*
G01X-582000Y1984950D02*
X-574970D01*
G01X-596590D02*
X-588660D01*
G01X-582500Y1984450D02*
X-574920D01*
G01X-596300D02*
X-588300D01*
G01X-583150Y1983950D02*
X-575060D01*
G01X-595920D02*
X-587740D01*
G01X-584160Y1983450D02*
X-575620D01*
G01X-595550D02*
X-586900D01*
G01X-595180Y1982950D02*
X-576230D01*
G01X-594620Y1982450D02*
X-576920D01*
G01X-593980Y1981950D02*
X-577720D01*
G01X-593330Y1981450D02*
X-578600D01*
G01X-592370Y1980950D02*
X-579700D01*
G01X-591080Y1980450D02*
X-581100D01*
G01X-588870Y1979950D02*
X-583180D01*
G01X-548880Y1970950D02*
X-548800D01*
G01X-551360Y1970450D02*
X-546700D01*
G01X-552200Y1969950D02*
X-545760D01*
G01X-547400Y1969450D02*
X-545320D01*
G01X-552770D02*
X-550170D01*
G01X-553150Y1968950D02*
X-551290D01*
G01X-553480Y1968450D02*
X-551760D01*
G01X-553660Y1967950D02*
X-552040D01*
G01X-553830Y1967450D02*
X-552190D01*
G01X-553880Y1966950D02*
X-552260D01*
G01X-553940Y1966450D02*
X-552100D01*
G01X-553770Y1965950D02*
X-551900D01*
G01X-553590Y1965450D02*
X-551570D01*
G01X-553420Y1964950D02*
X-550500D01*
G01X-547460Y2019690D02*
X-545340Y2019100D01*
X-543720Y2018470D01*
X-544100Y2011750D01*
G02X-544510Y2011580I-249J21D01*
G01X-545370Y2012270D01*
X-546820Y2013310D01*
X-548140Y2014100D01*
X-549340Y2014670D01*
X-550450Y2015060D01*
X-551490Y2015290D01*
X-552480Y2015400D01*
X-553440Y2015430D01*
X-554910Y2015310D01*
X-556510Y2014810D01*
X-557250Y2014330D01*
X-557850Y2013670D01*
X-558250Y2012810D01*
X-558390Y2011730D01*
X-558280Y2010720D01*
X-557960Y2009800D01*
X-557420Y2008910D01*
X-556670Y2008040D01*
X-554550Y2006110D01*
X-551560Y2003650D01*
X-550290Y2002590D01*
X-549120Y2001530D01*
X-548050Y2000450D01*
X-547130Y1999310D01*
X-546370Y1998050D01*
X-545790Y1996640D01*
X-545420Y1995030D01*
X-545300Y1993190D01*
X-545540Y1990600D01*
X-546280Y1988110D01*
X-547510Y1985790D01*
X-549240Y1983730D01*
X-551470Y1981990D01*
X-554200Y1980640D01*
X-557440Y1979780D01*
X-561210Y1979470D01*
X-563450Y1979550D01*
X-566190Y1979860D01*
X-567700Y1980150D01*
X-569280Y1980550D01*
X-570900Y1981070D01*
X-572430Y1981680D01*
X-573320Y1988470D01*
G02X-572920Y1988690I246J26D01*
G01X-572760Y1988570D01*
X-571480Y1987660D01*
X-570070Y1986790D01*
X-568570Y1986000D01*
X-566980Y1985320D01*
X-565350Y1984790D01*
X-563680Y1984440D01*
X-562000Y1984310D01*
X-560680Y1984400D01*
X-559470Y1984650D01*
X-558400Y1985060D01*
X-557470Y1985630D01*
X-556720Y1986360D01*
X-556150Y1987230D01*
X-555800Y1988250D01*
X-555680Y1989380D01*
X-555760Y1990430D01*
X-556020Y1991370D01*
X-556460Y1992260D01*
X-557110Y1993150D01*
X-559040Y1995060D01*
X-561950Y1997570D01*
X-563300Y1998740D01*
X-564550Y1999900D01*
X-565660Y2001070D01*
X-566620Y2002280D01*
X-567410Y2003570D01*
X-568000Y2004960D01*
X-568360Y2006500D01*
X-568490Y2008210D01*
X-568190Y2010940D01*
X-567320Y2013340D01*
X-565920Y2015400D01*
X-564060Y2017110D01*
X-561780Y2018470D01*
X-559130Y2019460D01*
X-556160Y2020060D01*
X-552930Y2020260D01*
X-549970Y2020110D01*
X-547460Y2019690D01*
G01X-556700Y2019950D02*
X-549010D01*
G01X-559150Y2019450D02*
X-546580D01*
G01X-560500Y2018950D02*
X-544950D01*
G01X-561820Y2018450D02*
X-543720D01*
G01X-562660Y2017950D02*
X-543750D01*
G01X-563500Y2017450D02*
X-543780D01*
G01X-564240Y2016950D02*
X-543810D01*
G01X-564780Y2016450D02*
X-543840D01*
G01X-565330Y2015950D02*
X-543860D01*
G01X-565870Y2015450D02*
X-543890D01*
G01X-550150Y2014950D02*
X-543920D01*
G01X-566230D02*
X-556060D01*
G01X-548880Y2014450D02*
X-543950D01*
G01X-566570D02*
X-557070D01*
G01X-547890Y2013950D02*
X-543980D01*
G01X-566900D02*
X-557600D01*
G01X-547060Y2013450D02*
X-544010D01*
G01X-567240D02*
X-557950D01*
G01X-567460Y2012950D02*
X-558180D01*
G01X-567640Y2012450D02*
X-558300D01*
G01X-567820Y2011950D02*
X-558360D01*
G01X-568000Y2011450D02*
X-558360D01*
G01X-568190Y2010950D02*
X-558310D01*
G01X-568240Y2010450D02*
X-558190D01*
G01X-568300Y2009950D02*
X-558010D01*
G01X-568350Y2009450D02*
X-557750D01*
G01X-568410Y2008950D02*
X-557440D01*
G01X-568460Y2008450D02*
X-557020D01*
G01X-568470Y2007950D02*
X-556580D01*
G01X-568440Y2007450D02*
X-556020D01*
G01X-568400Y2006950D02*
X-555470D01*
G01X-568350Y2006450D02*
X-554920D01*
G01X-568230Y2005950D02*
X-554350D01*
G01X-568110Y2005450D02*
X-553740D01*
G01X-567990Y2004950D02*
X-553140D01*
G01X-567780Y2004450D02*
X-552530D01*
G01X-567570Y2003950D02*
X-551920D01*
G01X-567340Y2003450D02*
X-551320D01*
G01X-567030Y2002950D02*
X-550720D01*
G01X-566730Y2002450D02*
X-550140D01*
G01X-566360Y2001950D02*
X-549580D01*
G01X-565970Y2001450D02*
X-549040D01*
G01X-565560Y2000950D02*
X-548540D01*
G01X-565080Y2000450D02*
X-548050D01*
G01X-564600Y1999950D02*
X-547650D01*
G01X-564070Y1999450D02*
X-547240D01*
G01X-563530Y1998950D02*
X-546910D01*
G01X-562970Y1998450D02*
X-546610D01*
G01X-562390Y1997950D02*
X-546330D01*
G01X-561810Y1997450D02*
X-546120D01*
G01X-561230Y1996950D02*
X-545920D01*
G01X-560650Y1996450D02*
X-545750D01*
G01X-560070Y1995950D02*
X-545630D01*
G01X-559490Y1995450D02*
X-545520D01*
G01X-558920Y1994950D02*
X-545420D01*
G01X-558420Y1994450D02*
X-545380D01*
G01X-557920Y1993950D02*
X-545350D01*
G01X-557420Y1993450D02*
X-545310D01*
G01X-556970Y1992950D02*
X-545320D01*
G01X-556600Y1992450D02*
X-545360D01*
G01X-556300Y1991950D02*
X-545410D01*
G01X-556060Y1991450D02*
X-545460D01*
G01X-555900Y1990950D02*
X-545510D01*
G01X-555770Y1990450D02*
X-545580D01*
G01X-555720Y1989950D02*
X-545730D01*
G01X-555680Y1989450D02*
X-545880D01*
G01X-555720Y1988950D02*
X-546030D01*
G01X-555780Y1988450D02*
X-546180D01*
G01X-573320D02*
X-572600D01*
G01X-555900Y1987950D02*
X-546360D01*
G01X-573250D02*
X-571890D01*
G01X-556080Y1987450D02*
X-546630D01*
G01X-573190D02*
X-571140D01*
G01X-556330Y1986950D02*
X-546900D01*
G01X-573120D02*
X-570330D01*
G01X-556660Y1986450D02*
X-547160D01*
G01X-573060D02*
X-569430D01*
G01X-557140Y1985950D02*
X-547430D01*
G01X-572990D02*
X-568460D01*
G01X-557760Y1985450D02*
X-547800D01*
G01X-572920D02*
X-567290D01*
G01X-558680Y1984950D02*
X-548220D01*
G01X-572860D02*
X-565850D01*
G01X-560430Y1984450D02*
X-548630D01*
G01X-572790D02*
X-563730D01*
G01X-572730Y1983950D02*
X-549050D01*
G01X-572660Y1983450D02*
X-549590D01*
G01X-572590Y1982950D02*
X-550230D01*
G01X-572530Y1982450D02*
X-550870D01*
G01X-572460Y1981950D02*
X-551540D01*
G01X-571850Y1981450D02*
X-552560D01*
G01X-570530Y1980950D02*
X-553580D01*
G01X-568890Y1980450D02*
X-554930D01*
G01X-566640Y1979950D02*
X-556810D01*
G01X-498420Y1956830D02*
X-508180D01*
G02X-508420Y1957140I5J252D01*
G01X-505550Y1970660D01*
X-495930D01*
G02X-495680Y1970360I6J-249D01*
G01X-495870Y1969450D01*
X-504380D01*
X-505390Y1964740D01*
X-497860D01*
G02X-497620Y1964440I-3J-248D01*
G01X-497810Y1963530D01*
X-505640D01*
X-506810Y1958050D01*
X-498470D01*
G02X-498230Y1957750I-4J-249D01*
G01X-498420Y1956830D01*
G01X-506870Y1964450D02*
X-497620D01*
G01X-506970Y1963950D02*
X-497720D01*
G01X-507080Y1963450D02*
X-505660D01*
G01X-507190Y1962950D02*
X-505760D01*
G01X-507290Y1962450D02*
X-505870D01*
G01X-507400Y1961950D02*
X-505980D01*
G01X-507500Y1961450D02*
X-506080D01*
G01X-507610Y1960950D02*
X-506190D01*
G01X-507720Y1960450D02*
X-506300D01*
G01X-507820Y1959950D02*
X-506410D01*
G01X-507930Y1959450D02*
X-506510D01*
G01X-508040Y1958950D02*
X-506620D01*
G01X-508140Y1958450D02*
X-506730D01*
G01X-508250Y1957950D02*
X-498270D01*
G01X-508350Y1957450D02*
X-498290D01*
G01X-508380Y1956950D02*
X-498400D01*
G01X-515920Y1956830D02*
X-517040D01*
G02X-517280Y1957140I4J251D01*
G01X-514660Y1969450D01*
X-519210D01*
G02X-519460Y1969750I-5J250D01*
G01X-519270Y1970660D01*
X-508440D01*
G02X-508200Y1970360I-2J-247D01*
G01X-508380Y1969450D01*
X-513240D01*
X-515920Y1956830D01*
G01X-515730Y1964450D02*
X-514300D01*
G01X-515830Y1963950D02*
X-514410D01*
G01X-515940Y1963450D02*
X-514520D01*
G01X-516040Y1962950D02*
X-514620D01*
G01X-516150Y1962450D02*
X-514730D01*
G01X-516260Y1961950D02*
X-514840D01*
G01X-516360Y1961450D02*
X-514940D01*
G01X-516470Y1960950D02*
X-515050D01*
G01X-516580Y1960450D02*
X-515160D01*
G01X-516680Y1959950D02*
X-515260D01*
G01X-516790Y1959450D02*
X-515370D01*
G01X-516900Y1958950D02*
X-515470D01*
G01X-517000Y1958450D02*
X-515580D01*
G01X-517110Y1957950D02*
X-515690D01*
G01X-517220Y1957450D02*
X-515790D01*
G01X-517250Y1956950D02*
X-515900D01*
G01X-531430Y1958990D02*
X-530090Y1958090D01*
X-527870Y1957630D01*
X-525200Y1958520D01*
X-524080Y1960980D01*
X-524790Y1962430D01*
X-526520Y1963150D01*
X-527520Y1963450D01*
X-529440Y1964650D01*
X-530060Y1966430D01*
X-529950Y1967480D01*
X-529600Y1968470D01*
X-529010Y1969350D01*
X-528180Y1970080D01*
X-527350Y1970530D01*
X-526510Y1970790D01*
X-525690Y1970920D01*
X-524930Y1970950D01*
X-522370Y1970340D01*
X-521540Y1969670D01*
G02X-521520Y1969290I-152J-199D01*
G01X-522210Y1968600D01*
X-523200Y1969370D01*
X-525060Y1969830D01*
X-527180Y1969180D01*
X-527840Y1968530D01*
X-528200Y1967890D01*
X-528350Y1967320D01*
X-528390Y1966880D01*
X-527860Y1965530D01*
X-526180Y1964740D01*
X-524880Y1964360D01*
X-523070Y1963330D01*
X-522350Y1961360D01*
X-522490Y1960320D01*
X-522920Y1959320D01*
X-523570Y1958430D01*
X-524400Y1957690D01*
X-525120Y1957260D01*
X-526010Y1956910D01*
X-527070Y1956680D01*
X-528300Y1956590D01*
X-531180Y1957250D01*
X-532100Y1957870D01*
G02X-532140Y1958250I141J207D01*
G01X-531430Y1958990D01*
G01X-529120Y1964450D02*
X-525200D01*
G01X-528320Y1963950D02*
X-524160D01*
G01X-527520Y1963450D02*
X-523270D01*
G01X-526030Y1962950D02*
X-522930D01*
G01X-524820Y1962450D02*
X-522750D01*
G01X-524550Y1961950D02*
X-522560D01*
G01X-524310Y1961450D02*
X-522380D01*
G01X-524090Y1960950D02*
X-522400D01*
G01X-524320Y1960450D02*
X-522480D01*
G01X-524550Y1959950D02*
X-522650D01*
G01X-524770Y1959450D02*
X-522860D01*
G01X-525000Y1958950D02*
X-523190D01*
G01X-531470D02*
X-531360D01*
G01X-525420Y1958450D02*
X-523550D01*
G01X-531950D02*
X-530630D01*
G01X-526920Y1957950D02*
X-524100D01*
G01X-532170D02*
X-529430D01*
G01X-531480Y1957450D02*
X-524800D01*
G01X-529880Y1956950D02*
X-525920D01*
G01X-541250Y1970660D02*
X-538490Y1963530D01*
X-532730Y1970660D01*
X-531650D01*
G02X-531460Y1970250I0J-249D01*
G01X-538030Y1962460D01*
X-539220Y1956830D01*
X-540340D01*
G02X-540580Y1957140I4J251D01*
G01X-539470Y1962370D01*
X-542800Y1970320D01*
G02X-542570Y1970660I229J93D01*
G01X-541250D01*
G01X-537750Y1964450D02*
X-536360D01*
G01X-540340D02*
X-538840D01*
G01X-538150Y1963950D02*
X-536780D01*
G01X-540130D02*
X-538650D01*
G01X-539920Y1963450D02*
X-537200D01*
G01X-539710Y1962950D02*
X-537620D01*
G01X-539500Y1962450D02*
X-538040D01*
G01X-539560Y1961950D02*
X-538140D01*
G01X-539670Y1961450D02*
X-538250D01*
G01X-539770Y1960950D02*
X-538350D01*
G01X-539880Y1960450D02*
X-538460D01*
G01X-539990Y1959950D02*
X-538560D01*
G01X-540090Y1959450D02*
X-538670D01*
G01X-540200Y1958950D02*
X-538780D01*
G01X-540300Y1958450D02*
X-538880D01*
G01X-540410Y1957950D02*
X-538990D01*
G01X-540520Y1957450D02*
X-539100D01*
G01X-540550Y1956950D02*
X-539200D01*
G01X-477240Y1958990D02*
X-475900Y1958090D01*
X-473680Y1957630D01*
X-471000Y1958520D01*
X-469890Y1960980D01*
X-470590Y1962430D01*
X-472330Y1963150D01*
X-473330Y1963450D01*
X-475250Y1964650D01*
X-475870Y1966430D01*
X-475760Y1967480D01*
X-475410Y1968470D01*
X-474820Y1969350D01*
X-473980Y1970080D01*
X-473160Y1970530D01*
X-472320Y1970790D01*
X-471490Y1970920D01*
X-470740Y1970950D01*
X-468180Y1970340D01*
X-467340Y1969670D01*
G02X-467320Y1969290I-159J-199D01*
G01X-468020Y1968600D01*
X-469010Y1969370D01*
X-470870Y1969830D01*
X-472990Y1969180D01*
X-473650Y1968530D01*
X-474010Y1967890D01*
X-474160Y1967320D01*
X-474200Y1966880D01*
X-473670Y1965530D01*
X-471990Y1964740D01*
X-470690Y1964360D01*
X-468880Y1963330D01*
X-468150Y1961360D01*
X-468300Y1960320D01*
X-468720Y1959320D01*
X-469380Y1958430D01*
X-470210Y1957690D01*
X-470930Y1957260D01*
X-471820Y1956910D01*
X-472880Y1956680D01*
X-474110Y1956590D01*
X-476990Y1957250D01*
X-477910Y1957870D01*
G02X-477950Y1958250I143J207D01*
G01X-477240Y1958990D01*
G01X-474920Y1964450D02*
X-471010D01*
G01X-474130Y1963950D02*
X-469970D01*
G01X-473330Y1963450D02*
X-469080D01*
G01X-471840Y1962950D02*
X-468740D01*
G01X-470630Y1962450D02*
X-468550D01*
G01X-470580Y1959450D02*
X-468670D01*
G01X-470810Y1958950D02*
X-469000D01*
G01X-477280D02*
X-477170D01*
G01X-471230Y1958450D02*
X-469360D01*
G01X-477750D02*
X-476440D01*
G01X-472730Y1957950D02*
X-469910D01*
G01X-477980D02*
X-475240D01*
G01X-477290Y1957450D02*
X-470610D01*
G01X-475680Y1956950D02*
X-471720D01*
G01X-488290Y1958550D02*
X-487880D01*
X-481230Y1970660D01*
X-479250D01*
G02X-479010Y1970360I-2J-248D01*
G01X-481880Y1956830D01*
X-482930D01*
G02X-483180Y1957140I-3J253D01*
G01X-481510Y1965000D01*
X-480610Y1968870D01*
X-481090D01*
X-487700Y1956830D01*
X-489250D01*
X-490710Y1968870D01*
X-491190D01*
X-491950Y1965100D01*
X-493700Y1956830D01*
X-494760D01*
G02X-495000Y1957140I5J252D01*
G01X-492130Y1970660D01*
X-489790D01*
X-488290Y1958550D01*
G01X-481620Y1964450D02*
X-480260D01*
G01X-484640D02*
X-483520D01*
G01X-490170D02*
X-489020D01*
G01X-493450D02*
X-492090D01*
G01X-481730Y1963950D02*
X-480370D01*
G01X-484910D02*
X-483800D01*
G01X-490110D02*
X-488960D01*
G01X-493550D02*
X-492190D01*
G01X-481840Y1963450D02*
X-480470D01*
G01X-485190D02*
X-484070D01*
G01X-490050D02*
X-488900D01*
G01X-493660D02*
X-492300D01*
G01X-481940Y1962950D02*
X-480580D01*
G01X-485460D02*
X-484350D01*
G01X-489990D02*
X-488840D01*
G01X-493760D02*
X-492400D01*
G01X-482050Y1962450D02*
X-480690D01*
G01X-485740D02*
X-484620D01*
G01X-489930D02*
X-488770D01*
G01X-493870D02*
X-492510D01*
G01X-482150Y1961950D02*
X-480790D01*
G01X-486010D02*
X-484900D01*
G01X-489870D02*
X-488710D01*
G01X-493980D02*
X-492620D01*
G01X-482260Y1961450D02*
X-480900D01*
G01X-486290D02*
X-485170D01*
G01X-489810D02*
X-488650D01*
G01X-494080D02*
X-492720D01*
G01X-482370Y1960950D02*
X-481000D01*
G01X-486560D02*
X-485440D01*
G01X-489750D02*
X-488590D01*
G01X-494190D02*
X-492830D01*
G01X-482470Y1960450D02*
X-481110D01*
G01X-486840D02*
X-485720D01*
G01X-489690D02*
X-488520D01*
G01X-494300D02*
X-492930D01*
G01X-482580Y1959950D02*
X-481220D01*
G01X-487110D02*
X-485990D01*
G01X-489620D02*
X-488460D01*
G01X-494400D02*
X-493040D01*
G01X-482680Y1959450D02*
X-481320D01*
G01X-487380D02*
X-486270D01*
G01X-489560D02*
X-488400D01*
G01X-494510D02*
X-493140D01*
G01X-482790Y1958950D02*
X-481430D01*
G01X-487660D02*
X-486540D01*
G01X-489500D02*
X-488340D01*
G01X-494610D02*
X-493250D01*
G01X-482900Y1958450D02*
X-481530D01*
G01X-489440D02*
X-486820D01*
G01X-494720D02*
X-493360D01*
G01X-483000Y1957950D02*
X-481640D01*
G01X-489380D02*
X-487090D01*
G01X-494830D02*
X-493460D01*
G01X-483110Y1957450D02*
X-481750D01*
G01X-489320D02*
X-487370D01*
G01X-494930D02*
X-493570D01*
G01X-483140Y1956950D02*
X-481850D01*
G01X-489260D02*
X-487640D01*
G01X-494960D02*
X-493670D01*
G01X-546540Y1968950D02*
X-545740D01*
G01X-511330Y2009120D02*
X-511350Y2009150D01*
G02X-511150Y2009540I203J142D01*
G01X-495760D01*
G02X-495520Y2009230I0J-248D01*
G01X-496600Y2004750D01*
G02X-497040Y2004640I-247J54D01*
G01X-497290Y2004930D01*
X-497750Y2005230D01*
X-498330Y2005460D01*
X-499030Y2005610D01*
X-499870Y2005670D01*
X-503010D01*
X-504910Y1997340D01*
X-501820D01*
X-498850Y1997650D01*
G02X-498580Y1997350I27J-247D01*
G01X-499690Y1992520D01*
X-499890Y1992510D01*
X-500250Y1992920D01*
X-500690Y1993210D01*
X-501600Y1993430D01*
X-502470Y1993460D01*
X-505780D01*
X-507270Y1986620D01*
X-507820Y1982840D01*
X-507770Y1982120D01*
X-507560Y1981430D01*
X-507180Y1980710D01*
X-507160Y1980670D01*
G02X-507360Y1980280I-202J-143D01*
G01X-517750D01*
X-517800Y1980430D01*
X-517150Y1981090D01*
X-516600Y1981820D01*
X-516150Y1982620D01*
X-515450Y1984410D01*
X-514900Y1986520D01*
X-511240Y2003200D01*
X-510680Y2006980D01*
X-510740Y2007700D01*
X-510940Y2008390D01*
X-511330Y2009120D01*
G01X-511340Y2009450D02*
X-495560D01*
G01X-511240Y2008950D02*
X-495590D01*
G01X-510980Y2008450D02*
X-495710D01*
G01X-510810Y2007950D02*
X-495830D01*
G01X-510720Y2007450D02*
X-495950D01*
G01X-510680Y2006950D02*
X-496070D01*
G01X-510760Y2006450D02*
X-496190D01*
G01X-510830Y2005950D02*
X-496310D01*
G01X-498310Y2005450D02*
X-496440D01*
G01X-510910D02*
X-503060D01*
G01X-497320Y2004950D02*
X-496560D01*
G01X-510980D02*
X-503180D01*
G01X-511060Y2004450D02*
X-503290D01*
G01X-511130Y2003950D02*
X-503400D01*
G01X-511200Y2003450D02*
X-503520D01*
G01X-511300Y2002950D02*
X-503630D01*
G01X-511400Y2002450D02*
X-503740D01*
G01X-511510Y2001950D02*
X-503860D01*
G01X-511620Y2001450D02*
X-503970D01*
G01X-511730Y2000950D02*
X-504090D01*
G01X-511840Y2000450D02*
X-504200D01*
G01X-511950Y1999950D02*
X-504320D01*
G01X-512060Y1999450D02*
X-504430D01*
G01X-512170Y1998950D02*
X-504540D01*
G01X-512280Y1998450D02*
X-504660D01*
G01X-512390Y1997950D02*
X-504770D01*
G01X-500770Y1997450D02*
X-498580D01*
G01X-512500D02*
X-504880D01*
G01X-512610Y1996950D02*
X-498670D01*
G01X-512720Y1996450D02*
X-498790D01*
G01X-512830Y1995950D02*
X-498900D01*
G01X-512940Y1995450D02*
X-499020D01*
G01X-513050Y1994950D02*
X-499130D01*
G01X-513160Y1994450D02*
X-499250D01*
G01X-513270Y1993950D02*
X-499360D01*
G01X-502120Y1993450D02*
X-499480D01*
G01X-513380D02*
X-505780D01*
G01X-500290Y1992950D02*
X-499600D01*
G01X-513490D02*
X-505890D01*
G01X-513600Y1992450D02*
X-506000D01*
G01X-513710Y1991950D02*
X-506110D01*
G01X-513820Y1991450D02*
X-506220D01*
G01X-513930Y1990950D02*
X-506320D01*
G01X-514040Y1990450D02*
X-506430D01*
G01X-514150Y1989950D02*
X-506540D01*
G01X-514260Y1989450D02*
X-506650D01*
G01X-514370Y1988950D02*
X-506760D01*
G01X-514480Y1988450D02*
X-506870D01*
G01X-514590Y1987950D02*
X-506980D01*
G01X-514700Y1987450D02*
X-507090D01*
G01X-514810Y1986950D02*
X-507200D01*
G01X-514920Y1986450D02*
X-507300D01*
G01X-515050Y1985950D02*
X-507370D01*
G01X-515180Y1985450D02*
X-507440D01*
G01X-515310Y1984950D02*
X-507520D01*
G01X-515440Y1984450D02*
X-507590D01*
G01X-515630Y1983950D02*
X-507660D01*
G01X-515820Y1983450D02*
X-507740D01*
G01X-516020Y1982950D02*
X-507810D01*
G01X-516240Y1982450D02*
X-507790D01*
G01X-516530Y1981950D02*
X-507720D01*
G01X-516880Y1981450D02*
X-507570D01*
G01X-517290Y1980950D02*
X-507310D01*
G01X-517780Y1980450D02*
X-507120D01*
G01X-520110Y2008680D02*
X-518940Y2007940D01*
X-517850Y2006980D01*
X-517100Y2006070D01*
X-516490Y2005090D01*
X-516010Y2004040D01*
X-515650Y2002950D01*
X-515230Y2000680D01*
X-515120Y1998400D01*
X-515430Y1994360D01*
X-516330Y1990730D01*
X-517790Y1987530D01*
X-519760Y1984820D01*
X-522190Y1982640D01*
X-525060Y1981020D01*
X-528330Y1980020D01*
X-531960Y1979680D01*
X-535740Y1980090D01*
X-538580Y1981200D01*
X-540640Y1982790D01*
X-542060Y1984690D01*
X-542940Y1986710D01*
X-543420Y1988640D01*
X-543620Y1990300D01*
X-543660Y1991470D01*
X-543580Y1993380D01*
X-543350Y1995270D01*
X-542960Y1997140D01*
X-542420Y1998950D01*
X-541740Y2000690D01*
X-540910Y2002330D01*
X-539940Y2003850D01*
X-538830Y2005250D01*
X-537660Y2006420D01*
X-536390Y2007420D01*
X-535030Y2008260D01*
X-533570Y2008950D01*
X-532010Y2009470D01*
X-530350Y2009840D01*
X-528570Y2010070D01*
X-526690Y2010140D01*
X-524830Y2010050D01*
X-522530Y2009630D01*
X-521320Y2009240D01*
X-520110Y2008680D01*
G01X-523720Y1994620D02*
X-524300Y1991740D01*
X-525180Y1988960D01*
X-525810Y1987530D01*
X-526490Y1986330D01*
X-527210Y1985330D01*
X-527970Y1984530D01*
X-528750Y1983930D01*
X-529550Y1983510D01*
X-530360Y1983260D01*
X-531150Y1983180D01*
X-531740Y1983230D01*
X-532420Y1983420D01*
X-533140Y1983800D01*
X-533860Y1984420D01*
X-534500Y1985320D01*
X-535010Y1986550D01*
X-535360Y1988140D01*
X-535480Y1990150D01*
X-535320Y1992980D01*
X-534880Y1995940D01*
X-534220Y1998790D01*
X-533380Y2001250D01*
X-532650Y2002800D01*
X-531480Y2004560D01*
X-530720Y2005360D01*
X-529830Y2006030D01*
X-528810Y2006480D01*
X-527680Y2006640D01*
X-527060Y2006600D01*
X-526360Y2006430D01*
X-525630Y2006080D01*
X-524910Y2005490D01*
X-524270Y2004590D01*
X-523750Y2003360D01*
X-523410Y2001740D01*
X-523290Y1999680D01*
X-523390Y1997350D01*
X-523720Y1994620D01*
G01X-529500Y2009950D02*
X-524290D01*
G01X-532080Y2009450D02*
X-521970D01*
G01X-533560Y2008950D02*
X-520700D01*
G01X-534630Y2008450D02*
X-519750D01*
G01X-535540Y2007950D02*
X-518960D01*
G01X-536350Y2007450D02*
X-518390D01*
G01X-536990Y2006950D02*
X-517830D01*
G01X-526420Y2006450D02*
X-517410D01*
G01X-537620D02*
X-528870D01*
G01X-525470Y2005950D02*
X-517020D01*
G01X-538130D02*
X-529930D01*
G01X-524880Y2005450D02*
X-516710D01*
G01X-538630D02*
X-530600D01*
G01X-524520Y2004950D02*
X-516420D01*
G01X-539070D02*
X-531110D01*
G01X-524210Y2004450D02*
X-516200D01*
G01X-539470D02*
X-531550D01*
G01X-524000Y2003950D02*
X-515980D01*
G01X-539860D02*
X-531880D01*
G01X-523790Y2003450D02*
X-515810D01*
G01X-540200D02*
X-532220D01*
G01X-523670Y2002950D02*
X-515650D01*
G01X-540510D02*
X-532550D01*
G01X-523560Y2002450D02*
X-515560D01*
G01X-540830D02*
X-532820D01*
G01X-523460Y2001950D02*
X-515470D01*
G01X-541100D02*
X-533050D01*
G01X-523400Y2001450D02*
X-515370D01*
G01X-541350D02*
X-533290D01*
G01X-523370Y2000950D02*
X-515280D01*
G01X-541610D02*
X-533490D01*
G01X-523340Y2000450D02*
X-515220D01*
G01X-541830D02*
X-533660D01*
G01X-523310Y1999950D02*
X-515190D01*
G01X-542030D02*
X-533830D01*
G01X-523300Y1999450D02*
X-515170D01*
G01X-542230D02*
X-534000D01*
G01X-523320Y1998950D02*
X-515140D01*
G01X-542420D02*
X-534160D01*
G01X-523340Y1998450D02*
X-515120D01*
G01X-542570D02*
X-534300D01*
G01X-523370Y1997950D02*
X-515150D01*
G01X-542720D02*
X-534420D01*
G01X-523390Y1997450D02*
X-515190D01*
G01X-542870D02*
X-534530D01*
G01X-523440Y1996950D02*
X-515230D01*
G01X-543000D02*
X-534650D01*
G01X-523500Y1996450D02*
X-515270D01*
G01X-543100D02*
X-534770D01*
G01X-523560Y1995950D02*
X-515300D01*
G01X-543210D02*
X-534880D01*
G01X-523620Y1995450D02*
X-515340D01*
G01X-543310D02*
X-534960D01*
G01X-523680Y1994950D02*
X-515380D01*
G01X-543390D02*
X-535030D01*
G01X-523750Y1994450D02*
X-515420D01*
G01X-543450D02*
X-535110D01*
G01X-523860Y1993950D02*
X-515530D01*
G01X-543510D02*
X-535180D01*
G01X-523960Y1993450D02*
X-515660D01*
G01X-543570D02*
X-535260D01*
G01X-524060Y1992950D02*
X-515780D01*
G01X-543600D02*
X-535330D01*
G01X-524160Y1992450D02*
X-515900D01*
G01X-543620D02*
X-535360D01*
G01X-524260Y1991950D02*
X-516030D01*
G01X-543640D02*
X-535380D01*
G01X-524390Y1991450D02*
X-516150D01*
G01X-543660D02*
X-535410D01*
G01X-524550Y1990950D02*
X-516280D01*
G01X-543640D02*
X-535440D01*
G01X-524710Y1990450D02*
X-516460D01*
G01X-543630D02*
X-535470D01*
G01X-524860Y1989950D02*
X-516690D01*
G01X-543580D02*
X-535470D01*
G01X-525020Y1989450D02*
X-516920D01*
G01X-543520D02*
X-535440D01*
G01X-525180Y1988950D02*
X-517140D01*
G01X-543460D02*
X-535410D01*
G01X-525400Y1988450D02*
X-517370D01*
G01X-543380D02*
X-535380D01*
G01X-525620Y1987950D02*
X-517600D01*
G01X-543250D02*
X-535320D01*
G01X-525850Y1987450D02*
X-517850D01*
G01X-543130D02*
X-535210D01*
G01X-526130Y1986950D02*
X-518210D01*
G01X-543000D02*
X-535100D01*
G01X-526420Y1986450D02*
X-518580D01*
G01X-542830D02*
X-534970D01*
G01X-526760Y1985950D02*
X-518940D01*
G01X-542610D02*
X-534760D01*
G01X-527120Y1985450D02*
X-519300D01*
G01X-542390D02*
X-534550D01*
G01X-527570Y1984950D02*
X-519660D01*
G01X-542170D02*
X-534240D01*
G01X-528080Y1984450D02*
X-520170D01*
G01X-541870D02*
X-533880D01*
G01X-528730Y1983950D02*
X-520730D01*
G01X-541500D02*
X-533320D01*
G01X-529740Y1983450D02*
X-521290D01*
G01X-541130D02*
X-532480D01*
G01X-540760Y1982950D02*
X-521850D01*
G01X-540200Y1982450D02*
X-522530D01*
G01X-539550Y1981950D02*
X-523420D01*
G01X-538910Y1981450D02*
X-524310D01*
G01X-537940Y1980950D02*
X-525310D01*
G01X-536660Y1980450D02*
X-526940D01*
G01X-534450Y1979950D02*
X-529080D01*
G01X-505600Y1970450D02*
X-495680D01*
G01X-505700Y1969950D02*
X-495770D01*
G01X-505810Y1969450D02*
X-495870D01*
G01X-505910Y1968950D02*
X-504480D01*
G01X-506020Y1968450D02*
X-504590D01*
G01X-506120Y1967950D02*
X-504700D01*
G01X-506230Y1967450D02*
X-504810D01*
G01X-506340Y1966950D02*
X-504920D01*
G01X-506440Y1966450D02*
X-505020D01*
G01X-506550Y1965950D02*
X-505130D01*
G01X-506660Y1965450D02*
X-505240D01*
G01X-506760Y1964950D02*
X-505350D01*
G01X-519310Y1970450D02*
X-508190D01*
G01X-519420Y1969950D02*
X-508280D01*
G01X-519250Y1969450D02*
X-508380D01*
G01X-514770Y1968950D02*
X-513340D01*
G01X-514880Y1968450D02*
X-513450D01*
G01X-514980Y1967950D02*
X-513560D01*
G01X-515090Y1967450D02*
X-513660D01*
G01X-515190Y1966950D02*
X-513770D01*
G01X-515300Y1966450D02*
X-513880D01*
G01X-515410Y1965950D02*
X-513980D01*
G01X-515510Y1965450D02*
X-514090D01*
G01X-515620Y1964950D02*
X-514200D01*
G01X-525000Y1970950D02*
X-524920D01*
G01X-527490Y1970450D02*
X-522820D01*
G01X-528320Y1969950D02*
X-521890D01*
G01X-523520Y1969450D02*
X-521440D01*
G01X-528890D02*
X-526300D01*
G01X-522660Y1968950D02*
X-521860D01*
G01X-529280D02*
X-527420D01*
G01X-529610Y1968450D02*
X-527890D01*
G01X-529780Y1967950D02*
X-528170D01*
G01X-529950Y1967450D02*
X-528320D01*
G01X-530010Y1966950D02*
X-528380D01*
G01X-530060Y1966450D02*
X-528220D01*
G01X-529890Y1965950D02*
X-528030D01*
G01X-529720Y1965450D02*
X-527700D01*
G01X-529540Y1964950D02*
X-526620D01*
G01X-532900Y1970450D02*
X-531400D01*
G01X-542820D02*
X-541160D01*
G01X-533300Y1969950D02*
X-531720D01*
G01X-542650D02*
X-540970D01*
G01X-533710Y1969450D02*
X-532140D01*
G01X-542440D02*
X-540780D01*
G01X-534110Y1968950D02*
X-532560D01*
G01X-542230D02*
X-540580D01*
G01X-534510Y1968450D02*
X-532980D01*
G01X-542020D02*
X-540390D01*
G01X-534920Y1967950D02*
X-533400D01*
G01X-541810D02*
X-540200D01*
G01X-535320Y1967450D02*
X-533820D01*
G01X-541600D02*
X-540000D01*
G01X-535730Y1966950D02*
X-534250D01*
G01X-541390D02*
X-539810D01*
G01X-536130Y1966450D02*
X-534670D01*
G01X-541180D02*
X-539620D01*
G01X-536530Y1965950D02*
X-535090D01*
G01X-540970D02*
X-539420D01*
G01X-536940Y1965450D02*
X-535510D01*
G01X-540760D02*
X-539230D01*
G01X-537340Y1964950D02*
X-535930D01*
G01X-540550D02*
X-539040D01*
G01X-546320Y2012950D02*
X-544040D01*
G01X-545610Y2012450D02*
X-544060D01*
G01X-544970Y2011950D02*
X-544090D01*
G01X-470810Y1970950D02*
X-470730D01*
G01X-473300Y1970450D02*
X-468630D01*
G01X-474130Y1969950D02*
X-467700D01*
G01X-474700Y1969450D02*
X-472110D01*
G01X-475080Y1968950D02*
X-473230D01*
G01X-475410Y1968450D02*
X-473700D01*
G01X-475590Y1967950D02*
X-473980D01*
G01X-475760Y1967450D02*
X-474130D01*
G01X-475820Y1966950D02*
X-474190D01*
G01X-475870Y1966450D02*
X-474030D01*
G01X-475700Y1965950D02*
X-473840D01*
G01X-475530Y1965450D02*
X-473500D01*
G01X-475350Y1964950D02*
X-472430D01*
G01X-472490Y2009190D02*
X-474740Y2004320D01*
G02X-475150Y2004260I-225J109D01*
G01X-475200Y2004310D01*
X-476080Y2004950D01*
X-477310Y2005460D01*
X-478930Y2005670D01*
X-480330D01*
X-484540Y1986620D01*
X-485100Y1982840D01*
X-484980Y1981920D01*
X-484690Y1981120D01*
X-484290Y1980430D01*
X-484360Y1980280D01*
X-494980D01*
X-495050Y1980470D01*
X-494400Y1981130D01*
X-493860Y1981810D01*
X-493420Y1982550D01*
X-492740Y1984280D01*
X-492170Y1986520D01*
X-487940Y2005670D01*
X-490680D01*
X-492300Y2005460D01*
X-493540Y2004950D01*
X-493800Y2004760D01*
G02X-494200Y2005020I-156J198D01*
G01X-493160Y2009540D01*
X-472720D01*
G02X-472490Y2009190I1J-250D01*
G01X-493180Y2009450D02*
X-472530D01*
G01X-493300Y2008950D02*
X-472600D01*
G01X-493410Y2008450D02*
X-472840D01*
G01X-493530Y2007950D02*
X-473070D01*
G01X-493640Y2007450D02*
X-473300D01*
G01X-493750Y2006950D02*
X-473530D01*
G01X-493870Y2006450D02*
X-473760D01*
G01X-493980Y2005950D02*
X-473990D01*
G01X-477280Y2005450D02*
X-474220D01*
G01X-487990D02*
X-480380D01*
G01X-494100D02*
X-492330D01*
G01X-476070Y2004950D02*
X-474450D01*
G01X-488100D02*
X-480490D01*
G01X-494200D02*
X-493540D01*
G01X-475390Y2004450D02*
X-474680D01*
G01X-488210D02*
X-480600D01*
G01X-488320Y2003950D02*
X-480710D01*
G01X-488430Y2003450D02*
X-480820D01*
G01X-488540Y2002950D02*
X-480930D01*
G01X-488650Y2002450D02*
X-481040D01*
G01X-488760Y2001950D02*
X-481150D01*
G01X-488880Y2001450D02*
X-481260D01*
G01X-488980Y2000950D02*
X-481370D01*
G01X-489100Y2000450D02*
X-481480D01*
G01X-489210Y1999950D02*
X-481590D01*
G01X-489320Y1999450D02*
X-481700D01*
G01X-489430Y1998950D02*
X-481820D01*
G01X-489540Y1998450D02*
X-481920D01*
G01X-489650Y1997950D02*
X-482040D01*
G01X-489760Y1997450D02*
X-482150D01*
G01X-489870Y1996950D02*
X-482260D01*
G01X-489980Y1996450D02*
X-482370D01*
G01X-490090Y1995950D02*
X-482480D01*
G01X-490200Y1995450D02*
X-482590D01*
G01X-490310Y1994950D02*
X-482700D01*
G01X-490420Y1994450D02*
X-482810D01*
G01X-490530Y1993950D02*
X-482920D01*
G01X-490640Y1993450D02*
X-483030D01*
G01X-490750Y1992950D02*
X-483140D01*
G01X-490860Y1992450D02*
X-483250D01*
G01X-490970Y1991950D02*
X-483360D01*
G01X-491080Y1991450D02*
X-483480D01*
G01X-491200Y1990950D02*
X-483580D01*
G01X-491300Y1990450D02*
X-483700D01*
G01X-491420Y1989950D02*
X-483810D01*
G01X-491530Y1989450D02*
X-483920D01*
G01X-491640Y1988950D02*
X-484030D01*
G01X-491750Y1988450D02*
X-484140D01*
G01X-491860Y1987950D02*
X-484250D01*
G01X-491970Y1987450D02*
X-484360D01*
G01X-492080Y1986950D02*
X-484470D01*
G01X-492190Y1986450D02*
X-484570D01*
G01X-492320Y1985950D02*
X-484640D01*
G01X-492440Y1985450D02*
X-484720D01*
G01X-492570Y1984950D02*
X-484790D01*
G01X-492690Y1984450D02*
X-484860D01*
G01X-492870Y1983950D02*
X-484940D01*
G01X-493060Y1983450D02*
X-485010D01*
G01X-493260Y1982950D02*
X-485080D01*
G01X-493480Y1982450D02*
X-485050D01*
G01X-493780Y1981950D02*
X-484990D01*
G01X-494140Y1981450D02*
X-484810D01*
G01X-494570Y1980950D02*
X-484590D01*
G01X-495040Y1980450D02*
X-484300D01*
G01X-481350Y1970450D02*
X-479000D01*
G01X-492170D02*
X-489760D01*
G01X-481620Y1969950D02*
X-479100D01*
G01X-492280D02*
X-489700D01*
G01X-481900Y1969450D02*
X-479200D01*
G01X-492390D02*
X-489640D01*
G01X-482170Y1968950D02*
X-479310D01*
G01X-492490D02*
X-489580D01*
G01X-480710Y1968450D02*
X-479410D01*
G01X-482440D02*
X-481320D01*
G01X-490660D02*
X-489520D01*
G01X-492600D02*
X-491280D01*
G01X-480820Y1967950D02*
X-479520D01*
G01X-482720D02*
X-481600D01*
G01X-490600D02*
X-489450D01*
G01X-492700D02*
X-491380D01*
G01X-480940Y1967450D02*
X-479620D01*
G01X-482990D02*
X-481870D01*
G01X-490540D02*
X-489390D01*
G01X-492810D02*
X-491480D01*
G01X-481060Y1966950D02*
X-479730D01*
G01X-483270D02*
X-482150D01*
G01X-490470D02*
X-489330D01*
G01X-492920D02*
X-491580D01*
G01X-481170Y1966450D02*
X-479840D01*
G01X-483540D02*
X-482420D01*
G01X-490410D02*
X-489270D01*
G01X-493020D02*
X-491680D01*
G01X-481290Y1965950D02*
X-479940D01*
G01X-483820D02*
X-482700D01*
G01X-490350D02*
X-489210D01*
G01X-493130D02*
X-491780D01*
G01X-481400Y1965450D02*
X-480050D01*
G01X-484090D02*
X-482970D01*
G01X-490290D02*
X-489140D01*
G01X-493240D02*
X-491880D01*
G01X-481520Y1964950D02*
X-480160D01*
G01X-484360D02*
X-483250D01*
G01X-490230D02*
X-489080D01*
G01X-493340D02*
X-491980D01*
G01X-470360Y1961950D02*
X-468370D01*
G01X-470120Y1961450D02*
X-468190D01*
G01X-469900Y1960950D02*
X-468210D01*
G01X-470130Y1960450D02*
X-468280D01*
G01X-470360Y1959950D02*
X-468460D01*
G01X-465790Y2011950D02*
Y2017820D01*
X-464660D01*
X-462510Y2017810D01*
X-460930Y2017020D01*
X-460740Y2016300D01*
X-461190Y2015240D01*
X-462820Y2014560D01*
X-461570Y2013590D01*
X-461090Y2012850D01*
X-460760Y2012330D01*
G02X-460980Y2011950I-215J-129D01*
G01X-461650D01*
X-462150Y2012870D01*
X-462920Y2014040D01*
X-464250Y2014580D01*
X-464910D01*
Y2011950D01*
X-465790D01*
G01X-461660Y2016250D02*
X-461910Y2015530D01*
X-462980Y2015080D01*
X-464090Y2015070D01*
X-464910D01*
Y2017320D01*
X-464080D01*
X-462460Y2017220D01*
X-461660Y2016250D01*
G01X-465790Y2017450D02*
X-461790D01*
G01X-462230Y2016950D02*
X-460910D01*
G01X-465790D02*
X-464910D01*
G01X-461820Y2016450D02*
X-460780D01*
G01X-465790D02*
X-464910D01*
G01X-461760Y2015950D02*
X-460890D01*
G01X-465790D02*
X-464910D01*
G01X-462090Y2015450D02*
X-461100D01*
G01X-465790D02*
X-464910D01*
G01X-465790Y2014950D02*
X-461890D01*
G01X-463930Y2014450D02*
X-462680D01*
G01X-465790D02*
X-464910D01*
G01X-462860Y2013950D02*
X-462040D01*
G01X-465790D02*
X-464910D01*
G01X-462530Y2013450D02*
X-461480D01*
G01X-465790D02*
X-464910D01*
G01X-462210Y2012950D02*
X-461160D01*
G01X-465790D02*
X-464910D01*
G01X-461920Y2012450D02*
X-460840D01*
G01X-465790D02*
X-464910D01*
G01X-461650Y2011950D02*
X-460950D01*
G01X-465790D02*
X-464910D01*
G01X-463110Y2020650D02*
X-460000Y2019890D01*
X-457750Y2017790D01*
X-456920Y2014900D01*
X-457750Y2012020D01*
X-460020Y2009930D01*
X-463110Y2009160D01*
X-466230Y2009940D01*
X-468480Y2012050D01*
X-469300Y2014900D01*
X-468460Y2017810D01*
X-466160Y2019910D01*
X-463110Y2020650D01*
G01X-467820Y2012330D02*
X-468560Y2014900D01*
X-467800Y2017460D01*
X-465830Y2019310D01*
X-463100Y2019980D01*
X-460410Y2019340D01*
X-458400Y2017480D01*
X-457640Y2014900D01*
X-458370Y2012360D01*
X-460360Y2010480D01*
X-463100Y2009800D01*
X-465800Y2010460D01*
X-467820Y2012330D01*
G01X-463950Y2020450D02*
X-462290D01*
G01X-462970Y2019950D02*
X-460260D01*
G01X-466010D02*
X-463240D01*
G01X-460890Y2019450D02*
X-459530D01*
G01X-466670D02*
X-465280D01*
G01X-459990Y2018950D02*
X-458990D01*
G01X-467210D02*
X-466220D01*
G01X-459450Y2018450D02*
X-458460D01*
G01X-467760D02*
X-466750D01*
G01X-458910Y2017950D02*
X-457920D01*
G01X-468300D02*
X-467280D01*
G01X-458390Y2017450D02*
X-457650D01*
G01X-468560D02*
X-467810D01*
G01X-458240Y2016950D02*
X-457510D01*
G01X-468710D02*
X-467960D01*
G01X-458100Y2016450D02*
X-457360D01*
G01X-468850D02*
X-468100D01*
G01X-457950Y2015950D02*
X-457220D01*
G01X-469000D02*
X-468250D01*
G01X-457800Y2015450D02*
X-457080D01*
G01X-469140D02*
X-468390D01*
G01X-457660Y2014950D02*
X-456940D01*
G01X-469290D02*
X-468540D01*
G01X-457770Y2014450D02*
X-457050D01*
G01X-469170D02*
X-468430D01*
G01X-457910Y2013950D02*
X-457200D01*
G01X-469030D02*
X-468280D01*
G01X-458060Y2013450D02*
X-457340D01*
G01X-468890D02*
X-468140D01*
G01X-458200Y2012950D02*
X-457490D01*
G01X-468740D02*
X-468000D01*
G01X-458340Y2012450D02*
X-457630D01*
G01X-468600D02*
X-467850D01*
G01X-458800Y2011950D02*
X-457830D01*
G01X-468380D02*
X-467410D01*
G01X-459340Y2011450D02*
X-458370D01*
G01X-467840D02*
X-466870D01*
G01X-459870Y2010950D02*
X-458910D01*
G01X-467310D02*
X-466320D01*
G01X-460500Y2010450D02*
X-459450D01*
G01X-466780D02*
X-465750D01*
G01X-462490Y2009950D02*
X-459990D01*
G01X-466240D02*
X-463720D01*
G01X-464280Y2009450D02*
X-461930D01*
G01X-469330Y1969450D02*
X-467250D01*
G01X-468470Y1968950D02*
X-467670D01*
G54D11*
G01X-774700Y1251590D02*
Y1250950D01*
G01X-750000Y213110D02*
X-774000D01*
Y165110D01*
X-750000D01*
Y213110D01*
G01X-565150Y946150D02*
Y869950D01*
G02X-596900Y838200I-31750J0D01*
G01X-723900D01*
G02X-755650Y869950I0J31750D01*
G01Y946150D01*
G01X-729510Y1035760D02*
X-742210Y1023060D01*
G01Y1035760D02*
Y1023060D01*
X-729510D01*
Y1035760D01*
X-742210D01*
X-729510Y1023060D01*
G01X-723160Y1061160D02*
X-767610D01*
Y1016710D01*
X-723160D01*
Y1061160D01*
G01X-761260Y1054810D02*
Y1042110D01*
X-748560D01*
Y1054810D01*
X-761260D01*
X-748560Y1042110D01*
G01Y1054810D02*
X-761260Y1042110D01*
G01X-729510Y1111960D02*
X-742210Y1099260D01*
G01Y1111960D02*
Y1099260D01*
X-729510D01*
Y1111960D01*
X-742210D01*
X-729510Y1099260D01*
G01X-723160Y1118310D02*
X-767610D01*
Y1073860D01*
X-723160D01*
Y1118310D01*
G01X-761260Y1092910D02*
Y1080210D01*
X-748560D01*
Y1092910D01*
X-761260D01*
X-748560Y1080210D01*
G01Y1092910D02*
X-761260Y1080210D01*
G01X-748560Y1169110D02*
X-761260Y1156410D01*
G01Y1169110D02*
Y1156410D01*
X-748560D01*
Y1169110D01*
X-761260D01*
X-748560Y1156410D01*
G01Y1150060D02*
X-761260Y1137360D01*
G01Y1150060D02*
Y1137360D01*
X-748560D01*
Y1150060D01*
X-761260D01*
X-748560Y1137360D01*
G01X-723160Y1175460D02*
X-767610D01*
Y1131010D01*
X-723160D01*
Y1175460D01*
G01X-755650Y1250950D02*
Y1333500D01*
G02X-711200Y1377950I44450J0D01*
G01X-599530D01*
G02X-565150Y1343570I0J-34380D01*
G01Y1289050D01*
G01X-622300Y893060D02*
Y898850D01*
G01X-599800D02*
X-644800D01*
Y1018850D01*
X-599800D01*
Y898850D01*
G01X-622300Y1018850D02*
Y1024640D01*
G01X-648400Y1084450D02*
X-672400D01*
Y1036450D01*
X-648400D01*
Y1084450D01*
G01X-599800Y1165550D02*
X-644800D01*
Y1285550D01*
X-599800D01*
Y1165550D01*
G01X-622300Y1159760D02*
Y1165550D01*
G01Y1285550D02*
Y1291340D01*
G01X-648400Y1351150D02*
X-672400D01*
Y1303150D01*
X-648400D01*
Y1351150D01*
G01X-652700Y1872900D02*
X-650700Y1870900D01*
X-652700Y1868900D01*
Y1872900D01*
G01Y1898300D02*
X-650700Y1896300D01*
X-652700Y1894300D01*
Y1898300D01*
G01Y1923700D02*
X-650700Y1921700D01*
X-652700Y1919700D01*
Y1923700D01*
G01X-214040Y-118790D02*
X-215900Y-120650D01*
G02X-231230Y-127000I-15330J15330D01*
G01X-552450D01*
G02X-590550Y-88900I0J38100D01*
G01Y-82550D01*
G01X-514350Y6350D02*
X-558800D01*
Y-38100D01*
X-514350D01*
Y6350D01*
G01X-539750Y38100D02*
X-552450Y25400D01*
G01X-539750Y57150D02*
X-552450Y44450D01*
G01Y38100D02*
Y25400D01*
X-539750D01*
Y38100D01*
X-552450D01*
X-539750Y25400D01*
G01X-552450Y57150D02*
Y44450D01*
X-539750D01*
Y57150D01*
X-552450D01*
X-539750Y44450D01*
G01X-514350Y63500D02*
X-558800D01*
Y19050D01*
X-514350D01*
Y63500D01*
G01X-539300Y158750D02*
G03X-590550Y114300I0J-51770D01*
G01X-539750Y361950D02*
X-552450Y349250D01*
G01Y361950D02*
Y349250D01*
X-539750D01*
Y361950D01*
X-552450D01*
X-539750Y349250D01*
G01X-514350Y368300D02*
X-558800D01*
Y323850D01*
X-514350D01*
Y368300D01*
G01X-539750Y400050D02*
X-552450Y387350D01*
G01Y400050D02*
Y387350D01*
X-539750D01*
Y400050D01*
X-552450D01*
X-539750Y387350D01*
G01X-514350Y425450D02*
X-558800D01*
Y381000D01*
X-514350D01*
Y425450D01*
G01Y482600D02*
X-558800D01*
Y438150D01*
X-514350D01*
Y482600D01*
G01X-552450Y457200D02*
Y444500D01*
X-539750D01*
Y457200D01*
X-552450D01*
X-539750Y444500D01*
G01Y457200D02*
X-552450Y444500D01*
G01Y476250D02*
Y463550D01*
X-539750D01*
Y476250D01*
X-552450D01*
X-539750Y463550D01*
G01Y476250D02*
X-552450Y463550D01*
G01X-565900Y954250D02*
Y1014250D01*
X-500900D01*
Y954250D01*
X-565900D01*
G01X-516400Y1102300D02*
Y1031300D01*
X-551400D01*
Y1102300D01*
X-516400D01*
G01X-565900Y1220950D02*
Y1280950D01*
X-500900D01*
Y1220950D01*
X-565900D01*
G01X-516400Y1369000D02*
Y1298000D01*
X-551400D01*
Y1369000D01*
X-516400D01*
G01X-470600Y-106550D02*
Y-58550D01*
X-494600D01*
Y-106550D01*
X-470600D01*
G01X-533400Y-19050D02*
Y-31750D01*
X-520700D01*
Y-19050D01*
X-533400D01*
X-520700Y-31750D01*
G01Y-19050D02*
X-533400Y-31750D01*
G01Y0D02*
Y-12700D01*
X-520700D01*
Y0D01*
X-533400D01*
X-520700Y-12700D01*
G01Y0D02*
X-533400Y-12700D01*
G01X-470600Y1400D02*
Y49400D01*
X-494600D01*
Y1400D01*
X-470600D01*
G01X-494600Y52200D02*
X-470600D01*
Y100200D01*
X-494600D01*
Y52200D01*
G01X-228600Y146050D02*
G03X-259260Y158750I-30660J-30660D01*
G01X-539300D01*
G01X-273050Y361950D02*
Y344440D01*
G02X-292100Y298450I-65040J0D01*
G02X-322760Y285750I-30660J30660D01*
G01X-488950D01*
G01X-520700Y342900D02*
X-533400Y330200D01*
G01Y342900D02*
Y330200D01*
X-520700D01*
Y342900D01*
X-533400D01*
X-520700Y330200D01*
G01Y419100D02*
X-533400Y406400D01*
G01Y419100D02*
Y406400D01*
X-520700D01*
Y419100D01*
X-533400D01*
X-520700Y406400D01*
G01X-422700Y-99500D02*
Y-27500D01*
X-365700D01*
Y-99500D01*
X-422700D01*
G01Y52900D02*
Y124900D01*
X-365700D01*
Y52900D01*
X-422700D01*
G01X-381700Y312550D02*
Y360550D01*
X-405700D01*
Y312550D01*
X-381700D01*
G01Y376050D02*
Y424050D01*
X-405700D01*
Y376050D01*
X-381700D01*
G01X-441000Y885550D02*
Y930550D01*
X-321000D01*
Y885550D01*
X-441000D01*
G01X-446790Y908050D02*
X-441000D01*
G01X-464100Y1087350D02*
X-374100D01*
Y957350D01*
X-464100D01*
Y1087350D01*
G01X-441000Y1152250D02*
Y1197250D01*
X-321000D01*
Y1152250D01*
X-441000D01*
G01X-446790Y1174750D02*
X-441000D01*
G01X-464100Y1354050D02*
X-374100D01*
Y1224050D01*
X-464100D01*
Y1354050D01*
G01X-405700Y1814700D02*
Y1766700D01*
X-381700D01*
Y1814700D01*
X-405700D01*
G01X-397300Y2016550D02*
Y1958550D01*
X-339300D01*
Y2016550D01*
X-397300D01*
G01X-339300Y1964550D02*
X-397300D01*
G01X-339300Y1962550D02*
X-397300D01*
G01X-339300Y1960550D02*
X-397300D01*
G01X-339300Y2014550D02*
X-397300D01*
G01X-339300Y2012550D02*
X-397300D01*
G01X-339300Y2010550D02*
X-397300D01*
G01X-339300Y2008550D02*
X-397300D01*
G01X-339300Y2006550D02*
X-397300D01*
G01X-339300Y2004550D02*
X-397300D01*
G01X-339300Y2002550D02*
X-397300D01*
G01X-339300Y2000550D02*
X-397300D01*
G01X-339300Y1998550D02*
X-397300D01*
G01X-339300Y1996550D02*
X-397300D01*
G01X-339300Y1994550D02*
X-397300D01*
G01X-339300Y1992550D02*
X-397300D01*
G01X-339300Y1990550D02*
X-397300D01*
G01X-339300Y1988550D02*
X-397300D01*
G01X-339300Y1986550D02*
X-397300D01*
G01X-339300Y1984550D02*
X-397300D01*
G01X-339300Y1982550D02*
X-397300D01*
G01X-339300Y1980550D02*
X-397300D01*
G01X-339300Y1978550D02*
X-397300D01*
G01X-339300Y1976550D02*
X-397300D01*
G01X-339300Y1974550D02*
X-397300D01*
G01X-339300Y1972550D02*
X-397300D01*
G01X-339300Y1970550D02*
X-397300D01*
G01X-339300Y1968550D02*
X-397300D01*
G01X-339300Y1966550D02*
X-397300D01*
G01X-357300Y311550D02*
Y361550D01*
X-379300D01*
Y311550D01*
X-357300D01*
G01X-368300Y363550D02*
Y373550D01*
G01X-324600Y389100D02*
Y449100D01*
X-259600D01*
Y389100D01*
X-324600D01*
G01X-357300Y375050D02*
Y425050D01*
X-379300D01*
Y375050D01*
X-357300D01*
G01X-373300Y432050D02*
X-363300D01*
G01X-368300Y427050D02*
Y437050D01*
G01X-373300Y368550D02*
X-363300D01*
G01X-340850Y459800D02*
Y530800D01*
X-305850D01*
Y459800D01*
X-340850D01*
G01X-357300Y483000D02*
Y533000D01*
X-379300D01*
Y483000D01*
X-357300D01*
G01X-340850Y586800D02*
Y657800D01*
X-305850D01*
Y586800D01*
X-340850D01*
G01X-373300Y540000D02*
X-363300D01*
G01X-368300Y535000D02*
Y545000D01*
G01X-335850Y534800D02*
X-311850D01*
Y582800D01*
X-335850D01*
Y534800D01*
G01Y661800D02*
X-311850D01*
Y709800D01*
X-335850D01*
Y661800D01*
G01X-321000Y908050D02*
X-315210D01*
G01X-247100Y957350D02*
X-337100D01*
Y1087350D01*
X-247100D01*
Y957350D01*
G01X-321000Y1174750D02*
X-315210D01*
G01X-247100Y1224050D02*
X-337100D01*
Y1354050D01*
X-247100D01*
Y1224050D01*
G01X-335850Y1512700D02*
X-311850D01*
Y1560700D01*
X-335850D01*
Y1512700D01*
G01Y1639700D02*
X-311850D01*
Y1687700D01*
X-335850D01*
Y1639700D01*
G01X-331900Y1765700D02*
Y1815700D01*
X-353900D01*
Y1765700D01*
X-331900D01*
G01X-380300Y1814700D02*
Y1766700D01*
X-356300D01*
Y1814700D01*
X-380300D01*
G01X-318150Y1787700D02*
Y1793700D01*
G01X-347900Y1822700D02*
X-337900D01*
G01X-342900Y1817700D02*
Y1827700D01*
G01X-254700Y-87500D02*
Y-39500D01*
X-278700D01*
Y-87500D01*
X-254700D01*
G01X-280100D02*
Y-39500D01*
X-304100D01*
Y-87500D01*
X-280100D01*
G01X-254700Y64900D02*
Y112900D01*
X-278700D01*
Y64900D01*
X-254700D01*
G01X-280100D02*
Y112900D01*
X-304100D01*
Y64900D01*
X-280100D01*
G01X-291400Y471300D02*
X-267400D01*
Y519300D01*
X-291400D01*
Y471300D01*
G01X-296400Y523300D02*
Y594300D01*
X-261400D01*
Y523300D01*
X-296400D01*
G01Y650300D02*
Y721300D01*
X-261400D01*
Y650300D01*
X-296400D01*
G01X-291400Y598300D02*
X-267400D01*
Y646300D01*
X-291400D01*
Y598300D01*
G01X-296400Y1501200D02*
Y1572200D01*
X-261400D01*
Y1501200D01*
X-296400D01*
G01Y1628200D02*
Y1699200D01*
X-261400D01*
Y1628200D01*
X-296400D01*
G01X-121850Y1804500D02*
X-271850D01*
Y1879500D01*
X-121850D01*
Y1804500D01*
G01X-313150Y1805700D02*
X-304150D01*
Y1797700D01*
G01Y1783700D02*
Y1775700D01*
X-313150D01*
G01X-287450Y1816500D02*
Y1866500D01*
X-309450D01*
Y1816500D01*
X-287450D01*
G01X-303450Y1873500D02*
X-293450D01*
G01X-298450Y1868500D02*
Y1878500D01*
G01X-214040Y-118790D02*
G03X-209550Y-107950I-10840J10840D01*
G01X-223000Y-93500D02*
Y-33500D01*
X-158000D01*
Y-93500D01*
X-223000D01*
G01Y58900D02*
Y118900D01*
X-158000D01*
Y58900D01*
X-223000D01*
G01X-222250Y133350D02*
G03X-226740Y144190I-15330J0D01*
G01X-228600Y146050D01*
G01X-169380Y214800D02*
X-181050D01*
Y394800D01*
X-169380D01*
G01X-212400Y472800D02*
Y517800D01*
X-92400D01*
Y472800D01*
X-212400D01*
G01X-218190Y495300D02*
X-212400D01*
G01Y536300D02*
Y581300D01*
X-92400D01*
Y536300D01*
X-212400D01*
G01X-218190Y558800D02*
X-212400D01*
G01Y599800D02*
Y644800D01*
X-92400D01*
Y599800D01*
X-212400D01*
G01X-218190Y622300D02*
X-212400D01*
G01Y663300D02*
Y708300D01*
X-92400D01*
Y663300D01*
X-212400D01*
G01X-218190Y685800D02*
X-212400D01*
G01X-169380Y868850D02*
X-181050D01*
Y1048850D01*
X-169380D01*
G01Y1065700D02*
X-181050D01*
Y1245700D01*
X-169380D01*
G01Y1442550D02*
X-181050D01*
Y1262550D01*
X-169380D01*
G01X-212400Y1482450D02*
Y1527450D01*
X-92400D01*
Y1482450D01*
X-212400D01*
G01X-218190Y1504950D02*
X-212400D01*
G01Y1545950D02*
Y1590950D01*
X-92400D01*
Y1545950D01*
X-212400D01*
G01X-218190Y1568450D02*
X-212400D01*
G01Y1609450D02*
Y1654450D01*
X-92400D01*
Y1609450D01*
X-212400D01*
G01X-218190Y1631950D02*
X-212400D01*
G01Y1672950D02*
Y1717950D01*
X-92400D01*
Y1672950D01*
X-212400D01*
G01X-218190Y1695450D02*
X-212400D01*
G01X-122720Y214800D02*
X-111050D01*
Y394800D01*
X-122720D01*
G01X-92400Y495300D02*
X-86610D01*
G01X-92400Y558800D02*
X-86610D01*
G01X-92400Y622300D02*
X-86610D01*
G01X-92400Y685800D02*
X-86610D01*
G01X-122720Y868850D02*
X-111050D01*
Y1048850D01*
X-122720D01*
G01Y1065700D02*
X-111050D01*
Y1245700D01*
X-122720D01*
G01Y1442550D02*
X-111050D01*
Y1262550D01*
X-122720D01*
G01X-92400Y1504950D02*
X-86610D01*
G01X-92400Y1568450D02*
X-86610D01*
G01X-92400Y1631950D02*
X-86610D01*
G01X-92400Y1695450D02*
X-86610D01*
G01X100000Y-41000D02*
X-20000D01*
Y803000D01*
X100000D01*
Y-41000D01*
G01X-78500Y3400D02*
X-81500D01*
Y47400D01*
X-78500D01*
G01X-48510Y47350D02*
X-45510D01*
G01D02*
Y3350D01*
G01D02*
X-48510D01*
G01X-78500Y105000D02*
X-81500D01*
Y149000D01*
X-78500D01*
G01X-45510Y148950D02*
Y104950D01*
G01D02*
X-48510D01*
G01X-80500Y193100D02*
Y264100D01*
X-45500D01*
Y193100D01*
X-80500D01*
G01X-48510Y148950D02*
X-45510D01*
G01X-80500Y294700D02*
Y365700D01*
X-45500D01*
Y294700D01*
X-80500D01*
G01X-46500Y448250D02*
Y377250D01*
X-81500D01*
Y448250D01*
X-46500D01*
G01X-48500Y777650D02*
X-45500D01*
Y733650D01*
X-48500D01*
G01X-78490Y733700D02*
X-81490D01*
G01D02*
Y777700D01*
G01D02*
X-78490D01*
G01X100000Y1032150D02*
X-20000D01*
Y1876150D01*
X100000D01*
Y1032150D01*
G01X-46500Y1134050D02*
Y1063050D01*
X-81500D01*
Y1134050D01*
X-46500D01*
G01X-48500Y1222150D02*
X-45500D01*
Y1178150D01*
X-48500D01*
G01X-78490Y1178200D02*
X-81490D01*
G01D02*
Y1222200D01*
G01X-78500Y1260700D02*
X-81500D01*
Y1304700D01*
X-78500D01*
G01X-45510Y1304650D02*
Y1260650D01*
G01D02*
X-48510D01*
G01X-81490Y1222200D02*
X-78490D01*
G01X-48510Y1304650D02*
X-45510D01*
G01X-78500Y1349600D02*
X-81500D01*
Y1393600D01*
X-78500D01*
G01X-45510Y1393550D02*
Y1349550D01*
G01D02*
X-48510D01*
G01Y1393550D02*
X-45510D01*
G01X-84850Y1756000D02*
X-87850D01*
Y1800000D01*
X-84850D01*
G01X-54860Y1799950D02*
X-51860D01*
G01D02*
Y1755950D01*
G01D02*
X-54860D01*
G01X-84850Y1838550D02*
X-87850D01*
Y1882550D01*
X-84850D01*
G01X-54860Y1882500D02*
X-51860D01*
G01D02*
Y1838500D01*
G01D02*
X-54860D01*
G54D12*
G01X-789210Y-142240D02*
G03X-791210Y-140240I-2000J0D01*
G01D02*
G03X-793210Y-142240I0J-2000D01*
G01D02*
G03X-791210Y-144240I2000J0D01*
G01D02*
G03X-789210Y-142240I0J2000D01*
G01X-431500Y-23900D02*
G03I-2000J0D01*
G01Y128500D02*
G03I-2000J0D01*
G01X-257850Y1796100D02*
G03I-4000J0D01*
G01X-25000Y0D02*
G03I-3000J0D01*
G01Y1073150D02*
G03I-3000J0D01*
G54D13*
G01X-553400Y1004250D02*
G03I-2500J0D01*
G01Y1270950D02*
G03I-2500J0D01*
G01X-312100Y439100D02*
G03I-2500J0D01*
G01X-210500Y-43500D02*
G03I-2500J0D01*
G01Y108900D02*
G03I-2500J0D01*
G54D14*
G01X-857250Y-219710D02*
X-900430D01*
G01X-857250Y-186690D02*
Y-219710D01*
G01Y722630D02*
X-899160D01*
G01X-857250Y701040D02*
Y722630D01*
G54D15*
G01X-843100Y704850D02*
X-836350Y717550D01*
G01X-843100D02*
X-836350Y704850D01*
G01X-830310Y707390D02*
X-829350Y705910D01*
X-828060Y705060D01*
X-826610Y704850D01*
X-825330Y705060D01*
X-824040Y706120D01*
X-823240Y707390D01*
X-823080Y708660D01*
X-823400Y710140D01*
X-824520Y711200D01*
X-825650Y711620D01*
X-827100D01*
G01X-825650D02*
X-824680Y712260D01*
X-823880Y713320D01*
X-823560Y714590D01*
X-823880Y715860D01*
X-824680Y716910D01*
X-826130Y717550D01*
X-827580Y717340D01*
X-829030Y716490D01*
G01X-811030Y1045630D02*
X-810070Y1046900D01*
X-808940Y1047540D01*
X-807650Y1047750D01*
X-806040Y1047330D01*
X-804920Y1046270D01*
X-804600Y1045000D01*
X-804760Y1043730D01*
X-805400Y1042670D01*
X-808620Y1040550D01*
X-810070Y1039070D01*
X-811030Y1036950D01*
X-811350Y1035050D01*
X-804600D01*
G01X-793090D02*
Y1047750D01*
X-799050Y1038650D01*
X-791000D01*
G01X-780790Y1041820D02*
X-780140Y1042460D01*
X-779660Y1043520D01*
X-779340Y1045000D01*
X-779660Y1046270D01*
X-780310Y1047110D01*
X-781430Y1047750D01*
X-785770D01*
Y1035050D01*
X-780470D01*
X-779340Y1035900D01*
X-778700Y1037170D01*
X-778380Y1038650D01*
X-778700Y1040130D01*
X-779660Y1041400D01*
X-780790Y1041820D01*
X-785770D01*
G01X-820680Y1092200D02*
Y1104900D01*
X-822610Y1102360D01*
G01Y1092200D02*
X-818750D01*
G01X-807730D02*
Y1104900D01*
X-809660Y1102360D01*
G01Y1092200D02*
X-805800D01*
G01X-794780Y1104900D02*
X-796060Y1104480D01*
X-797030Y1103420D01*
X-797670Y1102150D01*
X-798150Y1100450D01*
X-798310Y1098550D01*
X-798150Y1096640D01*
X-797670Y1094950D01*
X-797030Y1093680D01*
X-796060Y1092620D01*
X-794780Y1092200D01*
X-793490Y1092620D01*
X-792520Y1093680D01*
X-791880Y1094950D01*
X-791400Y1096640D01*
X-791240Y1098550D01*
X-791400Y1100450D01*
X-791880Y1102150D01*
X-792520Y1103420D01*
X-793490Y1104480D01*
X-794780Y1104900D01*
G01X-780540Y1098970D02*
X-779890Y1099610D01*
X-779410Y1100670D01*
X-779090Y1102150D01*
X-779410Y1103420D01*
X-780060Y1104260D01*
X-781180Y1104900D01*
X-785520D01*
Y1092200D01*
X-780220D01*
X-779090Y1093050D01*
X-778450Y1094320D01*
X-778130Y1095800D01*
X-778450Y1097280D01*
X-779410Y1098550D01*
X-780540Y1098970D01*
X-785520D01*
G01X-823730Y1159930D02*
X-822770Y1161200D01*
X-821640Y1161840D01*
X-820350Y1162050D01*
X-818740Y1161630D01*
X-817620Y1160570D01*
X-817300Y1159300D01*
X-817460Y1158030D01*
X-818100Y1156970D01*
X-821320Y1154850D01*
X-822770Y1153370D01*
X-823730Y1151250D01*
X-824050Y1149350D01*
X-817300D01*
G01X-810780Y1159930D02*
X-809820Y1161200D01*
X-808690Y1161840D01*
X-807400Y1162050D01*
X-805790Y1161630D01*
X-804670Y1160570D01*
X-804350Y1159300D01*
X-804510Y1158030D01*
X-805150Y1156970D01*
X-808370Y1154850D01*
X-809820Y1153370D01*
X-810780Y1151250D01*
X-811100Y1149350D01*
X-804350D01*
G01X-794780Y1162050D02*
X-796060Y1161630D01*
X-797030Y1160570D01*
X-797670Y1159300D01*
X-798150Y1157600D01*
X-798310Y1155700D01*
X-798150Y1153790D01*
X-797670Y1152100D01*
X-797030Y1150830D01*
X-796060Y1149770D01*
X-794780Y1149350D01*
X-793490Y1149770D01*
X-792520Y1150830D01*
X-791880Y1152100D01*
X-791400Y1153790D01*
X-791240Y1155700D01*
X-791400Y1157600D01*
X-791880Y1159300D01*
X-792520Y1160570D01*
X-793490Y1161630D01*
X-794780Y1162050D01*
G01X-780540Y1156120D02*
X-779890Y1156760D01*
X-779410Y1157820D01*
X-779090Y1159300D01*
X-779410Y1160570D01*
X-780060Y1161410D01*
X-781180Y1162050D01*
X-785520D01*
Y1149350D01*
X-780220D01*
X-779090Y1150200D01*
X-778450Y1151470D01*
X-778130Y1152950D01*
X-778450Y1154430D01*
X-779410Y1155700D01*
X-780540Y1156120D01*
X-785520D01*
G01X-702840Y49740D02*
X-703800Y50380D01*
X-704930Y50800D01*
X-706210D01*
X-707660Y50160D01*
X-708790Y49110D01*
X-709590Y47840D01*
X-710240Y45720D01*
X-710400Y43810D01*
X-710070Y41910D01*
X-709590Y40640D01*
X-708630Y39370D01*
X-707500Y38520D01*
X-706380Y38100D01*
X-705250D01*
X-704120Y38520D01*
X-703160Y39160D01*
X-702350Y40000D01*
G01X-696800Y34290D02*
X-695840Y33870D01*
X-694550Y34290D01*
X-693750Y35140D01*
X-693100Y36200D01*
X-692140Y39580D01*
X-690050Y46570D01*
G01X-695190D02*
X-692140Y39580D01*
G01X-682890Y46570D02*
X-678060Y38100D01*
G01Y46570D02*
X-682890Y38100D01*
G01X-667530Y37680D02*
X-667850Y37890D01*
Y38310D01*
X-667530Y38520D01*
X-667200Y38310D01*
Y37890D01*
X-667530Y37680D01*
G01X-658110Y38100D02*
Y50800D01*
G01X-652000D02*
X-658110Y42970D01*
G01X-651040Y38100D02*
X-655380Y46570D01*
G01X-641630Y38100D02*
X-642910Y38310D01*
X-644040Y39160D01*
X-645000Y40430D01*
X-645650Y41910D01*
X-645970Y43600D01*
Y45300D01*
X-645650Y46990D01*
X-645000Y48470D01*
X-644040Y49740D01*
X-642910Y50590D01*
X-641630Y50800D01*
X-640340Y50590D01*
X-639210Y49740D01*
X-638250Y48470D01*
X-637600Y46990D01*
X-637280Y45300D01*
Y43600D01*
X-637600Y41910D01*
X-638250Y40430D01*
X-639210Y39160D01*
X-640340Y38310D01*
X-641630Y38100D01*
G01X-632050D02*
Y50800D01*
G01X-625300D02*
Y38100D01*
G01Y44450D02*
X-632050D01*
G01X-615730Y50800D02*
Y38100D01*
G01X-619420Y50800D02*
X-612030D01*
G01X-606800Y38100D02*
X-602780Y50800D01*
X-598750Y38100D01*
G01X-600200Y42540D02*
X-605350D01*
G01X-593360Y38100D02*
Y50800D01*
G01X-587250D02*
X-593360Y42970D01*
G01X-586290Y38100D02*
X-590630Y46570D01*
G01X-576880Y50800D02*
Y38100D01*
G01X-580570Y50800D02*
X-573180D01*
G01X-734590Y195790D02*
X-735550Y196430D01*
X-736680Y196850D01*
X-737960D01*
X-739410Y196210D01*
X-740540Y195160D01*
X-741340Y193890D01*
X-741990Y191770D01*
X-742150Y189860D01*
X-741820Y187960D01*
X-741340Y186690D01*
X-740380Y185420D01*
X-739250Y184570D01*
X-738130Y184150D01*
X-737000D01*
X-735870Y184570D01*
X-734910Y185210D01*
X-734100Y186050D01*
G01X-725180Y184150D02*
Y196850D01*
X-727110Y194310D01*
G01Y184150D02*
X-723250D01*
G01X-715280Y194730D02*
X-714320Y196000D01*
X-713190Y196640D01*
X-711900Y196850D01*
X-710290Y196430D01*
X-709170Y195370D01*
X-708850Y194100D01*
X-709010Y192830D01*
X-709650Y191770D01*
X-712870Y189650D01*
X-714320Y188170D01*
X-715280Y186050D01*
X-715600Y184150D01*
X-708850D01*
G01X-738130Y457200D02*
X-739410Y457410D01*
X-740540Y458260D01*
X-741500Y459530D01*
X-742150Y461010D01*
X-742470Y462700D01*
Y464400D01*
X-742150Y466090D01*
X-741500Y467570D01*
X-740540Y468840D01*
X-739410Y469690D01*
X-738130Y469900D01*
X-736840Y469690D01*
X-735710Y468840D01*
X-734750Y467570D01*
X-734100Y466090D01*
X-733780Y464400D01*
Y462700D01*
X-734100Y461010D01*
X-734750Y459530D01*
X-735710Y458260D01*
X-736840Y457410D01*
X-738130Y457200D01*
G01X-728070Y452970D02*
Y465670D01*
G01Y463760D02*
X-727270Y464820D01*
X-726460Y465450D01*
X-725180Y465670D01*
X-724050Y465450D01*
X-722920Y464400D01*
X-722440Y462910D01*
X-722280Y461430D01*
X-722440Y459950D01*
X-722920Y458470D01*
X-723890Y457620D01*
X-725180Y457200D01*
X-726300Y457410D01*
X-727430Y458050D01*
X-728070Y458890D01*
G01X-714640Y462910D02*
X-709490D01*
X-709970Y464400D01*
X-710780Y465240D01*
X-711900Y465670D01*
X-713030Y465450D01*
X-713990Y464820D01*
X-714640Y463340D01*
X-714960Y462070D01*
Y460800D01*
X-714640Y459530D01*
X-713830Y458260D01*
X-712870Y457410D01*
X-711740Y457200D01*
X-710620Y457620D01*
X-709490Y458890D01*
G01X-702010Y457200D02*
Y465670D01*
G01Y463550D02*
X-701370Y464610D01*
X-700400Y465450D01*
X-699110Y465670D01*
X-697990Y465450D01*
X-697020Y464610D01*
X-696540Y463130D01*
Y457200D01*
G01X-670800Y464610D02*
X-671930Y465450D01*
X-672890Y465670D01*
X-674180Y465240D01*
X-675140Y464400D01*
X-675790Y462910D01*
X-675950Y461430D01*
X-675790Y459950D01*
X-675140Y458680D01*
X-674180Y457620D01*
X-672890Y457200D01*
X-671770Y457620D01*
X-670800Y458470D01*
G01X-660430Y457200D02*
X-661390Y457410D01*
X-662360Y458260D01*
X-663000Y459740D01*
X-663320Y461430D01*
X-663000Y463130D01*
X-662360Y464610D01*
X-661390Y465450D01*
X-660430Y465670D01*
X-659460Y465450D01*
X-658490Y464610D01*
X-657850Y463130D01*
X-657690Y461430D01*
X-657850Y459740D01*
X-658490Y458260D01*
X-659460Y457410D01*
X-660430Y457200D01*
G01X-647480D02*
Y469900D01*
G01X-634530Y457200D02*
Y469900D01*
G01X-623990Y462910D02*
X-618840D01*
X-619320Y464400D01*
X-620130Y465240D01*
X-621250Y465670D01*
X-622380Y465450D01*
X-623340Y464820D01*
X-623990Y463340D01*
X-624310Y462070D01*
Y460800D01*
X-623990Y459530D01*
X-623180Y458260D01*
X-622220Y457410D01*
X-621090Y457200D01*
X-619970Y457620D01*
X-618840Y458890D01*
G01X-606050Y464610D02*
X-607180Y465450D01*
X-608140Y465670D01*
X-609430Y465240D01*
X-610390Y464400D01*
X-611040Y462910D01*
X-611200Y461430D01*
X-611040Y459950D01*
X-610390Y458680D01*
X-609430Y457620D01*
X-608140Y457200D01*
X-607020Y457620D01*
X-606050Y458470D01*
G01X-595680Y469900D02*
Y457200D01*
G01X-597930Y465670D02*
X-593420D01*
G01X-582730Y457200D02*
X-583690Y457410D01*
X-584660Y458260D01*
X-585300Y459740D01*
X-585620Y461430D01*
X-585300Y463130D01*
X-584660Y464610D01*
X-583690Y465450D01*
X-582730Y465670D01*
X-581760Y465450D01*
X-580790Y464610D01*
X-580150Y463130D01*
X-579990Y461430D01*
X-580150Y459740D01*
X-580790Y458260D01*
X-581760Y457410D01*
X-582730Y457200D01*
G01X-572030D02*
Y465670D01*
G01Y463970D02*
X-571220Y464820D01*
X-570420Y465450D01*
X-569290Y465670D01*
X-568490Y465450D01*
X-567520Y464820D01*
G01X-682930Y952500D02*
Y965200D01*
X-678910D01*
X-677620Y964560D01*
X-676820Y963720D01*
X-676500Y962020D01*
X-676820Y960330D01*
X-677780Y959270D01*
X-678910Y958640D01*
X-682930D01*
G01X-678910D02*
X-676500Y952500D01*
G01X-669820Y963080D02*
X-668860Y964350D01*
X-667730Y964990D01*
X-666440Y965200D01*
X-664830Y964780D01*
X-663710Y963720D01*
X-663390Y962450D01*
X-663550Y961180D01*
X-664190Y960120D01*
X-667410Y958000D01*
X-668860Y956520D01*
X-669820Y954400D01*
X-670140Y952500D01*
X-663390D01*
G01X-657350Y954400D02*
X-656390Y953350D01*
X-655260Y952710D01*
X-653820Y952500D01*
X-652370Y952920D01*
X-651240Y953770D01*
X-650440Y955250D01*
X-650280Y956940D01*
X-650600Y958640D01*
X-651400Y959700D01*
X-652530Y960540D01*
X-653650Y960750D01*
X-654780Y960540D01*
X-656230Y959700D01*
X-655750Y965200D01*
X-651400D01*
G01X-690140Y1065740D02*
X-691100Y1066380D01*
X-692230Y1066800D01*
X-693510D01*
X-694960Y1066160D01*
X-696090Y1065110D01*
X-696890Y1063840D01*
X-697540Y1061720D01*
X-697700Y1059810D01*
X-697370Y1057910D01*
X-696890Y1056640D01*
X-695930Y1055370D01*
X-694800Y1054520D01*
X-693680Y1054100D01*
X-692550D01*
X-691420Y1054520D01*
X-690460Y1055160D01*
X-689650Y1056000D01*
G01X-683780Y1064680D02*
X-682820Y1065950D01*
X-681690Y1066590D01*
X-680400Y1066800D01*
X-678790Y1066380D01*
X-677670Y1065320D01*
X-677350Y1064050D01*
X-677510Y1062780D01*
X-678150Y1061720D01*
X-681370Y1059600D01*
X-682820Y1058120D01*
X-683780Y1056000D01*
X-684100Y1054100D01*
X-677350D01*
G01X-682930Y1212850D02*
Y1225550D01*
X-678910D01*
X-677620Y1224910D01*
X-676820Y1224070D01*
X-676500Y1222370D01*
X-676820Y1220680D01*
X-677780Y1219620D01*
X-678910Y1218990D01*
X-682930D01*
G01X-678910D02*
X-676500Y1212850D01*
G01X-669820Y1223430D02*
X-668860Y1224700D01*
X-667730Y1225340D01*
X-666440Y1225550D01*
X-664830Y1225130D01*
X-663710Y1224070D01*
X-663390Y1222800D01*
X-663550Y1221530D01*
X-664190Y1220470D01*
X-667410Y1218350D01*
X-668860Y1216870D01*
X-669820Y1214750D01*
X-670140Y1212850D01*
X-663390D01*
G01X-651880D02*
Y1225550D01*
X-657840Y1216450D01*
X-649790D01*
G01X-690140Y1332440D02*
X-691100Y1333080D01*
X-692230Y1333500D01*
X-693510D01*
X-694960Y1332860D01*
X-696090Y1331810D01*
X-696890Y1330540D01*
X-697540Y1328420D01*
X-697700Y1326510D01*
X-697370Y1324610D01*
X-696890Y1323340D01*
X-695930Y1322070D01*
X-694800Y1321220D01*
X-693680Y1320800D01*
X-692550D01*
X-691420Y1321220D01*
X-690460Y1321860D01*
X-689650Y1322700D01*
G01X-680730Y1320800D02*
Y1333500D01*
X-682660Y1330960D01*
G01Y1320800D02*
X-678800D01*
G01X-645410Y1868900D02*
Y1881600D01*
X-642200D01*
X-640910Y1880960D01*
X-639940Y1880120D01*
X-639140Y1878850D01*
X-638500Y1877370D01*
X-638340Y1875250D01*
X-638500Y1873130D01*
X-639140Y1871650D01*
X-639940Y1870380D01*
X-640910Y1869530D01*
X-642200Y1868900D01*
X-645410D01*
G01X-625710D02*
X-632140D01*
Y1881600D01*
X-625710D01*
G01X-628280Y1875460D02*
X-632140D01*
G01X-612440Y1880540D02*
X-613400Y1881180D01*
X-614530Y1881600D01*
X-615810D01*
X-617260Y1880960D01*
X-618390Y1879910D01*
X-619190Y1878640D01*
X-619840Y1876520D01*
X-620000Y1874610D01*
X-619670Y1872710D01*
X-619190Y1871440D01*
X-618230Y1870170D01*
X-617100Y1869320D01*
X-615980Y1868900D01*
X-614850D01*
X-613720Y1869320D01*
X-612760Y1869960D01*
X-611950Y1870800D01*
G01X-599810Y1868900D02*
X-606240D01*
Y1881600D01*
X-599810D01*
G01X-602380Y1875460D02*
X-606240D01*
G01X-594260Y1868900D02*
Y1881600D01*
X-590080Y1871020D01*
X-585890Y1881600D01*
Y1868900D01*
G01X-575840Y1875670D02*
X-575190Y1876310D01*
X-574710Y1877370D01*
X-574390Y1878850D01*
X-574710Y1880120D01*
X-575360Y1880960D01*
X-576480Y1881600D01*
X-580820D01*
Y1868900D01*
X-575520D01*
X-574390Y1869750D01*
X-573750Y1871020D01*
X-573430Y1872500D01*
X-573750Y1873980D01*
X-574710Y1875250D01*
X-575840Y1875670D01*
X-580820D01*
G01X-560960Y1868900D02*
X-567390D01*
Y1881600D01*
X-560960D01*
G01X-563530Y1875460D02*
X-567390D01*
G01X-554440Y1868900D02*
Y1881600D01*
X-550420D01*
X-549130Y1880960D01*
X-548330Y1880120D01*
X-548010Y1878420D01*
X-548330Y1876730D01*
X-549290Y1875670D01*
X-550420Y1875040D01*
X-554440D01*
G01X-550420D02*
X-548010Y1868900D01*
G01X-543100Y1864670D02*
X-533450D01*
G01X-528380Y1879480D02*
X-527420Y1880750D01*
X-526290Y1881390D01*
X-525000Y1881600D01*
X-523390Y1881180D01*
X-522270Y1880120D01*
X-521950Y1878850D01*
X-522110Y1877580D01*
X-522750Y1876520D01*
X-525970Y1874400D01*
X-527420Y1872920D01*
X-528380Y1870800D01*
X-528700Y1868900D01*
X-521950D01*
G01X-515910Y1870800D02*
X-514950Y1869750D01*
X-513820Y1869110D01*
X-512380Y1868900D01*
X-510930Y1869320D01*
X-509800Y1870170D01*
X-509000Y1871650D01*
X-508840Y1873340D01*
X-509160Y1875040D01*
X-509960Y1876100D01*
X-511090Y1876940D01*
X-512210Y1877150D01*
X-513340Y1876940D01*
X-514790Y1876100D01*
X-514310Y1881600D01*
X-509960D01*
G01X-645410Y1896840D02*
X-644450Y1895360D01*
X-643160Y1894510D01*
X-641710Y1894300D01*
X-640430Y1894510D01*
X-639140Y1895570D01*
X-638340Y1896840D01*
X-638180Y1898110D01*
X-638500Y1899590D01*
X-639620Y1900650D01*
X-640750Y1901070D01*
X-642200D01*
G01X-640750D02*
X-639780Y1901710D01*
X-638980Y1902770D01*
X-638660Y1904040D01*
X-638980Y1905310D01*
X-639780Y1906360D01*
X-641230Y1907000D01*
X-642680Y1906790D01*
X-644130Y1905940D01*
G01X-628930Y1893880D02*
X-629250Y1894090D01*
Y1894510D01*
X-628930Y1894720D01*
X-628600Y1894510D01*
Y1894090D01*
X-628930Y1893880D01*
G01X-615980Y1894300D02*
Y1907000D01*
X-617910Y1904460D01*
G01Y1894300D02*
X-614050D01*
G01X-601090D02*
Y1907000D01*
X-607050Y1897900D01*
X-599000D01*
G01X-590080Y1907000D02*
X-591360Y1906580D01*
X-592330Y1905520D01*
X-592970Y1904250D01*
X-593450Y1902550D01*
X-593610Y1900650D01*
X-593450Y1898740D01*
X-592970Y1897050D01*
X-592330Y1895780D01*
X-591360Y1894720D01*
X-590080Y1894300D01*
X-588790Y1894720D01*
X-587820Y1895780D01*
X-587180Y1897050D01*
X-586700Y1898740D01*
X-586540Y1900650D01*
X-586700Y1902550D01*
X-587180Y1904250D01*
X-587820Y1905520D01*
X-588790Y1906580D01*
X-590080Y1907000D01*
G01X-577130Y1893880D02*
X-577450Y1894090D01*
Y1894510D01*
X-577130Y1894720D01*
X-576800Y1894510D01*
Y1894090D01*
X-577130Y1893880D01*
G01X-567550Y1894300D02*
X-560800Y1907000D01*
G01X-567550D02*
X-560800Y1894300D01*
G01X-554600D02*
X-547850Y1907000D01*
G01X-554600D02*
X-547850Y1894300D01*
G01X-541650D02*
X-534900Y1907000D01*
G01X-541650D02*
X-534900Y1894300D01*
G01X-645410Y1919700D02*
Y1932400D01*
G01X-639300D02*
X-645410Y1924570D01*
G01X-638340Y1919700D02*
X-642680Y1928170D01*
G01X-632300Y1921390D02*
X-631020Y1920330D01*
X-629570Y1919700D01*
X-628280D01*
X-626990Y1920330D01*
X-626030Y1921390D01*
X-625550Y1922880D01*
X-625870Y1924360D01*
X-626670Y1925630D01*
X-628120Y1926470D01*
X-630050Y1926900D01*
X-631180Y1927740D01*
X-631660Y1929220D01*
X-631340Y1930710D01*
X-630530Y1931760D01*
X-629410Y1932400D01*
X-628280D01*
X-627160Y1931980D01*
X-626190Y1930920D01*
G01X-619030Y1932400D02*
X-612920D01*
X-619030Y1919700D01*
X-612920D01*
G01X-607850Y1915470D02*
X-598200D01*
G01X-590080Y1932400D02*
X-591360Y1931980D01*
X-592330Y1930920D01*
X-592970Y1929650D01*
X-593450Y1927950D01*
X-593610Y1926050D01*
X-593450Y1924140D01*
X-592970Y1922450D01*
X-592330Y1921180D01*
X-591360Y1920120D01*
X-590080Y1919700D01*
X-588790Y1920120D01*
X-587820Y1921180D01*
X-587180Y1922450D01*
X-586700Y1924140D01*
X-586540Y1926050D01*
X-586700Y1927950D01*
X-587180Y1929650D01*
X-587820Y1930920D01*
X-588790Y1931980D01*
X-590080Y1932400D01*
G01X-580180Y1930280D02*
X-579220Y1931550D01*
X-578090Y1932190D01*
X-576800Y1932400D01*
X-575190Y1931980D01*
X-574070Y1930920D01*
X-573750Y1929650D01*
X-573910Y1928380D01*
X-574550Y1927320D01*
X-577770Y1925200D01*
X-579220Y1923720D01*
X-580180Y1921600D01*
X-580500Y1919700D01*
X-573750D01*
G01X-568200Y1932400D02*
X-564180Y1919700D01*
X-560150Y1932400D01*
G01X-549290Y1919700D02*
Y1932400D01*
X-555250Y1923300D01*
X-547200D01*
G01X-588780Y-13760D02*
X-587660Y-12280D01*
X-586690Y-11430D01*
X-585400Y-11010D01*
X-584280Y-11430D01*
X-583470Y-12280D01*
X-582830Y-13550D01*
X-582670Y-15030D01*
X-582830Y-16300D01*
X-583470Y-17570D01*
X-584440Y-18630D01*
X-585560Y-19050D01*
X-586850Y-18630D01*
X-587980Y-17360D01*
X-588620Y-15450D01*
X-588780Y-13340D01*
X-588460Y-10580D01*
X-587980Y-9100D01*
X-587170Y-7620D01*
X-586050Y-6560D01*
X-584920Y-6350D01*
X-583790Y-6770D01*
X-582990Y-7830D01*
G01X-571490Y-12280D02*
X-570840Y-11640D01*
X-570360Y-10580D01*
X-570040Y-9100D01*
X-570360Y-7830D01*
X-571010Y-6990D01*
X-572130Y-6350D01*
X-576470D01*
Y-19050D01*
X-571170D01*
X-570040Y-18200D01*
X-569400Y-16930D01*
X-569080Y-15450D01*
X-569400Y-13970D01*
X-570360Y-12700D01*
X-571490Y-12280D01*
X-576470D01*
G01X-601480Y347130D02*
X-600520Y348400D01*
X-599390Y349040D01*
X-598100Y349250D01*
X-596490Y348830D01*
X-595370Y347770D01*
X-595050Y346500D01*
X-595210Y345230D01*
X-595850Y344170D01*
X-599070Y342050D01*
X-600520Y340570D01*
X-601480Y338450D01*
X-601800Y336550D01*
X-595050D01*
G01X-583540D02*
Y349250D01*
X-589500Y340150D01*
X-581450D01*
G01X-571240Y343320D02*
X-570590Y343960D01*
X-570110Y345020D01*
X-569790Y346500D01*
X-570110Y347770D01*
X-570760Y348610D01*
X-571880Y349250D01*
X-576220D01*
Y336550D01*
X-570920D01*
X-569790Y337400D01*
X-569150Y338670D01*
X-568830Y340150D01*
X-569150Y341630D01*
X-570110Y342900D01*
X-571240Y343320D01*
X-576220D01*
G01X-598430Y400050D02*
Y412750D01*
X-600360Y410210D01*
G01Y400050D02*
X-596500D01*
G01X-589010Y401950D02*
X-588050Y400900D01*
X-586920Y400260D01*
X-585480Y400050D01*
X-584030Y400470D01*
X-582900Y401320D01*
X-582100Y402800D01*
X-581940Y404490D01*
X-582260Y406190D01*
X-583060Y407250D01*
X-584190Y408090D01*
X-585310Y408300D01*
X-586440Y408090D01*
X-587890Y407250D01*
X-587410Y412750D01*
X-583060D01*
G01X-571240Y406820D02*
X-570590Y407460D01*
X-570110Y408520D01*
X-569790Y410000D01*
X-570110Y411270D01*
X-570760Y412110D01*
X-571880Y412750D01*
X-576220D01*
Y400050D01*
X-570920D01*
X-569790Y400900D01*
X-569150Y402170D01*
X-568830Y403650D01*
X-569150Y405130D01*
X-570110Y406400D01*
X-571240Y406820D01*
X-576220D01*
G01X-556850Y1123950D02*
X-552830Y1111250D01*
X-548800Y1123950D01*
G01X-543410Y1111250D02*
Y1123950D01*
X-540200D01*
X-538910Y1123310D01*
X-537940Y1122470D01*
X-537140Y1121200D01*
X-536500Y1119720D01*
X-536340Y1117600D01*
X-536500Y1115480D01*
X-537140Y1114000D01*
X-537940Y1112730D01*
X-538910Y1111880D01*
X-540200Y1111250D01*
X-543410D01*
G01X-526930D02*
Y1123950D01*
X-528860Y1121410D01*
G01Y1111250D02*
X-525000D01*
G01X-517030Y1116540D02*
X-515910Y1118020D01*
X-514940Y1118870D01*
X-513650Y1119290D01*
X-512530Y1118870D01*
X-511720Y1118020D01*
X-511080Y1116750D01*
X-510920Y1115270D01*
X-511080Y1114000D01*
X-511720Y1112730D01*
X-512690Y1111670D01*
X-513810Y1111250D01*
X-515100Y1111670D01*
X-516230Y1112940D01*
X-516870Y1114850D01*
X-517030Y1116960D01*
X-516710Y1119720D01*
X-516230Y1121200D01*
X-515420Y1122680D01*
X-514300Y1123740D01*
X-513170Y1123950D01*
X-512040Y1123530D01*
X-511240Y1122470D01*
G01X-556850Y1390650D02*
X-552830Y1377950D01*
X-548800Y1390650D01*
G01X-543410Y1377950D02*
Y1390650D01*
X-540200D01*
X-538910Y1390010D01*
X-537940Y1389170D01*
X-537140Y1387900D01*
X-536500Y1386420D01*
X-536340Y1384300D01*
X-536500Y1382180D01*
X-537140Y1380700D01*
X-537940Y1379430D01*
X-538910Y1378580D01*
X-540200Y1377950D01*
X-543410D01*
G01X-526930D02*
Y1390650D01*
X-528860Y1388110D01*
G01Y1377950D02*
X-525000D01*
G01X-517510Y1379850D02*
X-516550Y1378800D01*
X-515420Y1378160D01*
X-513980Y1377950D01*
X-512530Y1378370D01*
X-511400Y1379220D01*
X-510600Y1380700D01*
X-510440Y1382390D01*
X-510760Y1384090D01*
X-511560Y1385150D01*
X-512690Y1385990D01*
X-513810Y1386200D01*
X-514940Y1385990D01*
X-516390Y1385150D01*
X-515910Y1390650D01*
X-511560D01*
G01X-536880Y-88900D02*
Y-76200D01*
X-532860D01*
X-531570Y-76840D01*
X-530770Y-77680D01*
X-530450Y-79380D01*
X-530770Y-81070D01*
X-531730Y-82130D01*
X-532860Y-82760D01*
X-536880D01*
G01X-532860D02*
X-530450Y-88900D01*
G01X-520720D02*
Y-76200D01*
X-522650Y-78740D01*
G01Y-88900D02*
X-518790D01*
G01X-505830D02*
Y-76200D01*
X-511790Y-85300D01*
X-503740D01*
G01X-486940Y119590D02*
X-487900Y120230D01*
X-489030Y120650D01*
X-490310D01*
X-491760Y120010D01*
X-492890Y118960D01*
X-493690Y117690D01*
X-494340Y115570D01*
X-494500Y113660D01*
X-494170Y111760D01*
X-493690Y110490D01*
X-492730Y109220D01*
X-491600Y108370D01*
X-490480Y107950D01*
X-489350D01*
X-488220Y108370D01*
X-487260Y109010D01*
X-486450Y109850D01*
G01X-477530Y107950D02*
Y120650D01*
X-479460Y118110D01*
G01Y107950D02*
X-475600D01*
G01X-468110Y110490D02*
X-467150Y109010D01*
X-465860Y108160D01*
X-464410Y107950D01*
X-463130Y108160D01*
X-461840Y109220D01*
X-461040Y110490D01*
X-460880Y111760D01*
X-461200Y113240D01*
X-462320Y114300D01*
X-463450Y114720D01*
X-464900D01*
G01X-463450D02*
X-462480Y115360D01*
X-461680Y116420D01*
X-461360Y117690D01*
X-461680Y118960D01*
X-462480Y120010D01*
X-463930Y120650D01*
X-465380Y120440D01*
X-466830Y119590D01*
G01X-543250Y935140D02*
X-541970Y934080D01*
X-540520Y933450D01*
X-539230D01*
X-537940Y934080D01*
X-536980Y935140D01*
X-536500Y936630D01*
X-536820Y938110D01*
X-537620Y939380D01*
X-539070Y940220D01*
X-541000Y940650D01*
X-542130Y941490D01*
X-542610Y942970D01*
X-542290Y944460D01*
X-541480Y945510D01*
X-540360Y946150D01*
X-539230D01*
X-538110Y945730D01*
X-537140Y944670D01*
G01X-529980Y944030D02*
X-529020Y945300D01*
X-527890Y945940D01*
X-526600Y946150D01*
X-524990Y945730D01*
X-523870Y944670D01*
X-523550Y943400D01*
X-523710Y942130D01*
X-524350Y941070D01*
X-527570Y938950D01*
X-529020Y937470D01*
X-529980Y935350D01*
X-530300Y933450D01*
X-523550D01*
G01X-543250Y1201840D02*
X-541970Y1200780D01*
X-540520Y1200150D01*
X-539230D01*
X-537940Y1200780D01*
X-536980Y1201840D01*
X-536500Y1203330D01*
X-536820Y1204810D01*
X-537620Y1206080D01*
X-539070Y1206920D01*
X-541000Y1207350D01*
X-542130Y1208190D01*
X-542610Y1209670D01*
X-542290Y1211160D01*
X-541480Y1212210D01*
X-540360Y1212850D01*
X-539230D01*
X-538110Y1212430D01*
X-537140Y1211370D01*
G01X-526930Y1200150D02*
Y1212850D01*
X-528860Y1210310D01*
G01Y1200150D02*
X-525000D01*
G01X-409690Y-22500D02*
X-405670Y-9800D01*
X-401640Y-22500D01*
G01X-403090Y-18060D02*
X-408240D01*
G01X-396740Y-9800D02*
X-392720Y-22500D01*
X-388690Y-9800D01*
G01X-382820Y-11920D02*
X-381860Y-10650D01*
X-380730Y-10010D01*
X-379440Y-9800D01*
X-377830Y-10220D01*
X-376710Y-11280D01*
X-376390Y-12550D01*
X-376550Y-13820D01*
X-377190Y-14880D01*
X-380410Y-17000D01*
X-381860Y-18480D01*
X-382820Y-20600D01*
X-383140Y-22500D01*
X-376390D01*
G01X-460680Y19050D02*
Y31750D01*
X-456660D01*
X-455370Y31110D01*
X-454570Y30270D01*
X-454250Y28570D01*
X-454570Y26880D01*
X-455530Y25820D01*
X-456660Y25190D01*
X-460680D01*
G01X-456660D02*
X-454250Y19050D01*
G01X-444520D02*
Y31750D01*
X-446450Y29210D01*
G01Y19050D02*
X-442590D01*
G01X-435100Y21590D02*
X-434140Y20110D01*
X-432850Y19260D01*
X-431400Y19050D01*
X-430120Y19260D01*
X-428830Y20320D01*
X-428030Y21590D01*
X-427870Y22860D01*
X-428190Y24340D01*
X-429310Y25400D01*
X-430440Y25820D01*
X-431890D01*
G01X-430440D02*
X-429470Y26460D01*
X-428670Y27520D01*
X-428350Y28790D01*
X-428670Y30060D01*
X-429470Y31110D01*
X-430920Y31750D01*
X-432370Y31540D01*
X-433820Y30690D01*
G01X-409690Y129900D02*
X-405670Y142600D01*
X-401640Y129900D01*
G01X-403090Y134340D02*
X-408240D01*
G01X-396740Y142600D02*
X-392720Y129900D01*
X-388690Y142600D01*
G01X-379770Y129900D02*
Y142600D01*
X-381700Y140060D01*
G01Y129900D02*
X-377840D01*
G01X-447980Y330200D02*
Y342900D01*
X-443960D01*
X-442670Y342260D01*
X-441870Y341420D01*
X-441550Y339720D01*
X-441870Y338030D01*
X-442830Y336970D01*
X-443960Y336340D01*
X-447980D01*
G01X-443960D02*
X-441550Y330200D01*
G01X-431820D02*
Y342900D01*
X-433750Y340360D01*
G01Y330200D02*
X-429890D01*
G01X-422400Y332100D02*
X-421440Y331050D01*
X-420310Y330410D01*
X-418870Y330200D01*
X-417420Y330620D01*
X-416290Y331470D01*
X-415490Y332950D01*
X-415330Y334640D01*
X-415650Y336340D01*
X-416450Y337400D01*
X-417580Y338240D01*
X-418700Y338450D01*
X-419830Y338240D01*
X-421280Y337400D01*
X-420800Y342900D01*
X-416450D01*
G01X-417150Y450850D02*
X-413130Y438150D01*
X-409100Y450850D01*
G01X-403710Y438150D02*
Y450850D01*
X-400500D01*
X-399210Y450210D01*
X-398240Y449370D01*
X-397440Y448100D01*
X-396800Y446620D01*
X-396640Y444500D01*
X-396800Y442380D01*
X-397440Y440900D01*
X-398240Y439630D01*
X-399210Y438780D01*
X-400500Y438150D01*
X-403710D01*
G01X-387230D02*
Y450850D01*
X-389160Y448310D01*
G01Y438150D02*
X-385300D01*
G01X-374280D02*
Y450850D01*
X-376210Y448310D01*
G01Y438150D02*
X-372350D01*
G01X-447980Y393700D02*
Y406400D01*
X-443960D01*
X-442670Y405760D01*
X-441870Y404920D01*
X-441550Y403220D01*
X-441870Y401530D01*
X-442830Y400470D01*
X-443960Y399840D01*
X-447980D01*
G01X-443960D02*
X-441550Y393700D01*
G01X-431820D02*
Y406400D01*
X-433750Y403860D01*
G01Y393700D02*
X-429890D01*
G01X-421920Y398990D02*
X-420800Y400470D01*
X-419830Y401320D01*
X-418540Y401740D01*
X-417420Y401320D01*
X-416610Y400470D01*
X-415970Y399200D01*
X-415810Y397720D01*
X-415970Y396450D01*
X-416610Y395180D01*
X-417580Y394120D01*
X-418700Y393700D01*
X-419990Y394120D01*
X-421120Y395390D01*
X-421760Y397300D01*
X-421920Y399410D01*
X-421600Y402170D01*
X-421120Y403650D01*
X-420310Y405130D01*
X-419190Y406190D01*
X-418060Y406400D01*
X-416930Y405980D01*
X-416130Y404920D01*
G01X-429850Y520700D02*
X-425830Y508000D01*
X-421800Y520700D01*
G01X-416410Y508000D02*
Y520700D01*
X-413200D01*
X-411910Y520060D01*
X-410940Y519220D01*
X-410140Y517950D01*
X-409500Y516470D01*
X-409340Y514350D01*
X-409500Y512230D01*
X-410140Y510750D01*
X-410940Y509480D01*
X-411910Y508630D01*
X-413200Y508000D01*
X-416410D01*
G01X-399930D02*
Y520700D01*
X-401860Y518160D01*
G01Y508000D02*
X-398000D01*
G01X-390030Y518580D02*
X-389070Y519850D01*
X-387940Y520490D01*
X-386650Y520700D01*
X-385040Y520280D01*
X-383920Y519220D01*
X-383600Y517950D01*
X-383760Y516680D01*
X-384400Y515620D01*
X-387620Y513500D01*
X-389070Y512020D01*
X-390030Y509900D01*
X-390350Y508000D01*
X-383600D01*
G01X-397180Y863600D02*
Y876300D01*
X-393160D01*
X-391870Y875660D01*
X-391070Y874820D01*
X-390750Y873120D01*
X-391070Y871430D01*
X-392030Y870370D01*
X-393160Y869740D01*
X-397180D01*
G01X-393160D02*
X-390750Y863600D01*
G01X-384070Y874180D02*
X-383110Y875450D01*
X-381980Y876090D01*
X-380690Y876300D01*
X-379080Y875880D01*
X-377960Y874820D01*
X-377640Y873550D01*
X-377800Y872280D01*
X-378440Y871220D01*
X-381660Y869100D01*
X-383110Y867620D01*
X-384070Y865500D01*
X-384390Y863600D01*
X-377640D01*
G01X-371120Y868890D02*
X-370000Y870370D01*
X-369030Y871220D01*
X-367740Y871640D01*
X-366620Y871220D01*
X-365810Y870370D01*
X-365170Y869100D01*
X-365010Y867620D01*
X-365170Y866350D01*
X-365810Y865080D01*
X-366780Y864020D01*
X-367900Y863600D01*
X-369190Y864020D01*
X-370320Y865290D01*
X-370960Y867200D01*
X-371120Y869310D01*
X-370800Y872070D01*
X-370320Y873550D01*
X-369510Y875030D01*
X-368390Y876090D01*
X-367260Y876300D01*
X-366130Y875880D01*
X-365330Y874820D01*
G01X-397180Y1130300D02*
Y1143000D01*
X-393160D01*
X-391870Y1142360D01*
X-391070Y1141520D01*
X-390750Y1139820D01*
X-391070Y1138130D01*
X-392030Y1137070D01*
X-393160Y1136440D01*
X-397180D01*
G01X-393160D02*
X-390750Y1130300D01*
G01X-384070Y1140880D02*
X-383110Y1142150D01*
X-381980Y1142790D01*
X-380690Y1143000D01*
X-379080Y1142580D01*
X-377960Y1141520D01*
X-377640Y1140250D01*
X-377800Y1138980D01*
X-378440Y1137920D01*
X-381660Y1135800D01*
X-383110Y1134320D01*
X-384070Y1132200D01*
X-384390Y1130300D01*
X-377640D01*
G01X-371600Y1132840D02*
X-370640Y1131360D01*
X-369350Y1130510D01*
X-367900Y1130300D01*
X-366620Y1130510D01*
X-365330Y1131570D01*
X-364530Y1132840D01*
X-364370Y1134110D01*
X-364690Y1135590D01*
X-365810Y1136650D01*
X-366940Y1137070D01*
X-368390D01*
G01X-366940D02*
X-365970Y1137710D01*
X-365170Y1138770D01*
X-364850Y1140040D01*
X-365170Y1141310D01*
X-365970Y1142360D01*
X-367420Y1143000D01*
X-368870Y1142790D01*
X-370320Y1141940D01*
G01X-435280Y1092200D02*
Y1104900D01*
X-431260D01*
X-429970Y1104260D01*
X-429170Y1103420D01*
X-428850Y1101720D01*
X-429170Y1100030D01*
X-430130Y1098970D01*
X-431260Y1098340D01*
X-435280D01*
G01X-431260D02*
X-428850Y1092200D01*
G01X-419120D02*
Y1104900D01*
X-421050Y1102360D01*
G01Y1092200D02*
X-417190D01*
G01X-406170Y1104900D02*
X-407450Y1104480D01*
X-408420Y1103420D01*
X-409060Y1102150D01*
X-409540Y1100450D01*
X-409700Y1098550D01*
X-409540Y1096640D01*
X-409060Y1094950D01*
X-408420Y1093680D01*
X-407450Y1092620D01*
X-406170Y1092200D01*
X-404880Y1092620D01*
X-403910Y1093680D01*
X-403270Y1094950D01*
X-402790Y1096640D01*
X-402630Y1098550D01*
X-402790Y1100450D01*
X-403270Y1102150D01*
X-403910Y1103420D01*
X-404880Y1104480D01*
X-406170Y1104900D01*
G01X-428790Y1358900D02*
Y1371600D01*
X-424770D01*
X-423480Y1370960D01*
X-422680Y1370120D01*
X-422360Y1368420D01*
X-422680Y1366730D01*
X-423640Y1365670D01*
X-424770Y1365040D01*
X-428790D01*
G01X-424770D02*
X-422360Y1358900D01*
G01X-412630D02*
X-411500Y1359110D01*
X-410210Y1359750D01*
X-409410Y1360800D01*
X-409090Y1362290D01*
X-409410Y1363770D01*
X-410370Y1365040D01*
X-411820Y1365670D01*
X-413430D01*
X-414390Y1366100D01*
X-415200Y1367150D01*
X-415520Y1368640D01*
X-415040Y1370120D01*
X-413910Y1371180D01*
X-412630Y1371600D01*
X-411340Y1371180D01*
X-410210Y1370120D01*
X-409730Y1368640D01*
X-410050Y1367150D01*
X-410860Y1366100D01*
X-411820Y1365670D01*
X-413430D01*
X-414880Y1365040D01*
X-415840Y1363770D01*
X-416160Y1362290D01*
X-415840Y1360800D01*
X-415040Y1359750D01*
X-413750Y1359110D01*
X-412630Y1358900D01*
G01X-403390Y1746250D02*
Y1758950D01*
X-399370D01*
X-398080Y1758310D01*
X-397280Y1757470D01*
X-396960Y1755770D01*
X-397280Y1754080D01*
X-398240Y1753020D01*
X-399370Y1752390D01*
X-403390D01*
G01X-399370D02*
X-396960Y1746250D01*
G01X-390280Y1751540D02*
X-389160Y1753020D01*
X-388190Y1753870D01*
X-386900Y1754290D01*
X-385780Y1753870D01*
X-384970Y1753020D01*
X-384330Y1751750D01*
X-384170Y1750270D01*
X-384330Y1749000D01*
X-384970Y1747730D01*
X-385940Y1746670D01*
X-387060Y1746250D01*
X-388350Y1746670D01*
X-389480Y1747940D01*
X-390120Y1749850D01*
X-390280Y1751960D01*
X-389960Y1754720D01*
X-389480Y1756200D01*
X-388670Y1757680D01*
X-387550Y1758740D01*
X-386420Y1758950D01*
X-385290Y1758530D01*
X-384490Y1757470D01*
G01X-353650Y342900D02*
X-349630Y330200D01*
X-345600Y342900D01*
G01X-340210Y330200D02*
Y342900D01*
X-337000D01*
X-335710Y342260D01*
X-334740Y341420D01*
X-333940Y340150D01*
X-333300Y338670D01*
X-333140Y336550D01*
X-333300Y334430D01*
X-333940Y332950D01*
X-334740Y331680D01*
X-335710Y330830D01*
X-337000Y330200D01*
X-340210D01*
G01X-323730D02*
Y342900D01*
X-325660Y340360D01*
G01Y330200D02*
X-321800D01*
G01X-310780Y342900D02*
X-312060Y342480D01*
X-313030Y341420D01*
X-313670Y340150D01*
X-314150Y338450D01*
X-314310Y336550D01*
X-314150Y334640D01*
X-313670Y332950D01*
X-313030Y331680D01*
X-312060Y330620D01*
X-310780Y330200D01*
X-309490Y330620D01*
X-308520Y331680D01*
X-307880Y332950D01*
X-307400Y334640D01*
X-307240Y336550D01*
X-307400Y338450D01*
X-307880Y340150D01*
X-308520Y341420D01*
X-309490Y342480D01*
X-310780Y342900D01*
G01X-378940Y469900D02*
X-374920Y457200D01*
X-370890Y469900D01*
G01X-365500Y457200D02*
Y469900D01*
X-362290D01*
X-361000Y469260D01*
X-360030Y468420D01*
X-359230Y467150D01*
X-358590Y465670D01*
X-358430Y463550D01*
X-358590Y461430D01*
X-359230Y459950D01*
X-360030Y458680D01*
X-361000Y457830D01*
X-362290Y457200D01*
X-365500D01*
G01X-351750Y458680D02*
X-350620Y457620D01*
X-349340Y457200D01*
X-348050Y457620D01*
X-346920Y458890D01*
X-346120Y460800D01*
X-345800Y462700D01*
Y465030D01*
X-346120Y466940D01*
X-346920Y468630D01*
X-347890Y469480D01*
X-349020Y469900D01*
X-350300Y469480D01*
X-351270Y468630D01*
X-351910Y467360D01*
X-352230Y465670D01*
X-351910Y464190D01*
X-351110Y462700D01*
X-350140Y461860D01*
X-349020Y461640D01*
X-347730Y462070D01*
X-346760Y463130D01*
X-345800Y465030D01*
G01X-353590Y564090D02*
X-354550Y564730D01*
X-355680Y565150D01*
X-356960D01*
X-358410Y564510D01*
X-359540Y563460D01*
X-360340Y562190D01*
X-360990Y560070D01*
X-361150Y558160D01*
X-360820Y556260D01*
X-360340Y554990D01*
X-359380Y553720D01*
X-358250Y552870D01*
X-357130Y552450D01*
X-356000D01*
X-354870Y552870D01*
X-353910Y553510D01*
X-353100Y554350D01*
G01X-346910Y553930D02*
X-345780Y552870D01*
X-344500Y552450D01*
X-343210Y552870D01*
X-342080Y554140D01*
X-341280Y556050D01*
X-340960Y557950D01*
Y560280D01*
X-341280Y562190D01*
X-342080Y563880D01*
X-343050Y564730D01*
X-344180Y565150D01*
X-345460Y564730D01*
X-346430Y563880D01*
X-347070Y562610D01*
X-347390Y560920D01*
X-347070Y559440D01*
X-346270Y557950D01*
X-345300Y557110D01*
X-344180Y556890D01*
X-342890Y557320D01*
X-341920Y558380D01*
X-340960Y560280D01*
G01X-378940Y628650D02*
X-374920Y615950D01*
X-370890Y628650D01*
G01X-365500Y615950D02*
Y628650D01*
X-362290D01*
X-361000Y628010D01*
X-360030Y627170D01*
X-359230Y625900D01*
X-358590Y624420D01*
X-358430Y622300D01*
X-358590Y620180D01*
X-359230Y618700D01*
X-360030Y617430D01*
X-361000Y616580D01*
X-362290Y615950D01*
X-365500D01*
G01X-349340D02*
X-349020Y618700D01*
X-348530Y621030D01*
X-347890Y623150D01*
X-347080Y625470D01*
X-345800Y628650D01*
X-352230D01*
G01X-366290Y691090D02*
X-367250Y691730D01*
X-368380Y692150D01*
X-369660D01*
X-371110Y691510D01*
X-372240Y690460D01*
X-373040Y689190D01*
X-373690Y687070D01*
X-373850Y685160D01*
X-373520Y683260D01*
X-373040Y681990D01*
X-372080Y680720D01*
X-370950Y679870D01*
X-369830Y679450D01*
X-368700D01*
X-367570Y679870D01*
X-366610Y680510D01*
X-365800Y681350D01*
G01X-356880Y679450D02*
Y692150D01*
X-358810Y689610D01*
G01Y679450D02*
X-354950D01*
G01X-343930D02*
Y692150D01*
X-345860Y689610D01*
G01Y679450D02*
X-342000D01*
G01X-328190Y1580090D02*
X-329150Y1580730D01*
X-330280Y1581150D01*
X-331560D01*
X-333010Y1580510D01*
X-334140Y1579460D01*
X-334940Y1578190D01*
X-335590Y1576070D01*
X-335750Y1574160D01*
X-335420Y1572260D01*
X-334940Y1570990D01*
X-333980Y1569720D01*
X-332850Y1568870D01*
X-331730Y1568450D01*
X-330600D01*
X-329470Y1568870D01*
X-328510Y1569510D01*
X-327700Y1570350D01*
G01X-316840Y1568450D02*
Y1581150D01*
X-322800Y1572050D01*
X-314750D01*
G01X-328190Y1707090D02*
X-329150Y1707730D01*
X-330280Y1708150D01*
X-331560D01*
X-333010Y1707510D01*
X-334140Y1706460D01*
X-334940Y1705190D01*
X-335590Y1703070D01*
X-335750Y1701160D01*
X-335420Y1699260D01*
X-334940Y1697990D01*
X-333980Y1696720D01*
X-332850Y1695870D01*
X-331730Y1695450D01*
X-330600D01*
X-329470Y1695870D01*
X-328510Y1696510D01*
X-327700Y1697350D01*
G01X-322310Y1697990D02*
X-321350Y1696510D01*
X-320060Y1695660D01*
X-318610Y1695450D01*
X-317330Y1695660D01*
X-316040Y1696720D01*
X-315240Y1697990D01*
X-315080Y1699260D01*
X-315400Y1700740D01*
X-316520Y1701800D01*
X-317650Y1702220D01*
X-319100D01*
G01X-317650D02*
X-316680Y1702860D01*
X-315880Y1703920D01*
X-315560Y1705190D01*
X-315880Y1706460D01*
X-316680Y1707510D01*
X-318130Y1708150D01*
X-319580Y1707940D01*
X-321030Y1707090D01*
G01X-366350Y1758950D02*
X-362330Y1746250D01*
X-358300Y1758950D01*
G01X-352910Y1746250D02*
Y1758950D01*
X-349700D01*
X-348410Y1758310D01*
X-347440Y1757470D01*
X-346640Y1756200D01*
X-346000Y1754720D01*
X-345840Y1752600D01*
X-346000Y1750480D01*
X-346640Y1749000D01*
X-347440Y1747730D01*
X-348410Y1746880D01*
X-349700Y1746250D01*
X-352910D01*
G01X-339480Y1756830D02*
X-338520Y1758100D01*
X-337390Y1758740D01*
X-336100Y1758950D01*
X-334490Y1758530D01*
X-333370Y1757470D01*
X-333050Y1756200D01*
X-333210Y1754930D01*
X-333850Y1753870D01*
X-337070Y1751750D01*
X-338520Y1750270D01*
X-339480Y1748150D01*
X-339800Y1746250D01*
X-333050D01*
G01X-327010Y1748150D02*
X-326050Y1747100D01*
X-324920Y1746460D01*
X-323480Y1746250D01*
X-322030Y1746670D01*
X-320900Y1747520D01*
X-320100Y1749000D01*
X-319940Y1750690D01*
X-320260Y1752390D01*
X-321060Y1753450D01*
X-322190Y1754290D01*
X-323310Y1754500D01*
X-324440Y1754290D01*
X-325890Y1753450D01*
X-325410Y1758950D01*
X-321060D01*
G01X-340840Y1885950D02*
X-336820Y1873250D01*
X-332790Y1885950D01*
G01X-327400Y1873250D02*
Y1885950D01*
X-324190D01*
X-322900Y1885310D01*
X-321930Y1884470D01*
X-321130Y1883200D01*
X-320490Y1881720D01*
X-320330Y1879600D01*
X-320490Y1877480D01*
X-321130Y1876000D01*
X-321930Y1874730D01*
X-322900Y1873880D01*
X-324190Y1873250D01*
X-327400D01*
G01X-310920D02*
Y1885950D01*
X-312850Y1883410D01*
G01Y1873250D02*
X-308990D01*
G01X-377990Y1822450D02*
Y1835150D01*
X-373970D01*
X-372680Y1834510D01*
X-371880Y1833670D01*
X-371560Y1831970D01*
X-371880Y1830280D01*
X-372840Y1829220D01*
X-373970Y1828590D01*
X-377990D01*
G01X-373970D02*
X-371560Y1822450D01*
G01X-365360Y1824350D02*
X-364400Y1823300D01*
X-363270Y1822660D01*
X-361830Y1822450D01*
X-360380Y1822870D01*
X-359250Y1823720D01*
X-358450Y1825200D01*
X-358290Y1826890D01*
X-358610Y1828590D01*
X-359410Y1829650D01*
X-360540Y1830490D01*
X-361660Y1830700D01*
X-362790Y1830490D01*
X-364240Y1829650D01*
X-363760Y1835150D01*
X-359410D01*
G01X-282880Y-107950D02*
Y-95250D01*
X-278860D01*
X-277570Y-95890D01*
X-276770Y-96730D01*
X-276450Y-98430D01*
X-276770Y-100120D01*
X-277730Y-101180D01*
X-278860Y-101810D01*
X-282880D01*
G01X-278860D02*
X-276450Y-107950D01*
G01X-269770Y-97370D02*
X-268810Y-96100D01*
X-267680Y-95460D01*
X-266390Y-95250D01*
X-264780Y-95670D01*
X-263660Y-96730D01*
X-263340Y-98000D01*
X-263500Y-99270D01*
X-264140Y-100330D01*
X-267360Y-102450D01*
X-268810Y-103930D01*
X-269770Y-106050D01*
X-270090Y-107950D01*
X-263340D01*
G01X-253770Y-95250D02*
X-255050Y-95670D01*
X-256020Y-96730D01*
X-256660Y-98000D01*
X-257140Y-99700D01*
X-257300Y-101600D01*
X-257140Y-103510D01*
X-256660Y-105200D01*
X-256020Y-106470D01*
X-255050Y-107530D01*
X-253770Y-107950D01*
X-252480Y-107530D01*
X-251510Y-106470D01*
X-250870Y-105200D01*
X-250390Y-103510D01*
X-250230Y-101600D01*
X-250390Y-99700D01*
X-250870Y-98000D01*
X-251510Y-96730D01*
X-252480Y-95670D01*
X-253770Y-95250D01*
G01X-308280Y-31750D02*
Y-19050D01*
X-304260D01*
X-302970Y-19690D01*
X-302170Y-20530D01*
X-301850Y-22230D01*
X-302170Y-23920D01*
X-303130Y-24980D01*
X-304260Y-25610D01*
X-308280D01*
G01X-304260D02*
X-301850Y-31750D01*
G01X-292120D02*
Y-19050D01*
X-294050Y-21590D01*
G01Y-31750D02*
X-290190D01*
G01X-279170D02*
X-278040Y-31540D01*
X-276750Y-30900D01*
X-275950Y-29850D01*
X-275630Y-28360D01*
X-275950Y-26880D01*
X-276910Y-25610D01*
X-278360Y-24980D01*
X-279970D01*
X-280930Y-24550D01*
X-281740Y-23500D01*
X-282060Y-22010D01*
X-281580Y-20530D01*
X-280450Y-19470D01*
X-279170Y-19050D01*
X-277880Y-19470D01*
X-276750Y-20530D01*
X-276270Y-22010D01*
X-276590Y-23500D01*
X-277400Y-24550D01*
X-278360Y-24980D01*
X-279970D01*
X-281420Y-25610D01*
X-282380Y-26880D01*
X-282700Y-28360D01*
X-282380Y-29850D01*
X-281580Y-30900D01*
X-280290Y-31540D01*
X-279170Y-31750D01*
G01X-282880Y44450D02*
Y57150D01*
X-278860D01*
X-277570Y56510D01*
X-276770Y55670D01*
X-276450Y53970D01*
X-276770Y52280D01*
X-277730Y51220D01*
X-278860Y50590D01*
X-282880D01*
G01X-278860D02*
X-276450Y44450D01*
G01X-266720D02*
Y57150D01*
X-268650Y54610D01*
G01Y44450D02*
X-264790D01*
G01X-256500Y45930D02*
X-255370Y44870D01*
X-254090Y44450D01*
X-252800Y44870D01*
X-251670Y46140D01*
X-250870Y48050D01*
X-250550Y49950D01*
Y52280D01*
X-250870Y54190D01*
X-251670Y55880D01*
X-252640Y56730D01*
X-253770Y57150D01*
X-255050Y56730D01*
X-256020Y55880D01*
X-256660Y54610D01*
X-256980Y52920D01*
X-256660Y51440D01*
X-255860Y49950D01*
X-254890Y49110D01*
X-253770Y48890D01*
X-252480Y49320D01*
X-251510Y50380D01*
X-250550Y52280D01*
G01X-308280Y120650D02*
Y133350D01*
X-304260D01*
X-302970Y132710D01*
X-302170Y131870D01*
X-301850Y130170D01*
X-302170Y128480D01*
X-303130Y127420D01*
X-304260Y126790D01*
X-308280D01*
G01X-304260D02*
X-301850Y120650D01*
G01X-292120D02*
Y133350D01*
X-294050Y130810D01*
G01Y120650D02*
X-290190D01*
G01X-279490D02*
X-279170Y123400D01*
X-278680Y125730D01*
X-278040Y127850D01*
X-277230Y130170D01*
X-275950Y133350D01*
X-282380D01*
G01X-297850Y371690D02*
X-296570Y370630D01*
X-295120Y370000D01*
X-293830D01*
X-292540Y370630D01*
X-291580Y371690D01*
X-291100Y373180D01*
X-291420Y374660D01*
X-292220Y375930D01*
X-293670Y376770D01*
X-295600Y377200D01*
X-296730Y378040D01*
X-297210Y379520D01*
X-296890Y381010D01*
X-296080Y382060D01*
X-294960Y382700D01*
X-293830D01*
X-292710Y382280D01*
X-291740Y381220D01*
G01X-285060Y372540D02*
X-284100Y371060D01*
X-282810Y370210D01*
X-281360Y370000D01*
X-280080Y370210D01*
X-278790Y371270D01*
X-277990Y372540D01*
X-277830Y373810D01*
X-278150Y375290D01*
X-279270Y376350D01*
X-280400Y376770D01*
X-281850D01*
G01X-280400D02*
X-279430Y377410D01*
X-278630Y378470D01*
X-278310Y379740D01*
X-278630Y381010D01*
X-279430Y382060D01*
X-280880Y382700D01*
X-282330Y382490D01*
X-283780Y381640D01*
G01X-251130Y508000D02*
Y520700D01*
X-247110D01*
X-245820Y520060D01*
X-245020Y519220D01*
X-244700Y517520D01*
X-245020Y515830D01*
X-245980Y514770D01*
X-247110Y514140D01*
X-251130D01*
G01X-247110D02*
X-244700Y508000D01*
G01X-238020Y518580D02*
X-237060Y519850D01*
X-235930Y520490D01*
X-234640Y520700D01*
X-233030Y520280D01*
X-231910Y519220D01*
X-231590Y517950D01*
X-231750Y516680D01*
X-232390Y515620D01*
X-235610Y513500D01*
X-237060Y512020D01*
X-238020Y509900D01*
X-238340Y508000D01*
X-231590D01*
G01X-225070Y518580D02*
X-224110Y519850D01*
X-222980Y520490D01*
X-221690Y520700D01*
X-220080Y520280D01*
X-218960Y519220D01*
X-218640Y517950D01*
X-218800Y516680D01*
X-219440Y515620D01*
X-222660Y513500D01*
X-224110Y512020D01*
X-225070Y509900D01*
X-225390Y508000D01*
X-218640D01*
G01X-251990Y475190D02*
X-252950Y475830D01*
X-254080Y476250D01*
X-255360D01*
X-256810Y475610D01*
X-257940Y474560D01*
X-258740Y473290D01*
X-259390Y471170D01*
X-259550Y469260D01*
X-259220Y467360D01*
X-258740Y466090D01*
X-257780Y464820D01*
X-256650Y463970D01*
X-255530Y463550D01*
X-254400D01*
X-253270Y463970D01*
X-252310Y464610D01*
X-251500Y465450D01*
G01X-242580Y463550D02*
Y476250D01*
X-244510Y473710D01*
G01Y463550D02*
X-240650D01*
G01X-229630Y476250D02*
X-230910Y475830D01*
X-231880Y474770D01*
X-232520Y473500D01*
X-233000Y471800D01*
X-233160Y469900D01*
X-233000Y467990D01*
X-232520Y466300D01*
X-231880Y465030D01*
X-230910Y463970D01*
X-229630Y463550D01*
X-228340Y463970D01*
X-227370Y465030D01*
X-226730Y466300D01*
X-226250Y467990D01*
X-226090Y469900D01*
X-226250Y471800D01*
X-226730Y473500D01*
X-227370Y474770D01*
X-228340Y475830D01*
X-229630Y476250D01*
G01X-258290Y539750D02*
X-254270Y527050D01*
X-250240Y539750D01*
G01X-244850Y527050D02*
Y539750D01*
X-241640D01*
X-240350Y539110D01*
X-239380Y538270D01*
X-238580Y537000D01*
X-237940Y535520D01*
X-237780Y533400D01*
X-237940Y531280D01*
X-238580Y529800D01*
X-239380Y528530D01*
X-240350Y527680D01*
X-241640Y527050D01*
X-244850D01*
G01X-228370D02*
X-227240Y527260D01*
X-225950Y527900D01*
X-225150Y528950D01*
X-224830Y530440D01*
X-225150Y531920D01*
X-226110Y533190D01*
X-227560Y533820D01*
X-229170D01*
X-230130Y534250D01*
X-230940Y535300D01*
X-231260Y536790D01*
X-230780Y538270D01*
X-229650Y539330D01*
X-228370Y539750D01*
X-227080Y539330D01*
X-225950Y538270D01*
X-225470Y536790D01*
X-225790Y535300D01*
X-226600Y534250D01*
X-227560Y533820D01*
X-229170D01*
X-230620Y533190D01*
X-231580Y531920D01*
X-231900Y530440D01*
X-231580Y528950D01*
X-230780Y527900D01*
X-229490Y527260D01*
X-228370Y527050D01*
G01X-251130Y571500D02*
Y584200D01*
X-247110D01*
X-245820Y583560D01*
X-245020Y582720D01*
X-244700Y581020D01*
X-245020Y579330D01*
X-245980Y578270D01*
X-247110Y577640D01*
X-251130D01*
G01X-247110D02*
X-244700Y571500D01*
G01X-238020Y582080D02*
X-237060Y583350D01*
X-235930Y583990D01*
X-234640Y584200D01*
X-233030Y583780D01*
X-231910Y582720D01*
X-231590Y581450D01*
X-231750Y580180D01*
X-232390Y579120D01*
X-235610Y577000D01*
X-237060Y575520D01*
X-238020Y573400D01*
X-238340Y571500D01*
X-231590D01*
G01X-222020D02*
Y584200D01*
X-223950Y581660D01*
G01Y571500D02*
X-220090D01*
G01X-251990Y608540D02*
X-252950Y609180D01*
X-254080Y609600D01*
X-255360D01*
X-256810Y608960D01*
X-257940Y607910D01*
X-258740Y606640D01*
X-259390Y604520D01*
X-259550Y602610D01*
X-259220Y600710D01*
X-258740Y599440D01*
X-257780Y598170D01*
X-256650Y597320D01*
X-255530Y596900D01*
X-254400D01*
X-253270Y597320D01*
X-252310Y597960D01*
X-251500Y598800D01*
G01X-242580Y596900D02*
X-241450Y597110D01*
X-240160Y597750D01*
X-239360Y598800D01*
X-239040Y600290D01*
X-239360Y601770D01*
X-240320Y603040D01*
X-241770Y603670D01*
X-243380D01*
X-244340Y604100D01*
X-245150Y605150D01*
X-245470Y606640D01*
X-244990Y608120D01*
X-243860Y609180D01*
X-242580Y609600D01*
X-241290Y609180D01*
X-240160Y608120D01*
X-239680Y606640D01*
X-240000Y605150D01*
X-240810Y604100D01*
X-241770Y603670D01*
X-243380D01*
X-244830Y603040D01*
X-245790Y601770D01*
X-246110Y600290D01*
X-245790Y598800D01*
X-244990Y597750D01*
X-243700Y597110D01*
X-242580Y596900D01*
G01X-244640Y635000D02*
Y647700D01*
X-240620D01*
X-239330Y647060D01*
X-238530Y646220D01*
X-238210Y644520D01*
X-238530Y642830D01*
X-239490Y641770D01*
X-240620Y641140D01*
X-244640D01*
G01X-240620D02*
X-238210Y635000D01*
G01X-226540D02*
Y647700D01*
X-232500Y638600D01*
X-224450D01*
G01X-296390Y742950D02*
X-292370Y730250D01*
X-288340Y742950D01*
G01X-282950Y730250D02*
Y742950D01*
X-279740D01*
X-278450Y742310D01*
X-277480Y741470D01*
X-276680Y740200D01*
X-276040Y738720D01*
X-275880Y736600D01*
X-276040Y734480D01*
X-276680Y733000D01*
X-277480Y731730D01*
X-278450Y730880D01*
X-279740Y730250D01*
X-282950D01*
G01X-269520Y735540D02*
X-268400Y737020D01*
X-267430Y737870D01*
X-266140Y738290D01*
X-265020Y737870D01*
X-264210Y737020D01*
X-263570Y735750D01*
X-263410Y734270D01*
X-263570Y733000D01*
X-264210Y731730D01*
X-265180Y730670D01*
X-266300Y730250D01*
X-267590Y730670D01*
X-268720Y731940D01*
X-269360Y733850D01*
X-269520Y735960D01*
X-269200Y738720D01*
X-268720Y740200D01*
X-267910Y741680D01*
X-266790Y742740D01*
X-265660Y742950D01*
X-264530Y742530D01*
X-263730Y741470D01*
G01X-244640Y698500D02*
Y711200D01*
X-240620D01*
X-239330Y710560D01*
X-238530Y709720D01*
X-238210Y708020D01*
X-238530Y706330D01*
X-239490Y705270D01*
X-240620Y704640D01*
X-244640D01*
G01X-240620D02*
X-238210Y698500D01*
G01X-232010Y701040D02*
X-231050Y699560D01*
X-229760Y698710D01*
X-228310Y698500D01*
X-227030Y698710D01*
X-225740Y699770D01*
X-224940Y701040D01*
X-224780Y702310D01*
X-225100Y703790D01*
X-226220Y704850D01*
X-227350Y705270D01*
X-228800D01*
G01X-227350D02*
X-226380Y705910D01*
X-225580Y706970D01*
X-225260Y708240D01*
X-225580Y709510D01*
X-226380Y710560D01*
X-227830Y711200D01*
X-229280Y710990D01*
X-230730Y710140D01*
G01X-301790Y1092200D02*
Y1104900D01*
X-297770D01*
X-296480Y1104260D01*
X-295680Y1103420D01*
X-295360Y1101720D01*
X-295680Y1100030D01*
X-296640Y1098970D01*
X-297770Y1098340D01*
X-301790D01*
G01X-297770D02*
X-295360Y1092200D01*
G01X-288360Y1093680D02*
X-287230Y1092620D01*
X-285950Y1092200D01*
X-284660Y1092620D01*
X-283530Y1093890D01*
X-282730Y1095800D01*
X-282410Y1097700D01*
Y1100030D01*
X-282730Y1101940D01*
X-283530Y1103630D01*
X-284500Y1104480D01*
X-285630Y1104900D01*
X-286910Y1104480D01*
X-287880Y1103630D01*
X-288520Y1102360D01*
X-288840Y1100670D01*
X-288520Y1099190D01*
X-287720Y1097700D01*
X-286750Y1096860D01*
X-285630Y1096640D01*
X-284340Y1097070D01*
X-283370Y1098130D01*
X-282410Y1100030D01*
G01X-301790Y1358900D02*
Y1371600D01*
X-297770D01*
X-296480Y1370960D01*
X-295680Y1370120D01*
X-295360Y1368420D01*
X-295680Y1366730D01*
X-296640Y1365670D01*
X-297770Y1365040D01*
X-301790D01*
G01X-297770D02*
X-295360Y1358900D01*
G01X-285950D02*
X-285630Y1361650D01*
X-285140Y1363980D01*
X-284500Y1366100D01*
X-283690Y1368420D01*
X-282410Y1371600D01*
X-288840D01*
G01X-302740Y1593850D02*
X-298720Y1581150D01*
X-294690Y1593850D01*
G01X-289300Y1581150D02*
Y1593850D01*
X-286090D01*
X-284800Y1593210D01*
X-283830Y1592370D01*
X-283030Y1591100D01*
X-282390Y1589620D01*
X-282230Y1587500D01*
X-282390Y1585380D01*
X-283030Y1583900D01*
X-283830Y1582630D01*
X-284800Y1581780D01*
X-286090Y1581150D01*
X-289300D01*
G01X-276350Y1583690D02*
X-275390Y1582210D01*
X-274100Y1581360D01*
X-272650Y1581150D01*
X-271370Y1581360D01*
X-270080Y1582420D01*
X-269280Y1583690D01*
X-269120Y1584960D01*
X-269440Y1586440D01*
X-270560Y1587500D01*
X-271690Y1587920D01*
X-273140D01*
G01X-271690D02*
X-270720Y1588560D01*
X-269920Y1589620D01*
X-269600Y1590890D01*
X-269920Y1592160D01*
X-270720Y1593210D01*
X-272170Y1593850D01*
X-273620Y1593640D01*
X-275070Y1592790D01*
G01X-244640Y1581150D02*
Y1593850D01*
X-240620D01*
X-239330Y1593210D01*
X-238530Y1592370D01*
X-238210Y1590670D01*
X-238530Y1588980D01*
X-239490Y1587920D01*
X-240620Y1587290D01*
X-244640D01*
G01X-240620D02*
X-238210Y1581150D01*
G01X-231530Y1591730D02*
X-230570Y1593000D01*
X-229440Y1593640D01*
X-228150Y1593850D01*
X-226540Y1593430D01*
X-225420Y1592370D01*
X-225100Y1591100D01*
X-225260Y1589830D01*
X-225900Y1588770D01*
X-229120Y1586650D01*
X-230570Y1585170D01*
X-231530Y1583050D01*
X-231850Y1581150D01*
X-225100D01*
G01X-244640Y1517650D02*
Y1530350D01*
X-240620D01*
X-239330Y1529710D01*
X-238530Y1528870D01*
X-238210Y1527170D01*
X-238530Y1525480D01*
X-239490Y1524420D01*
X-240620Y1523790D01*
X-244640D01*
G01X-240620D02*
X-238210Y1517650D01*
G01X-228480D02*
Y1530350D01*
X-230410Y1527810D01*
G01Y1517650D02*
X-226550D01*
G01X-251130Y1644650D02*
Y1657350D01*
X-247110D01*
X-245820Y1656710D01*
X-245020Y1655870D01*
X-244700Y1654170D01*
X-245020Y1652480D01*
X-245980Y1651420D01*
X-247110Y1650790D01*
X-251130D01*
G01X-247110D02*
X-244700Y1644650D01*
G01X-238500Y1647190D02*
X-237540Y1645710D01*
X-236250Y1644860D01*
X-234800Y1644650D01*
X-233520Y1644860D01*
X-232230Y1645920D01*
X-231430Y1647190D01*
X-231270Y1648460D01*
X-231590Y1649940D01*
X-232710Y1651000D01*
X-233840Y1651420D01*
X-235290D01*
G01X-233840D02*
X-232870Y1652060D01*
X-232070Y1653120D01*
X-231750Y1654390D01*
X-232070Y1655660D01*
X-232870Y1656710D01*
X-234320Y1657350D01*
X-235770Y1657140D01*
X-237220Y1656290D01*
G01X-222020Y1657350D02*
X-223300Y1656930D01*
X-224270Y1655870D01*
X-224910Y1654600D01*
X-225390Y1652900D01*
X-225550Y1651000D01*
X-225390Y1649090D01*
X-224910Y1647400D01*
X-224270Y1646130D01*
X-223300Y1645070D01*
X-222020Y1644650D01*
X-220730Y1645070D01*
X-219760Y1646130D01*
X-219120Y1647400D01*
X-218640Y1649090D01*
X-218480Y1651000D01*
X-218640Y1652900D01*
X-219120Y1654600D01*
X-219760Y1655870D01*
X-220730Y1656930D01*
X-222020Y1657350D01*
G01X-302740Y1720850D02*
X-298720Y1708150D01*
X-294690Y1720850D01*
G01X-289300Y1708150D02*
Y1720850D01*
X-286090D01*
X-284800Y1720210D01*
X-283830Y1719370D01*
X-283030Y1718100D01*
X-282390Y1716620D01*
X-282230Y1714500D01*
X-282390Y1712380D01*
X-283030Y1710900D01*
X-283830Y1709630D01*
X-284800Y1708780D01*
X-286090Y1708150D01*
X-289300D01*
G01X-275870Y1718730D02*
X-274910Y1720000D01*
X-273780Y1720640D01*
X-272490Y1720850D01*
X-270880Y1720430D01*
X-269760Y1719370D01*
X-269440Y1718100D01*
X-269600Y1716830D01*
X-270240Y1715770D01*
X-273460Y1713650D01*
X-274910Y1712170D01*
X-275870Y1710050D01*
X-276190Y1708150D01*
X-269440D01*
G01X-251130D02*
Y1720850D01*
X-247110D01*
X-245820Y1720210D01*
X-245020Y1719370D01*
X-244700Y1717670D01*
X-245020Y1715980D01*
X-245980Y1714920D01*
X-247110Y1714290D01*
X-251130D01*
G01X-247110D02*
X-244700Y1708150D01*
G01X-238020Y1718730D02*
X-237060Y1720000D01*
X-235930Y1720640D01*
X-234640Y1720850D01*
X-233030Y1720430D01*
X-231910Y1719370D01*
X-231590Y1718100D01*
X-231750Y1716830D01*
X-232390Y1715770D01*
X-235610Y1713650D01*
X-237060Y1712170D01*
X-238020Y1710050D01*
X-238340Y1708150D01*
X-231590D01*
G01X-224750Y1709630D02*
X-223620Y1708570D01*
X-222340Y1708150D01*
X-221050Y1708570D01*
X-219920Y1709840D01*
X-219120Y1711750D01*
X-218800Y1713650D01*
Y1715980D01*
X-219120Y1717890D01*
X-219920Y1719580D01*
X-220890Y1720430D01*
X-222020Y1720850D01*
X-223300Y1720430D01*
X-224270Y1719580D01*
X-224910Y1718310D01*
X-225230Y1716620D01*
X-224910Y1715140D01*
X-224110Y1713650D01*
X-223140Y1712810D01*
X-222020Y1712590D01*
X-220730Y1713020D01*
X-219760Y1714080D01*
X-218800Y1715980D01*
G01X-296390Y1771650D02*
X-292370Y1758950D01*
X-288340Y1771650D01*
G01X-279420D02*
Y1758950D01*
G01X-283110Y1771650D02*
X-275720D01*
G01X-266470Y1758950D02*
Y1771650D01*
X-268400Y1769110D01*
G01Y1758950D02*
X-264540D01*
G01X-264010Y1885950D02*
Y1898650D01*
G01X-257900D02*
X-264010Y1890820D01*
G01X-256940Y1885950D02*
X-261280Y1894420D01*
G01X-247530Y1885950D02*
Y1898650D01*
X-249460Y1896110D01*
G01Y1885950D02*
X-245600D01*
G01X-200350Y-26810D02*
X-199070Y-27870D01*
X-197620Y-28500D01*
X-196330D01*
X-195040Y-27870D01*
X-194080Y-26810D01*
X-193600Y-25320D01*
X-193920Y-23840D01*
X-194720Y-22570D01*
X-196170Y-21730D01*
X-198100Y-21300D01*
X-199230Y-20460D01*
X-199710Y-18980D01*
X-199390Y-17490D01*
X-198580Y-16440D01*
X-197460Y-15800D01*
X-196330D01*
X-195210Y-16220D01*
X-194240Y-17280D01*
G01X-187560Y-26600D02*
X-186600Y-27650D01*
X-185470Y-28290D01*
X-184030Y-28500D01*
X-182580Y-28080D01*
X-181450Y-27230D01*
X-180650Y-25750D01*
X-180490Y-24060D01*
X-180810Y-22360D01*
X-181610Y-21300D01*
X-182740Y-20460D01*
X-183860Y-20250D01*
X-184990Y-20460D01*
X-186440Y-21300D01*
X-185960Y-15800D01*
X-181610D01*
G01X-200350Y125590D02*
X-199070Y124530D01*
X-197620Y123900D01*
X-196330D01*
X-195040Y124530D01*
X-194080Y125590D01*
X-193600Y127080D01*
X-193920Y128560D01*
X-194720Y129830D01*
X-196170Y130670D01*
X-198100Y131100D01*
X-199230Y131940D01*
X-199710Y133420D01*
X-199390Y134910D01*
X-198580Y135960D01*
X-197460Y136600D01*
X-196330D01*
X-195210Y136180D01*
X-194240Y135120D01*
G01X-182090Y123900D02*
Y136600D01*
X-188050Y127500D01*
X-180000D01*
G01X-199790Y303740D02*
X-200750Y304380D01*
X-201880Y304800D01*
X-203160D01*
X-204610Y304160D01*
X-205740Y303110D01*
X-206540Y301840D01*
X-207190Y299720D01*
X-207350Y297810D01*
X-207020Y295910D01*
X-206540Y294640D01*
X-205580Y293370D01*
X-204450Y292520D01*
X-203330Y292100D01*
X-202200D01*
X-201070Y292520D01*
X-200110Y293160D01*
X-199300Y294000D01*
G01X-190700Y292100D02*
X-190380Y294850D01*
X-189890Y297180D01*
X-189250Y299300D01*
X-188440Y301620D01*
X-187160Y304800D01*
X-193590D01*
G01X-212630Y970490D02*
X-213590Y971130D01*
X-214720Y971550D01*
X-216000D01*
X-217450Y970910D01*
X-218580Y969860D01*
X-219380Y968590D01*
X-220030Y966470D01*
X-220190Y964560D01*
X-219860Y962660D01*
X-219380Y961390D01*
X-218420Y960120D01*
X-217290Y959270D01*
X-216170Y958850D01*
X-215040D01*
X-213910Y959270D01*
X-212950Y959910D01*
X-212140Y960750D01*
G01X-203220Y958850D02*
Y971550D01*
X-205150Y969010D01*
G01Y958850D02*
X-201290D01*
G01X-188330D02*
Y971550D01*
X-194290Y962450D01*
X-186240D01*
G01X-199790Y1160990D02*
X-200750Y1161630D01*
X-201880Y1162050D01*
X-203160D01*
X-204610Y1161410D01*
X-205740Y1160360D01*
X-206540Y1159090D01*
X-207190Y1156970D01*
X-207350Y1155060D01*
X-207020Y1153160D01*
X-206540Y1151890D01*
X-205580Y1150620D01*
X-204450Y1149770D01*
X-203330Y1149350D01*
X-202200D01*
X-201070Y1149770D01*
X-200110Y1150410D01*
X-199300Y1151250D01*
G01X-193910D02*
X-192950Y1150200D01*
X-191820Y1149560D01*
X-190380Y1149350D01*
X-188930Y1149770D01*
X-187800Y1150620D01*
X-187000Y1152100D01*
X-186840Y1153790D01*
X-187160Y1155490D01*
X-187960Y1156550D01*
X-189090Y1157390D01*
X-190210Y1157600D01*
X-191340Y1157390D01*
X-192790Y1156550D01*
X-192310Y1162050D01*
X-187960D01*
G01X-199790Y1351490D02*
X-200750Y1352130D01*
X-201880Y1352550D01*
X-203160D01*
X-204610Y1351910D01*
X-205740Y1350860D01*
X-206540Y1349590D01*
X-207190Y1347470D01*
X-207350Y1345560D01*
X-207020Y1343660D01*
X-206540Y1342390D01*
X-205580Y1341120D01*
X-204450Y1340270D01*
X-203330Y1339850D01*
X-202200D01*
X-201070Y1340270D01*
X-200110Y1340910D01*
X-199300Y1341750D01*
G01X-193430Y1345140D02*
X-192310Y1346620D01*
X-191340Y1347470D01*
X-190050Y1347890D01*
X-188930Y1347470D01*
X-188120Y1346620D01*
X-187480Y1345350D01*
X-187320Y1343870D01*
X-187480Y1342600D01*
X-188120Y1341330D01*
X-189090Y1340270D01*
X-190210Y1339850D01*
X-191500Y1340270D01*
X-192630Y1341540D01*
X-193270Y1343450D01*
X-193430Y1345560D01*
X-193110Y1348320D01*
X-192630Y1349800D01*
X-191820Y1351280D01*
X-190700Y1352340D01*
X-189570Y1352550D01*
X-188440Y1352130D01*
X-187640Y1351070D01*
G01X-137750Y31750D02*
X-133730Y19050D01*
X-129700Y31750D01*
G01X-124310Y19050D02*
Y31750D01*
X-121100D01*
X-119810Y31110D01*
X-118840Y30270D01*
X-118040Y29000D01*
X-117400Y27520D01*
X-117240Y25400D01*
X-117400Y23280D01*
X-118040Y21800D01*
X-118840Y20530D01*
X-119810Y19680D01*
X-121100Y19050D01*
X-124310D01*
G01X-107830D02*
Y31750D01*
X-109760Y29210D01*
G01Y19050D02*
X-105900D01*
G01X-94880D02*
X-93750Y19260D01*
X-92460Y19900D01*
X-91660Y20950D01*
X-91340Y22440D01*
X-91660Y23920D01*
X-92620Y25190D01*
X-94070Y25820D01*
X-95680D01*
X-96640Y26250D01*
X-97450Y27300D01*
X-97770Y28790D01*
X-97290Y30270D01*
X-96160Y31330D01*
X-94880Y31750D01*
X-93590Y31330D01*
X-92460Y30270D01*
X-91980Y28790D01*
X-92300Y27300D01*
X-93110Y26250D01*
X-94070Y25820D01*
X-95680D01*
X-97130Y25190D01*
X-98090Y23920D01*
X-98410Y22440D01*
X-98090Y20950D01*
X-97290Y19900D01*
X-96000Y19260D01*
X-94880Y19050D01*
G01X-137750Y133350D02*
X-133730Y120650D01*
X-129700Y133350D01*
G01X-124310Y120650D02*
Y133350D01*
X-121100D01*
X-119810Y132710D01*
X-118840Y131870D01*
X-118040Y130600D01*
X-117400Y129120D01*
X-117240Y127000D01*
X-117400Y124880D01*
X-118040Y123400D01*
X-118840Y122130D01*
X-119810Y121280D01*
X-121100Y120650D01*
X-124310D01*
G01X-107830D02*
Y133350D01*
X-109760Y130810D01*
G01Y120650D02*
X-105900D01*
G01X-95200D02*
X-94880Y123400D01*
X-94390Y125730D01*
X-93750Y127850D01*
X-92940Y130170D01*
X-91660Y133350D01*
X-98090D01*
G01X-101600Y211500D02*
X-88900Y215520D01*
X-101600Y219550D01*
G01X-88900Y224940D02*
X-101600D01*
Y228150D01*
X-100960Y229440D01*
X-100120Y230410D01*
X-98850Y231210D01*
X-97370Y231850D01*
X-95250Y232010D01*
X-93130Y231850D01*
X-91650Y231210D01*
X-90380Y230410D01*
X-89530Y229440D01*
X-88900Y228150D01*
Y224940D01*
G01X-99480Y238370D02*
X-100750Y239330D01*
X-101390Y240460D01*
X-101600Y241750D01*
X-101180Y243360D01*
X-100120Y244480D01*
X-98850Y244800D01*
X-97580Y244640D01*
X-96520Y244000D01*
X-94400Y240780D01*
X-92920Y239330D01*
X-90800Y238370D01*
X-88900Y238050D01*
Y244800D01*
G01Y254370D02*
X-101600D01*
X-99060Y252440D01*
G01X-88900D02*
Y256300D01*
G01X-101600Y306750D02*
X-88900Y310770D01*
X-101600Y314800D01*
G01X-88900Y320190D02*
X-101600D01*
Y323400D01*
X-100960Y324690D01*
X-100120Y325660D01*
X-98850Y326460D01*
X-97370Y327100D01*
X-95250Y327260D01*
X-93130Y327100D01*
X-91650Y326460D01*
X-90380Y325660D01*
X-89530Y324690D01*
X-88900Y323400D01*
Y320190D01*
G01X-99480Y333620D02*
X-100750Y334580D01*
X-101390Y335710D01*
X-101600Y337000D01*
X-101180Y338610D01*
X-100120Y339730D01*
X-98850Y340050D01*
X-97580Y339890D01*
X-96520Y339250D01*
X-94400Y336030D01*
X-92920Y334580D01*
X-90800Y333620D01*
X-88900Y333300D01*
Y340050D01*
G01X-101600Y349620D02*
X-101180Y348340D01*
X-100120Y347370D01*
X-98850Y346730D01*
X-97150Y346250D01*
X-95250Y346090D01*
X-93340Y346250D01*
X-91650Y346730D01*
X-90380Y347370D01*
X-89320Y348340D01*
X-88900Y349620D01*
X-89320Y350910D01*
X-90380Y351880D01*
X-91650Y352520D01*
X-93340Y353000D01*
X-95250Y353160D01*
X-97150Y353000D01*
X-98850Y352520D01*
X-100120Y351880D01*
X-101180Y350910D01*
X-101600Y349620D01*
G01X-137750Y450850D02*
X-133730Y438150D01*
X-129700Y450850D01*
G01X-124310Y438150D02*
Y450850D01*
X-121100D01*
X-119810Y450210D01*
X-118840Y449370D01*
X-118040Y448100D01*
X-117400Y446620D01*
X-117240Y444500D01*
X-117400Y442380D01*
X-118040Y440900D01*
X-118840Y439630D01*
X-119810Y438780D01*
X-121100Y438150D01*
X-124310D01*
G01X-107830D02*
Y450850D01*
X-109760Y448310D01*
G01Y438150D02*
X-105900D01*
G01X-97610Y439630D02*
X-96480Y438570D01*
X-95200Y438150D01*
X-93910Y438570D01*
X-92780Y439840D01*
X-91980Y441750D01*
X-91660Y443650D01*
Y445980D01*
X-91980Y447890D01*
X-92780Y449580D01*
X-93750Y450430D01*
X-94880Y450850D01*
X-96160Y450430D01*
X-97130Y449580D01*
X-97770Y448310D01*
X-98090Y446620D01*
X-97770Y445140D01*
X-96970Y443650D01*
X-96000Y442810D01*
X-94880Y442590D01*
X-93590Y443020D01*
X-92620Y444080D01*
X-91660Y445980D01*
G01X-137750Y762000D02*
X-133730Y749300D01*
X-129700Y762000D01*
G01X-124310Y749300D02*
Y762000D01*
X-121100D01*
X-119810Y761360D01*
X-118840Y760520D01*
X-118040Y759250D01*
X-117400Y757770D01*
X-117240Y755650D01*
X-117400Y753530D01*
X-118040Y752050D01*
X-118840Y750780D01*
X-119810Y749930D01*
X-121100Y749300D01*
X-124310D01*
G01X-110880Y759880D02*
X-109920Y761150D01*
X-108790Y761790D01*
X-107500Y762000D01*
X-105890Y761580D01*
X-104770Y760520D01*
X-104450Y759250D01*
X-104610Y757980D01*
X-105250Y756920D01*
X-108470Y754800D01*
X-109920Y753320D01*
X-110880Y751200D01*
X-111200Y749300D01*
X-104450D01*
G01X-92940D02*
Y762000D01*
X-98900Y752900D01*
X-90850D01*
G01X-101600Y1176700D02*
X-88900Y1180720D01*
X-101600Y1184750D01*
G01X-88900Y1190140D02*
X-101600D01*
Y1193350D01*
X-100960Y1194640D01*
X-100120Y1195610D01*
X-98850Y1196410D01*
X-97370Y1197050D01*
X-95250Y1197210D01*
X-93130Y1197050D01*
X-91650Y1196410D01*
X-90380Y1195610D01*
X-89530Y1194640D01*
X-88900Y1193350D01*
Y1190140D01*
G01X-99480Y1203570D02*
X-100750Y1204530D01*
X-101390Y1205660D01*
X-101600Y1206950D01*
X-101180Y1208560D01*
X-100120Y1209680D01*
X-98850Y1210000D01*
X-97580Y1209840D01*
X-96520Y1209200D01*
X-94400Y1205980D01*
X-92920Y1204530D01*
X-90800Y1203570D01*
X-88900Y1203250D01*
Y1210000D01*
G01X-91440Y1216040D02*
X-89960Y1217000D01*
X-89110Y1218290D01*
X-88900Y1219740D01*
X-89110Y1221020D01*
X-90170Y1222310D01*
X-91440Y1223110D01*
X-92710Y1223270D01*
X-94190Y1222950D01*
X-95250Y1221830D01*
X-95670Y1220700D01*
Y1219250D01*
G01Y1220700D02*
X-96310Y1221670D01*
X-97370Y1222470D01*
X-98640Y1222790D01*
X-99910Y1222470D01*
X-100960Y1221670D01*
X-101600Y1220220D01*
X-101390Y1218770D01*
X-100540Y1217320D01*
G01X-101600Y1265710D02*
X-88900Y1269730D01*
X-101600Y1273760D01*
G01X-88900Y1279150D02*
X-101600D01*
Y1282360D01*
X-100960Y1283650D01*
X-100120Y1284620D01*
X-98850Y1285420D01*
X-97370Y1286060D01*
X-95250Y1286220D01*
X-93130Y1286060D01*
X-91650Y1285420D01*
X-90380Y1284620D01*
X-89530Y1283650D01*
X-88900Y1282360D01*
Y1279150D01*
G01X-90800Y1292100D02*
X-89750Y1293060D01*
X-89110Y1294190D01*
X-88900Y1295630D01*
X-89320Y1297080D01*
X-90170Y1298210D01*
X-91650Y1299010D01*
X-93340Y1299170D01*
X-95040Y1298850D01*
X-96100Y1298050D01*
X-96940Y1296920D01*
X-97150Y1295800D01*
X-96940Y1294670D01*
X-96100Y1293220D01*
X-101600Y1293700D01*
Y1298050D01*
G01X-144100Y1778000D02*
X-140080Y1765300D01*
X-136050Y1778000D01*
G01X-130660Y1765300D02*
Y1778000D01*
X-127450D01*
X-126160Y1777360D01*
X-125190Y1776520D01*
X-124390Y1775250D01*
X-123750Y1773770D01*
X-123590Y1771650D01*
X-123750Y1769530D01*
X-124390Y1768050D01*
X-125190Y1766780D01*
X-126160Y1765930D01*
X-127450Y1765300D01*
X-130660D01*
G01X-114180D02*
Y1778000D01*
X-116110Y1775460D01*
G01Y1765300D02*
X-112250D01*
G01X-99290D02*
Y1778000D01*
X-105250Y1768900D01*
X-97200D01*
G01X-93300Y1917700D02*
X-89280Y1905000D01*
X-85250Y1917700D01*
G01X-79860Y1905000D02*
Y1917700D01*
X-76650D01*
X-75360Y1917060D01*
X-74390Y1916220D01*
X-73590Y1914950D01*
X-72950Y1913470D01*
X-72790Y1911350D01*
X-72950Y1909230D01*
X-73590Y1907750D01*
X-74390Y1906480D01*
X-75360Y1905630D01*
X-76650Y1905000D01*
X-79860D01*
G01X-63380D02*
Y1917700D01*
X-65310Y1915160D01*
G01Y1905000D02*
X-61450D01*
G01X-53960Y1907540D02*
X-53000Y1906060D01*
X-51710Y1905210D01*
X-50260Y1905000D01*
X-48980Y1905210D01*
X-47690Y1906270D01*
X-46890Y1907540D01*
X-46730Y1908810D01*
X-47050Y1910290D01*
X-48170Y1911350D01*
X-49300Y1911770D01*
X-50750D01*
G01X-49300D02*
X-48330Y1912410D01*
X-47530Y1913470D01*
X-47210Y1914740D01*
X-47530Y1916010D01*
X-48330Y1917060D01*
X-49780Y1917700D01*
X-51230Y1917490D01*
X-52680Y1916640D01*
G01X-16200Y812800D02*
X-9450Y825500D01*
G01X-16200D02*
X-9450Y812800D01*
G01X-2930Y823380D02*
X-1970Y824650D01*
X-840Y825290D01*
X450Y825500D01*
X2060Y825080D01*
X3180Y824020D01*
X3500Y822750D01*
X3340Y821480D01*
X2700Y820420D01*
X-520Y818300D01*
X-1970Y816820D01*
X-2930Y814700D01*
X-3250Y812800D01*
X3500D01*
G01X-86950Y1054100D02*
X-82930Y1041400D01*
X-78900Y1054100D01*
G01X-73510Y1041400D02*
Y1054100D01*
X-70300D01*
X-69010Y1053460D01*
X-68040Y1052620D01*
X-67240Y1051350D01*
X-66600Y1049870D01*
X-66440Y1047750D01*
X-66600Y1045630D01*
X-67240Y1044150D01*
X-68040Y1042880D01*
X-69010Y1042030D01*
X-70300Y1041400D01*
X-73510D01*
G01X-60080Y1051980D02*
X-59120Y1053250D01*
X-57990Y1053890D01*
X-56700Y1054100D01*
X-55090Y1053680D01*
X-53970Y1052620D01*
X-53650Y1051350D01*
X-53810Y1050080D01*
X-54450Y1049020D01*
X-57670Y1046900D01*
X-59120Y1045420D01*
X-60080Y1043300D01*
X-60400Y1041400D01*
X-53650D01*
G01X-47130Y1051980D02*
X-46170Y1053250D01*
X-45040Y1053890D01*
X-43750Y1054100D01*
X-42140Y1053680D01*
X-41020Y1052620D01*
X-40700Y1051350D01*
X-40860Y1050080D01*
X-41500Y1049020D01*
X-44720Y1046900D01*
X-46170Y1045420D01*
X-47130Y1043300D01*
X-47450Y1041400D01*
X-40700D01*
G01X-80490Y1428750D02*
X-76470Y1416050D01*
X-72440Y1428750D01*
G01X-67050Y1416050D02*
Y1428750D01*
X-63840D01*
X-62550Y1428110D01*
X-61580Y1427270D01*
X-60780Y1426000D01*
X-60140Y1424520D01*
X-59980Y1422400D01*
X-60140Y1420280D01*
X-60780Y1418800D01*
X-61580Y1417530D01*
X-62550Y1416680D01*
X-63840Y1416050D01*
X-67050D01*
G01X-48630D02*
Y1428750D01*
X-54590Y1419650D01*
X-46540D01*
G01X-16200Y1885950D02*
X-9450Y1898650D01*
G01X-16200D02*
X-9450Y1885950D01*
G01X120D02*
Y1898650D01*
X-1810Y1896110D01*
G01Y1885950D02*
X2050D01*
G54D16*
G01X-810510Y955210D02*
X-808480Y953520D01*
X-806200Y952500D01*
X-804160D01*
X-802130Y953520D01*
X-800610Y955210D01*
X-799850Y957580D01*
X-800350Y959950D01*
X-801620Y961980D01*
X-803910Y963340D01*
X-806960Y964010D01*
X-808740Y965370D01*
X-809500Y967740D01*
X-808990Y970110D01*
X-807720Y971800D01*
X-805940Y972820D01*
X-804160D01*
X-802390Y972140D01*
X-800860Y970450D01*
G01X-784860Y972820D02*
Y952500D01*
G01X-790700Y972820D02*
X-779020D01*
G01X-764540Y952500D02*
X-766570Y952840D01*
X-768350Y954190D01*
X-769870Y956230D01*
X-770890Y958600D01*
X-771400Y961310D01*
Y964010D01*
X-770890Y966720D01*
X-769870Y969090D01*
X-768350Y971130D01*
X-766570Y972480D01*
X-764540Y972820D01*
X-762510Y972480D01*
X-760730Y971130D01*
X-759210Y969090D01*
X-758190Y966720D01*
X-757680Y964010D01*
Y961310D01*
X-758190Y958600D01*
X-759210Y956230D01*
X-760730Y954190D01*
X-762510Y952840D01*
X-764540Y952500D01*
G01X-749300D02*
Y972820D01*
X-743200D01*
X-741170Y971800D01*
X-739650Y969430D01*
X-739140Y966720D01*
X-739650Y964010D01*
X-740920Y961980D01*
X-743200Y960970D01*
X-749300D01*
G01X-723900Y952500D02*
Y972820D01*
X-726950Y968760D01*
G01Y952500D02*
X-720850D01*
G01X-816610Y1219200D02*
Y1239520D01*
X-810510D01*
X-808480Y1238500D01*
X-806960Y1236130D01*
X-806450Y1233420D01*
X-806960Y1230710D01*
X-808230Y1228680D01*
X-810510Y1227670D01*
X-816610D01*
G01X-796800Y1239520D02*
Y1224960D01*
X-795780Y1221910D01*
X-793750Y1219880D01*
X-791210Y1219200D01*
X-788670Y1219880D01*
X-786640Y1221910D01*
X-785620Y1224960D01*
Y1239520D01*
G01X-776220Y1221910D02*
X-774190Y1220220D01*
X-771910Y1219200D01*
X-769870D01*
X-767840Y1220220D01*
X-766320Y1221910D01*
X-765560Y1224280D01*
X-766060Y1226650D01*
X-767330Y1228680D01*
X-769620Y1230040D01*
X-772670Y1230710D01*
X-774450Y1232070D01*
X-775210Y1234440D01*
X-774700Y1236810D01*
X-773430Y1238500D01*
X-771650Y1239520D01*
X-769870D01*
X-768100Y1238840D01*
X-766570Y1237150D01*
G01X-756160Y1219200D02*
Y1239520D01*
G01X-746510D02*
X-756160Y1226990D01*
G01X-744980Y1219200D02*
X-751840Y1232750D01*
G01X-730250Y1219200D02*
Y1239520D01*
X-733300Y1235460D01*
G01Y1219200D02*
X-727200D01*
G01X-690880Y-69850D02*
X-692910Y-69510D01*
X-694690Y-68160D01*
X-696210Y-66120D01*
X-697230Y-63750D01*
X-697740Y-61040D01*
Y-58340D01*
X-697230Y-55630D01*
X-696210Y-53260D01*
X-694690Y-51220D01*
X-692910Y-49870D01*
X-690880Y-49530D01*
X-688850Y-49870D01*
X-687070Y-51220D01*
X-685550Y-53260D01*
X-684530Y-55630D01*
X-684020Y-58340D01*
Y-61040D01*
X-684530Y-63750D01*
X-685550Y-66120D01*
X-687070Y-68160D01*
X-688850Y-69510D01*
X-690880Y-69850D01*
G01X-675890Y-67140D02*
X-673860Y-68830D01*
X-671580Y-69850D01*
X-669540D01*
X-667510Y-68830D01*
X-665990Y-67140D01*
X-665230Y-64770D01*
X-665730Y-62400D01*
X-667000Y-60370D01*
X-669290Y-59010D01*
X-672340Y-58340D01*
X-674120Y-56980D01*
X-674880Y-54610D01*
X-674370Y-52240D01*
X-673100Y-50550D01*
X-671320Y-49530D01*
X-669540D01*
X-667770Y-50210D01*
X-666240Y-51900D01*
G01X-644650Y-51220D02*
X-646180Y-50210D01*
X-647950Y-49530D01*
X-649990D01*
X-652270Y-50550D01*
X-654050Y-52240D01*
X-655320Y-54270D01*
X-656340Y-57660D01*
X-656590Y-60710D01*
X-656080Y-63750D01*
X-655320Y-65790D01*
X-653800Y-67820D01*
X-652020Y-69170D01*
X-650240Y-69850D01*
X-648460D01*
X-646680Y-69170D01*
X-645160Y-68160D01*
X-643890Y-66800D01*
G01X-614680Y-69850D02*
Y-49530D01*
X-608580D01*
X-606550Y-50550D01*
X-605030Y-52920D01*
X-604520Y-55630D01*
X-605030Y-58340D01*
X-606300Y-60370D01*
X-608580Y-61380D01*
X-614680D01*
G01X-594360Y-69850D02*
Y-49530D01*
X-588010D01*
X-585980Y-50550D01*
X-584710Y-51900D01*
X-584200Y-54610D01*
X-584710Y-57320D01*
X-586230Y-59010D01*
X-588010Y-60030D01*
X-594360D01*
G01X-588010D02*
X-584200Y-69850D01*
G01X-574550D02*
Y-49530D01*
X-569470D01*
X-567440Y-50550D01*
X-565910Y-51900D01*
X-564640Y-53930D01*
X-563630Y-56300D01*
X-563370Y-59690D01*
X-563630Y-63080D01*
X-564640Y-65450D01*
X-565910Y-67480D01*
X-567440Y-68830D01*
X-569470Y-69850D01*
X-574550D01*
G01X-690880Y82550D02*
X-692910Y82890D01*
X-694690Y84240D01*
X-696210Y86280D01*
X-697230Y88650D01*
X-697740Y91360D01*
Y94060D01*
X-697230Y96770D01*
X-696210Y99140D01*
X-694690Y101180D01*
X-692910Y102530D01*
X-690880Y102870D01*
X-688850Y102530D01*
X-687070Y101180D01*
X-685550Y99140D01*
X-684530Y96770D01*
X-684020Y94060D01*
Y91360D01*
X-684530Y88650D01*
X-685550Y86280D01*
X-687070Y84240D01*
X-688850Y82890D01*
X-690880Y82550D01*
G01X-675890Y85260D02*
X-673860Y83570D01*
X-671580Y82550D01*
X-669540D01*
X-667510Y83570D01*
X-665990Y85260D01*
X-665230Y87630D01*
X-665730Y90000D01*
X-667000Y92030D01*
X-669290Y93390D01*
X-672340Y94060D01*
X-674120Y95420D01*
X-674880Y97790D01*
X-674370Y100160D01*
X-673100Y101850D01*
X-671320Y102870D01*
X-669540D01*
X-667770Y102190D01*
X-666240Y100500D01*
G01X-644650Y101180D02*
X-646180Y102190D01*
X-647950Y102870D01*
X-649990D01*
X-652270Y101850D01*
X-654050Y100160D01*
X-655320Y98130D01*
X-656340Y94740D01*
X-656590Y91690D01*
X-656080Y88650D01*
X-655320Y86610D01*
X-653800Y84580D01*
X-652020Y83230D01*
X-650240Y82550D01*
X-648460D01*
X-646680Y83230D01*
X-645160Y84240D01*
X-643890Y85600D01*
G01X-614680Y82550D02*
Y102870D01*
X-608580D01*
X-606550Y101850D01*
X-605030Y99480D01*
X-604520Y96770D01*
X-605030Y94060D01*
X-606300Y92030D01*
X-608580Y91020D01*
X-614680D01*
G01X-594360Y82550D02*
Y102870D01*
X-588010D01*
X-585980Y101850D01*
X-584710Y100500D01*
X-584200Y97790D01*
X-584710Y95080D01*
X-586230Y93390D01*
X-588010Y92370D01*
X-594360D01*
G01X-588010D02*
X-584200Y82550D01*
G01X-575560D02*
Y102870D01*
X-568960Y85940D01*
X-562360Y102870D01*
Y82550D01*
G01X-575310Y279400D02*
Y299720D01*
X-569210D01*
X-567180Y298700D01*
X-565660Y296330D01*
X-565150Y293620D01*
X-565660Y290910D01*
X-566930Y288880D01*
X-569210Y287870D01*
X-575310D01*
G01X-554990Y279400D02*
Y299720D01*
X-548640D01*
X-546610Y298700D01*
X-545340Y297350D01*
X-544830Y294640D01*
X-545340Y291930D01*
X-546860Y290240D01*
X-548640Y289220D01*
X-554990D01*
G01X-548640D02*
X-544830Y279400D01*
G01X-536190D02*
Y299720D01*
X-529590Y282790D01*
X-522990Y299720D01*
Y279400D01*
G01X-514100Y296330D02*
X-512570Y298370D01*
X-510790Y299380D01*
X-508760Y299720D01*
X-506220Y299040D01*
X-504440Y297350D01*
X-503940Y295320D01*
X-504190Y293280D01*
X-505210Y291590D01*
X-510290Y288210D01*
X-512570Y285830D01*
X-514100Y282450D01*
X-514600Y279400D01*
X-503940D01*
G01X-584650Y1007250D02*
G03X-585900Y1008500I-1250J0D01*
G01D02*
G03X-587150Y1007250I0J-1250D01*
G01D02*
G03X-585900Y1006000I1250J0D01*
G01D02*
G03X-584650Y1007250I0J1250D01*
G01Y1273950D02*
G03X-585900Y1275200I-1250J0D01*
G01D02*
G03X-587150Y1273950I0J-1250D01*
G01D02*
G03X-585900Y1272700I1250J0D01*
G01D02*
G03X-584650Y1273950I0J1250D01*
G01X-343350Y442100D02*
G03I-1250J0D01*
G01X-241750Y-40500D02*
G03I-1250J0D01*
G01Y111900D02*
G03I-1250J0D01*
M02*
