G04 ================== begin FILE IDENTIFICATION RECORD ==================*
G04 Layout Name:  D:/Project/Circuit/AVANT/KSZ/02v4/pcb/KSZ_02v4.brd*
G04 Film Name:    TOP*
G04 File Format:  Gerber RS274X*
G04 File Origin:  Cadence Allegro 16.6-2015-S073*
G04 Origin Date:  Tue Dec 26 10:31:59 2017*
G04 *
G04 Layer:  ETCH/TOP*
G04 Layer:  PIN/TOP*
G04 Layer:  VIA CLASS/TOP*
G04 *
G04 Offset:    (0.000 0.000)*
G04 Mirror:    No*
G04 Mode:      Positive*
G04 Rotation:  0*
G04 FullContactRelief:  No*
G04 UndefLineWidth:     0.250*
G04 ================== end FILE IDENTIFICATION RECORD ====================*
%FSLAX34Y34*MOMM*%
%IR0*IPPOS*OFA0.00000B0.00000*MIA0B0*SFA1.00000B1.00000*%
%ADD21R,1.1X.6*%
%ADD13C,1.*%
%ADD10C,4.*%
%ADD24C,2.5*%
%ADD12C,1.7*%
%ADD25R,2.5X2.5*%
%ADD11R,1.7X1.7*%
%ADD19R,1.3X1.5*%
%ADD17R,1.8X1.2*%
%ADD18R,2.3X1.8*%
%ADD16O,1.95X1.*%
%ADD14R,1.8X1.4*%
%ADD26C,.2*%
%ADD22R,1.7X1.7*%
%ADD23R,2.26X2.16*%
%ADD20R,1.55X1.025*%
%ADD15C,.8*%
%ADD27C,.5*%
G75*
%LPD*%
G75*
G54D10*
X-882650Y-193040D03*
Y695960D03*
G54D20*
X-368300Y352800D03*
Y320300D03*
Y416300D03*
Y383800D03*
Y491750D03*
Y524250D03*
X-342900Y1806950D03*
Y1774450D03*
X-298450Y1857750D03*
Y1825250D03*
G54D11*
X-857250Y-142240D03*
Y86360D03*
Y340360D03*
Y594360D03*
X-831850Y-142240D03*
X-806450D03*
X-831850Y86360D03*
X-806450D03*
X-831850Y340360D03*
X-806450D03*
X-831850Y594360D03*
X-806450D03*
G54D12*
X-857250Y-116840D03*
Y-91440D03*
Y-66040D03*
Y-40640D03*
Y-15240D03*
Y10160D03*
Y35560D03*
Y60960D03*
Y111760D03*
Y137160D03*
Y162560D03*
Y187960D03*
Y213360D03*
Y238760D03*
Y264160D03*
Y289560D03*
Y314960D03*
Y365760D03*
Y391160D03*
Y416560D03*
Y441960D03*
Y467360D03*
Y492760D03*
Y518160D03*
Y543560D03*
Y568960D03*
Y619760D03*
Y645160D03*
X-831850Y-116840D03*
Y-91440D03*
X-806450Y-116840D03*
Y-91440D03*
X-831850Y-66040D03*
Y-40640D03*
Y-15240D03*
X-806450Y-66040D03*
Y-40640D03*
Y-15240D03*
X-831850Y10160D03*
Y35560D03*
Y60960D03*
X-806450Y10160D03*
Y35560D03*
Y60960D03*
X-831850Y111760D03*
Y137160D03*
X-806450Y111760D03*
Y137160D03*
X-831850Y162560D03*
Y187960D03*
Y213360D03*
X-806450Y162560D03*
Y187960D03*
Y213360D03*
X-831850Y238760D03*
Y264160D03*
Y289560D03*
X-806450Y238760D03*
Y264160D03*
Y289560D03*
X-831850Y314960D03*
Y365760D03*
X-806450Y314960D03*
Y365760D03*
X-831850Y391160D03*
Y416560D03*
Y441960D03*
X-806450Y391160D03*
Y416560D03*
Y441960D03*
X-831850Y467360D03*
Y492760D03*
Y518160D03*
X-806450Y467360D03*
Y492760D03*
Y518160D03*
X-831850Y543560D03*
Y568960D03*
X-806450Y543560D03*
Y568960D03*
X-831850Y619760D03*
Y645160D03*
X-806450Y619760D03*
Y645160D03*
X-622300Y871350D03*
Y1046350D03*
Y1138050D03*
Y1313050D03*
X-468500Y908050D03*
Y1174750D03*
X-419100Y997350D03*
Y1047350D03*
Y1264050D03*
Y1314050D03*
X-239900Y495300D03*
Y558800D03*
Y622300D03*
Y685800D03*
X-293500Y908050D03*
X-292100Y1047350D03*
Y997350D03*
X-293500Y1174750D03*
X-292100Y1264050D03*
Y1314050D03*
X-239900Y1504950D03*
Y1568450D03*
Y1631950D03*
Y1695450D03*
X-260350Y1866900D03*
X-158750Y1816100D03*
X-184150D03*
X-209550D03*
Y1866900D03*
X-184150D03*
X-158750D03*
X-146050Y229800D03*
Y379800D03*
Y883850D03*
Y1033850D03*
Y1080700D03*
Y1277550D03*
Y1230700D03*
Y1427550D03*
X-64900Y495300D03*
Y558800D03*
Y622300D03*
Y685800D03*
Y1504950D03*
Y1568450D03*
Y1631950D03*
Y1695450D03*
G54D21*
X-321900Y1781200D03*
Y1800200D03*
X-300400Y1790700D03*
G54D22*
X-260350Y1816100D03*
G54D13*
G01X-530230Y79370D02*
X-679450Y-69850D01*
X-680380Y-70790D01*
G02X-730250Y-91440I-49862J49873D01*
G01X-806450D01*
G01Y111760D02*
X-742950D01*
G03X-710430Y125230I0J45991D01*
G01X-561950Y273710D01*
X-559510Y276160D01*
G03X-539750Y323850I-47687J47697D01*
G01Y558800D01*
G02X-521790Y602160I61321J0D01*
G01X-390530Y733420D01*
G02X-352190Y749300I38339J-38340D01*
G01X-138610D01*
G02X-107950Y736600I0J-43360D01*
G03X-94790Y731150I13159J13160D01*
G01X-63500D01*
G01X-806450Y187960D02*
X-798240Y179750D01*
G03X-787400Y175260I10840J10840D01*
G01D02*
X-762000D01*
G01X-787400D02*
G03X-798240Y170770I0J-15330D01*
G01X-806450Y162560D01*
G01X-787400Y251460D02*
X-781050D01*
G03X-759370Y260440I0J30661D01*
G01X-651100Y368710D01*
G03X-628650Y422910I-54200J54199D01*
G01Y700680D01*
G02X-603250Y762000I86720J-1D01*
G01X-555850Y809400D01*
G02X-501650Y831850I54200J-54201D01*
G01X-311150D01*
G03X-278630Y845320I0J45991D01*
G01X-196850Y927100D01*
G03X-184150Y957760I-30660J30660D01*
G01Y1036140D01*
G02X-171450Y1066800I43360J0D01*
G01X-165680Y1072570D01*
G02X-146050Y1080700I19628J-19630D01*
G01X-806450Y238760D02*
X-798240Y246970D01*
G02X-787400Y251460I10840J-10840D01*
G01D02*
G02X-798240Y255950I0J15330D01*
G01X-806450Y264160D01*
G01X-762000Y175260D02*
X-749300D01*
G03X-731950Y182440I8J24533D01*
G01X-603260Y311170D01*
G03X-590550Y341850I-30680J30683D01*
G01Y374650D01*
G01X-762000Y202960D02*
Y216230D01*
G01X-533400Y1045300D02*
X-570400D01*
G02X-570500I-50J5000D01*
G01X-622300Y1046350D01*
G01X-660400Y1046600D02*
X-637330D01*
X-637080Y1046350D01*
X-622300D01*
G01X-660400Y1074300D02*
Y1087570D01*
G01Y1341000D02*
Y1354270D01*
G01X-533400Y1310480D02*
X-616100D01*
G02X-622300Y1313050I0J8764D01*
G01X-660400Y1313300D02*
X-637330D01*
X-637080Y1313050D01*
X-622300D01*
G01X-590550Y374650D02*
Y641350D01*
G02X-572590Y684710I61321J0D01*
G01X-487860Y769440D01*
G02X-444500Y787400I43360J-43361D01*
G01X-266700D01*
G03X-225390Y804510I0J58424D01*
G01X-146050Y883850D01*
G01X-578900Y971550D02*
X-552450D01*
G03X-533400Y990600I0J19050D01*
G01Y1016000D01*
G01D02*
G02X-537890Y1005160I-15330J0D01*
G02X-557710Y996950I-19820J19820D01*
G01X-578900D01*
G01X-533400Y1089820D02*
X-552450D01*
G01X-578900Y1263650D02*
X-557710D01*
G03X-537890Y1271860I0J28030D01*
G03X-533400Y1282700I-10840J10840D01*
G01D02*
Y1257300D01*
G02X-552450Y1238250I-19050J0D01*
G01X-578900D01*
G01X-533400Y1356520D02*
X-552450D01*
G01X-482600Y62350D02*
X-497870D01*
G01X-412750Y196850D02*
X-530230Y79370D01*
G01X-482600Y90050D02*
X-504450D01*
G03X-530230Y79370I2J-36460D01*
G01X-468500Y908050D02*
Y958850D01*
G03X-481200Y971550I-12700J0D01*
G01X-487900D01*
G01X-419100Y997350D02*
X-435120D01*
X-435520Y996950D01*
X-487900D01*
G01X-533400Y1045300D02*
Y1043780D01*
G01X-419100Y1047350D02*
X-513380D01*
G03X-515840Y1046330I-3J-3470D01*
G02X-518320Y1045300I-2480J2470D01*
G01X-533400D01*
G01Y1016000D02*
Y1043780D01*
G01Y1089820D02*
X-514350D01*
G01X-533400D02*
Y1105090D01*
G01X-487900Y1238250D02*
X-481200D01*
G02X-468500Y1225550I0J-12700D01*
G01Y1174750D01*
G01X-419100Y1264050D02*
X-435120D01*
X-435520Y1263650D01*
X-487900D01*
G01X-533400Y1282700D02*
Y1310480D01*
G01Y1356520D02*
X-514350D01*
G01X-533400D02*
Y1371790D01*
G01Y1310480D02*
X-427720D01*
G03X-419100Y1314050I1J12190D01*
G01X-412750Y196850D02*
X-407860Y201740D01*
G02X-340120Y229800I67742J-67740D01*
G01X-146050D01*
G01X-406400Y228600D02*
Y212180D01*
G02X-412750Y196850I-21680J0D01*
G01X-292100Y997350D02*
X-419100D01*
G01X-292100Y1264050D02*
X-419100D01*
G01X-145000Y-76200D02*
X-165100D01*
G03X-186780Y-85180I0J-30660D01*
G01X-196080Y-94480D01*
G02X-228600Y-107950I-32520J32521D01*
G01X-298450D01*
G02X-309290Y-103460I0J15330D01*
G01X-319360Y-93390D01*
G03X-330200Y-88900I-10840J-10840D01*
G01X-352200D01*
G01X-145000Y-50800D02*
X-165100D01*
G02X-186780Y-41820I0J30660D01*
G01X-196080Y-32520D01*
G03X-228600Y-19050I-32520J-32521D01*
G01X-298450D01*
G03X-309290Y-23540I0J-15330D01*
G01X-319360Y-33610D01*
G02X-330200Y-38100I-10840J10840D01*
G01X-352200D01*
G01X-145000Y76200D02*
X-165100D01*
G03X-186780Y67220I0J-30660D01*
G01X-196080Y57920D01*
G02X-228600Y44450I-32520J32521D01*
G01X-298450D01*
G02X-309290Y48940I0J15330D01*
G01X-319360Y59010D01*
G03X-330200Y63500I-10840J-10840D01*
G01X-352200D01*
G01X-145000Y101600D02*
X-165100D01*
G02X-186780Y110580I0J30660D01*
G01X-196080Y119880D01*
G03X-228600Y133350I-32520J-32521D01*
G01X-298450D01*
G03X-309290Y128860I0J-15330D01*
G01X-319360Y118790D01*
G02X-330200Y114300I-10840J10840D01*
G01X-352200D01*
G01X-279400Y509150D02*
X-292250D01*
G02X-304800Y514350I2J17750D01*
G03X-314380Y518320I-9582J-9580D01*
G01X-323850D01*
G01D02*
G03X-327910Y516640I0J-5746D01*
G01X-346330Y498220D01*
G02X-361950Y491750I-15620J15620D01*
G01X-368300D01*
G01X-323850Y472280D02*
Y487550D01*
G01Y472280D02*
X-306080D01*
G01X-279400Y581820D02*
X-288870D01*
G03X-298450Y577850I3J-13550D01*
G02X-311000Y572650I-12552J12550D01*
G01X-323850D01*
G01Y544950D02*
X-308580D01*
G01X-368300Y524250D02*
X-354280D01*
G01X-323850Y645320D02*
X-314380D01*
G02X-304800Y641350I-3J-13550D01*
G03X-292250Y636150I12552J12550D01*
G01X-279400D01*
G01X-323850Y671950D02*
X-308580D01*
G01X-323850Y599280D02*
Y614550D01*
G01Y599280D02*
X-306080D01*
G01X-323850Y699650D02*
X-301540D01*
G03X-279400Y708820I1J31310D01*
G01Y1559720D02*
G02X-301540Y1550550I-22139J22140D01*
G01X-323850D01*
G01X-279400Y1513680D02*
G03X-301540Y1522850I-22139J-22140D01*
G01X-323850D01*
G01X-279400Y1640680D02*
G03X-301540Y1649850I-22139J-22140D01*
G01X-323850D01*
G01X-279400Y1686720D02*
G02X-301540Y1677550I-22139J22140D01*
G01X-323850D01*
G01X-266700Y-78250D02*
Y-65980D01*
G01Y74150D02*
Y86420D01*
G01X-246600Y406400D02*
Y431800D01*
G01X-239900Y495300D02*
Y448850D01*
G02X-241360Y445320I-5000J1D01*
G01X-245140Y441540D01*
G03X-246600Y438010I3540J-3531D01*
G01Y431800D01*
G01X-239900Y495300D02*
X-244600Y499990D01*
G03X-266700Y509150I-22107J-22097D01*
G01X-279400D01*
G01Y481450D02*
X-264130D01*
G01X-279400Y581820D02*
X-262920D01*
G02X-239900Y558800I0J-23020D01*
G01X-279400Y535780D02*
X-261630D01*
G01X-279400D02*
Y551050D01*
G01X-239900Y622300D02*
X-244600Y626990D01*
G03X-266700Y636150I-22107J-22097D01*
G01X-279400D01*
G01Y662780D02*
Y678050D01*
G01Y662780D02*
X-261630D01*
G01X-279400Y608450D02*
X-264130D01*
G01X-279400Y708820D02*
X-262920D01*
G02X-239900Y685800I0J-23020D01*
G01X-293500Y908050D02*
X-260130Y941420D01*
G03X-247650Y971550I-30130J30130D01*
G01Y1055190D01*
G02X-234950Y1085850I43360J0D01*
G01X-292100Y1047350D02*
G03X-260260Y1060540I0J45025D01*
G01X-234950Y1085850D01*
G01X-215900Y1333500D02*
G03X-241300Y1308100I0J-25400D01*
G01Y1246140D01*
G02X-260350Y1200150I-65040J0D01*
G01X-280270Y1180230D01*
G02X-293500Y1174750I-13230J13230D01*
G01X-292100Y1314050D02*
G02X-245140Y1333500I46958J-46960D01*
G01X-215900D01*
G01X-279400Y1513680D02*
X-260980D01*
G02X-239900Y1504950I2J-29810D01*
G01X-279400Y1559720D02*
X-260980D01*
G03X-239900Y1568450I2J29810D01*
G01X-279400Y1640680D02*
X-260980D01*
G02X-239900Y1631950I2J-29810D01*
G01X-279400Y1686720D02*
X-260980D01*
G03X-239900Y1695450I2J29810D01*
G01X-146050Y1428750D02*
Y1644650D01*
G03X-159520Y1677170I-45990J0D01*
G01X-234180Y1751830D01*
G03X-266700Y1765300I-32520J-32521D01*
G01X-311150D01*
G01X-236000Y-76200D02*
X-219980D01*
G01X-236000Y76200D02*
X-219980D01*
G01X-234950Y1085850D02*
X-115070Y1205730D01*
G03X-101600Y1238250I-32520J32520D01*
G01Y1282700D01*
G02X-77100Y1307200I24500J0D01*
G01X-63500D01*
G01X-215900Y1333500D02*
X-177800D01*
G03X-156120Y1342480I0J30660D01*
G01X-112110Y1386480D01*
G02X-88900Y1396100I23217J-23207D01*
G01X-63500D01*
G01X-69850Y1802500D02*
X-85810D01*
G03X-114300Y1790700I-1J-40290D01*
G02X-129630Y1784350I-15330J15330D01*
G01X-165100D01*
G02X-184150Y1803400I0J19050D01*
G01Y1816100D01*
G01Y1866900D02*
Y1816100D01*
G01X-69850Y1753500D02*
X-172350D01*
G02X-209550Y1790700I0J37200D01*
G01Y1816100D01*
G01Y1866900D02*
Y1816100D01*
G01X-145000Y-76200D02*
X-116930D01*
G03X-101600Y-69850I0J21680D01*
G01X-76200Y-44450D01*
G03X-63500Y-13790I-30660J30660D01*
G01Y900D01*
G01Y49900D02*
X-82550D01*
G03X-107950Y24500I0J-25400D01*
G01Y-25400D01*
G02X-133350Y-50800I-25400J0D01*
G01X-145000D01*
G01Y101600D02*
X-133350D01*
G03X-122510Y106090I0J15330D01*
G03X-114300Y125910I-19820J19820D01*
G01Y127000D01*
G02X-109810Y137840I15330J0D01*
G01X-105760Y141880D01*
G02X-82550Y151500I23217J-23207D01*
G01X-63500D01*
G01X-145000Y76200D02*
X-123280D01*
G03X-107950Y82550I0J21680D01*
G01X-95250Y95250D01*
G02X-77750Y102500I17502J-17500D01*
G01X-63500D01*
G01X-146050Y229800D02*
X-135710D01*
G03X-107950Y241300I-2J39260D01*
G02X-83040Y251620I24913J-24910D01*
G01X-63500D01*
G01X-146050Y883850D02*
X-76120Y953780D01*
G03X-63500Y984250I-30474J30470D01*
G01Y1075530D01*
G01X-146050Y1080700D02*
Y1092200D01*
G02X-132580Y1124720I45991J0D01*
G01X-88900Y1168400D01*
G02X-71400Y1175650I17500J-17496D01*
G01X-63500D01*
G01X0Y1428750D02*
X-8210Y1436960D01*
G03X-19050Y1441450I-10840J-10840D01*
G01X-133350D01*
G03X-146050Y1428750I0J-12700D01*
G01Y1427550D02*
Y1428750D01*
G01X-158750Y1816100D02*
Y1866900D01*
G01X-69850Y1885050D02*
X-92160D01*
G03X-120650Y1873250I-1J-40290D01*
G02X-135980Y1866900I-15330J15330D01*
G01X-158750D01*
G01X-63500Y900D02*
X-900D01*
X0Y0D01*
G01X-63500Y49900D02*
X-900D01*
X0Y50800D01*
G01X-63500Y102500D02*
X-900D01*
X0Y101600D01*
G01X-63500Y151500D02*
X-900D01*
X0Y152400D01*
G01X-63500Y205580D02*
X-45730D01*
G01X-63500D02*
X-81270D01*
G01X-63500D02*
Y190310D01*
G01Y251620D02*
X-5750D01*
G03X0Y254000I0J8136D01*
G01X-63500Y307180D02*
Y291910D01*
G01Y353220D02*
X-5750D01*
G03X0Y355600I0J8136D01*
G01X-63500Y307180D02*
X-45730D01*
G01X-63500D02*
X-81270D01*
G01X-63500Y389730D02*
X-47680D01*
G03X-38100Y393700I-2J13550D01*
G01X-29890Y401910D01*
G02X-19050Y406400I10840J-10840D01*
G01X0D01*
G01X-63500Y435770D02*
Y451040D01*
G01Y435770D02*
X-45730D01*
G01X-63500D02*
X-81270D01*
G01X-64900Y495300D02*
X-53660Y506540D01*
G02X-50130Y508000I3531J-3540D01*
G01X0D01*
G01Y558800D02*
X-64900D01*
G01Y685800D02*
X-40960Y661860D01*
G03X-37430Y660400I3531J3540D01*
G01X0D01*
G01X-64900Y622300D02*
X-53660Y611060D01*
G03X-50130Y609600I3531J3540D01*
G01X0D01*
G01Y711200D02*
X-1090D01*
G02X-31750Y723900I0J43360D01*
G03X-49250Y731150I-17502J-17500D01*
G01X-63500D01*
G01Y780150D02*
Y797220D01*
G01Y780150D02*
X-45930D01*
G01X-63500D02*
X-81070D01*
G01X-63500Y1075530D02*
Y1077050D01*
X-18060Y1122490D01*
G02X-14530Y1123950I3531J-3540D01*
G01X0D01*
G01X-63500Y1121570D02*
Y1136840D01*
G01Y1121570D02*
X-81270D01*
G01X0Y1174750D02*
X-37200D01*
X-38100Y1175650D01*
X-63500D01*
G01Y1224650D02*
Y1206500D01*
G01Y1258200D02*
X-45930D01*
G01X-63500D02*
Y1276350D01*
G01Y1224650D02*
X-45930D01*
G01X-63500Y1307200D02*
X-44450D01*
G03X-35140Y1311050I8J13163D01*
G01X-31750Y1314450D01*
G02X-1090Y1327150I30660J-30660D01*
G01X0D01*
G01X-63500Y1347100D02*
X-82550D01*
G01X-63500D02*
X-44450D01*
G01X0Y1377950D02*
X-16420D01*
G02X-31750Y1384300I0J21680D01*
G01X-38430Y1390970D01*
G03X-50800Y1396100I-12377J-12367D01*
G01X-63500D01*
G01X-64900Y1504950D02*
G02X-29990Y1490490I0J-49370D01*
G01X-25400Y1485900D01*
G03X-10070Y1479550I15330J15330D01*
G01X0D01*
G01X-64900Y1568450D02*
G02X-51670Y1562970I0J-18710D01*
G01X-32520Y1543820D01*
G03X0Y1530350I32520J32521D01*
G01X-64900Y1695450D02*
G02X-62510Y1694460I4J-3370D01*
G01X0Y1631950D01*
G01X-64900D02*
G02X-40830Y1621980I0J-34040D01*
G01X0Y1581150D01*
G01Y1733550D02*
X-1090D01*
G02X-31750Y1746250I0J43360D01*
G03X-49250Y1753500I-17502J-17500D01*
G01X-69850D01*
G01Y1802500D02*
X-60240D01*
G02X-31750Y1790700I1J-40290D01*
G01D02*
G03X-16420Y1784350I15330J15330D01*
G01X0D01*
G01X-31750Y1790700D02*
G02X-38100Y1806030I15330J15330D01*
G01Y1823350D01*
G03X-50800Y1836050I-12700J0D01*
G01X-69850D01*
G01X0Y1835150D02*
Y1846950D01*
G03X-38100Y1885050I-38100J0D01*
G01X-69850D01*
G01X0Y1073150D02*
Y762000D01*
G01Y1428750D02*
X25400D01*
G02X50800Y1403350I0J-25400D01*
G01Y1143000D01*
G02X31750Y1123950I-19050J0D01*
G01X0D01*
X-806450Y-193040D03*
Y2029460D03*
X-6150Y-193040D03*
Y2029460D03*
G54D23*
X-63500Y49900D03*
Y900D03*
Y102500D03*
Y151500D03*
Y731150D03*
Y780150D03*
Y1175650D03*
Y1258200D03*
Y1224650D03*
Y1307200D03*
Y1347100D03*
Y1396100D03*
X-69850Y1802500D03*
Y1753500D03*
Y1885050D03*
Y1836050D03*
G54D14*
X-762000Y202960D03*
Y175260D03*
X-660400Y1046600D03*
Y1074300D03*
Y1341000D03*
Y1313300D03*
X-482600Y62350D03*
Y90050D03*
X-323850Y544950D03*
Y572650D03*
Y671950D03*
Y699650D03*
Y1522850D03*
Y1550550D03*
Y1649850D03*
Y1677550D03*
X-279400Y481450D03*
Y509150D03*
Y608450D03*
Y636150D03*
G54D15*
X-762000Y216230D03*
X-660400Y1087570D03*
Y1354270D03*
X-590550Y374650D03*
X-552450Y1089820D03*
Y1356520D03*
X-497870Y62350D03*
X-533400Y1105090D03*
X-514350Y1089820D03*
Y1356520D03*
X-533400Y1371790D03*
X-412750Y-44450D03*
Y107950D03*
X-406400Y228600D03*
Y304800D03*
X-431800Y374650D03*
X-323850Y487550D03*
X-354280Y524250D03*
X-323850Y614550D03*
X-292100Y-63500D03*
X-266700Y-65980D03*
X-292100Y88900D03*
X-266700Y86420D03*
X-264130Y481450D03*
X-306080Y472280D03*
X-261630Y535780D03*
X-308580Y544950D03*
X-279400Y551050D03*
X-306080Y599280D03*
X-264130Y608450D03*
X-308580Y671950D03*
X-261630Y662780D03*
X-279400Y678050D03*
X-219980Y-76200D03*
Y76200D03*
X-63500Y190310D03*
X-81270Y205580D03*
X-45730D03*
X-63500Y291910D03*
X-81270Y307180D03*
X-45730D03*
Y435770D03*
X-81270D03*
X-63500Y451040D03*
Y797220D03*
X-81070Y780150D03*
X-45930D03*
X-81270Y1121570D03*
X-63500Y1206500D03*
Y1136840D03*
Y1276350D03*
X-45930Y1224650D03*
Y1258200D03*
X-44450Y1347100D03*
X-82550D03*
G54D24*
X0Y50800D03*
Y101600D03*
Y203200D03*
Y152400D03*
Y254000D03*
Y355600D03*
Y304800D03*
Y406400D03*
Y508000D03*
Y457200D03*
Y558800D03*
Y660400D03*
Y609600D03*
Y711200D03*
Y762000D03*
Y1123950D03*
Y1174750D03*
Y1276350D03*
Y1225550D03*
Y1327150D03*
Y1428750D03*
Y1377950D03*
Y1479550D03*
Y1581150D03*
Y1530350D03*
Y1631950D03*
Y1733550D03*
Y1682750D03*
Y1784350D03*
Y1835150D03*
G54D16*
X-578900Y971550D03*
Y996950D03*
Y1238250D03*
Y1263650D03*
X-487900Y971550D03*
Y996950D03*
Y1263650D03*
Y1238250D03*
X-337600Y406400D03*
Y431800D03*
X-236000Y-76200D03*
Y-50800D03*
Y76200D03*
Y101600D03*
X-246600Y431800D03*
Y406400D03*
X-145000Y-50800D03*
Y-76200D03*
Y101600D03*
Y76200D03*
G54D25*
X0Y0D03*
Y1073150D03*
G54D26*
G01X-857250Y-116840D02*
X-849040Y-125050D01*
G03X-838200Y-129540I10840J10840D01*
G01X-825500D01*
G03X-814660Y-125050I0J15330D01*
G01X-806450Y-116840D01*
G01X-857250Y-142240D02*
X-849040Y-150450D01*
G03X-838200Y-154940I10840J10840D01*
G01X-825500D01*
G03X-814660Y-150450I0J15330D01*
G01X-806450Y-142240D01*
G01X-857250Y-91440D02*
X-849040Y-99650D01*
G03X-838200Y-104140I10840J10840D01*
G01X-825500D01*
G03X-814660Y-99650I0J15330D01*
G01X-806450Y-91440D01*
G01D02*
X-814660Y-83230D01*
G03X-825500Y-78740I-10840J-10840D01*
G01X-838200D01*
G03X-849040Y-83230I0J-15330D01*
G01X-857250Y-91440D01*
G01X-806450Y-15240D02*
X-814660Y-7030D01*
G03X-825500Y-2540I-10840J-10840D01*
G01X-838200D01*
G03X-849040Y-7030I0J-15330D01*
G01X-857250Y-15240D01*
G01X-806450Y-40640D02*
X-814660Y-32430D01*
G03X-825500Y-27940I-10840J-10840D01*
G01X-838200D01*
G03X-849040Y-32430I0J-15330D01*
G01X-857250Y-40640D01*
G01X-806450Y-66040D02*
X-814660Y-57830D01*
G03X-825500Y-53340I-10840J-10840D01*
G01X-838200D01*
G03X-849040Y-57830I0J-15330D01*
G01X-857250Y-66040D01*
G01X-806450Y60960D02*
X-814660Y69170D01*
G03X-825500Y73660I-10840J-10840D01*
G01X-838200D01*
G03X-849040Y69170I0J-15330D01*
G01X-857250Y60960D01*
G01X-806450Y35560D02*
X-814660Y43770D01*
G03X-825500Y48260I-10840J-10840D01*
G01X-838200D01*
G03X-849040Y43770I0J-15330D01*
G01X-857250Y35560D01*
G01X-806450Y10160D02*
X-814660Y18370D01*
G03X-825500Y22860I-10840J-10840D01*
G01X-838200D01*
G03X-849040Y18370I0J-15330D01*
G01X-857250Y10160D01*
G01X-806450Y111760D02*
X-814660Y119970D01*
G03X-825500Y124460I-10840J-10840D01*
G01X-838200D01*
G03X-849040Y119970I0J-15330D01*
G01X-857250Y111760D01*
G01D02*
X-849040Y103550D01*
G03X-838200Y99060I10840J10840D01*
G01X-825500D01*
G03X-814660Y103550I0J15330D01*
G01X-806450Y111760D01*
G01Y187960D02*
X-814660Y196170D01*
G03X-825500Y200660I-10840J-10840D01*
G01X-838200D01*
G03X-849040Y196170I0J-15330D01*
G01X-857250Y187960D01*
G01X-838200Y175260D02*
G03X-849040Y170770I0J-15330D01*
G01X-857250Y162560D01*
G01Y187960D02*
X-849040Y179750D01*
G03X-838200Y175260I10840J10840D01*
G01X-857250Y162560D02*
X-849040Y154350D01*
G03X-838200Y149860I10840J10840D01*
G01X-825500D01*
G03X-814660Y154350I0J15330D01*
G01X-806450Y162560D01*
G01Y264160D02*
X-814660Y272370D01*
G03X-825500Y276860I-10840J-10840D01*
G01X-838200D01*
G03X-849040Y272370I0J-15330D01*
G01X-857250Y264160D01*
G01X-838200Y251460D02*
G03X-849040Y246970I0J-15330D01*
G01X-857250Y238760D01*
G01Y264160D02*
X-849040Y255950D01*
G03X-838200Y251460I10840J10840D01*
G01X-857250Y238760D02*
X-849040Y230550D01*
G03X-838200Y226060I10840J10840D01*
G01X-825500D01*
G03X-814660Y230550I0J15330D01*
G01X-806450Y238760D01*
G01X-838200Y378460D02*
G03X-849040Y373970I0J-15330D01*
G01X-857250Y365760D01*
G01Y314960D02*
X-849040Y306750D01*
G03X-838200Y302260I10840J10840D01*
G01X-825500D01*
G03X-814660Y306750I0J15330D01*
G01X-806450Y314960D01*
G01D02*
X-814660Y323170D01*
G03X-825500Y327660I-10840J-10840D01*
G01X-838200D01*
G03X-849040Y323170I0J-15330D01*
G01X-857250Y314960D01*
G01X-806450Y340360D02*
X-814660Y348570D01*
G03X-825500Y353060I-10840J-10840D01*
G01X-838200D01*
G03X-849040Y348570I0J-15330D01*
G01X-857250Y340360D01*
G01X-806450Y441960D02*
X-814660Y450170D01*
G03X-825500Y454660I-10840J-10840D01*
G01X-838200D01*
G03X-849040Y450170I0J-15330D01*
G01X-857250Y441960D01*
G01X-806450Y391160D02*
X-814660Y399370D01*
G03X-825500Y403860I-10840J-10840D01*
G01X-838200D01*
G03X-849040Y399370I0J-15330D01*
G01X-857250Y391160D01*
G01D02*
X-849040Y382950D01*
G03X-838200Y378460I10840J10840D01*
G01X-806450Y416560D02*
X-814660Y424770D01*
G03X-825500Y429260I-10840J-10840D01*
G01X-838200D01*
G03X-849040Y424770I0J-15330D01*
G01X-857250Y416560D01*
G01X-806450Y518160D02*
X-814660Y526370D01*
G03X-825500Y530860I-10840J-10840D01*
G01X-838200D01*
G03X-849040Y526370I0J-15330D01*
G01X-857250Y518160D01*
G01X-806450Y492760D02*
X-814660Y500970D01*
G03X-825500Y505460I-10840J-10840D01*
G01X-838200D01*
G03X-849040Y500970I0J-15330D01*
G01X-857250Y492760D01*
G01X-806450Y467360D02*
X-814660Y475570D01*
G03X-825500Y480060I-10840J-10840D01*
G01X-838200D01*
G03X-849040Y475570I0J-15330D01*
G01X-857250Y467360D01*
G01X-806450Y568960D02*
X-814660Y577170D01*
G03X-825500Y581660I-10840J-10840D01*
G01X-838200D01*
G03X-849040Y577170I0J-15330D01*
G01X-857250Y568960D01*
G01X-806450Y543560D02*
X-814660Y551770D01*
G03X-825500Y556260I-10840J-10840D01*
G01X-838200D01*
G03X-849040Y551770I0J-15330D01*
G01X-857250Y543560D01*
G01X-806450Y162560D02*
X-814660Y170770D01*
G03X-825500Y175260I-10840J-10840D01*
G01D02*
G03X-814660Y179750I0J15330D01*
G01X-806450Y187960D01*
G01X-838200Y175260D02*
X-825500D01*
G01Y251460D02*
G03X-814660Y255950I0J15330D01*
G01X-806450Y264160D01*
G01Y238760D02*
X-814660Y246970D01*
G03X-825500Y251460I-10840J-10840D01*
G01X-838200D02*
X-825500D01*
G01X-806450Y365760D02*
X-814660Y373970D01*
G03X-825500Y378460I-10840J-10840D01*
G01D02*
G03X-814660Y382950I0J15330D01*
G01X-806450Y391160D01*
G01X-838200Y378460D02*
X-825500D01*
X82750Y-193040D03*
Y2029460D03*
G54D17*
X-482600Y-97300D03*
Y-67800D03*
Y40150D03*
Y10650D03*
X-393700Y351300D03*
Y321800D03*
Y414800D03*
Y385300D03*
Y1775950D03*
Y1805450D03*
X-368300Y1775950D03*
Y1805450D03*
X-266700Y-48750D03*
Y-78250D03*
X-292100Y-48750D03*
Y-78250D03*
X-266700Y103650D03*
Y74150D03*
X-292100Y103650D03*
Y74150D03*
G54D27*
G01X-482600Y10650D02*
Y0D01*
G02X-487090Y-10840I-15330J0D01*
G01X-581420Y-105170D01*
G02X-609600Y-116840I-28181J28190D01*
G01X-806450D01*
G01Y-142240D02*
X-585520D01*
G03X-533400Y-120650I-2J73710D01*
G01X-514350Y-101600D01*
G02X-503970Y-97300I10381J-10380D01*
G01X-482600D01*
G01X-806450Y-15240D02*
X-747650D01*
G03X-722280Y-4730I-2J35880D01*
G01X-470670Y246880D01*
G03X-457200Y279400I-32521J32520D01*
G01Y419100D01*
G02X-443730Y451620I45991J0D01*
G01X-416660Y478690D01*
G02X-385130Y491750I31530J-31531D01*
G01X-368300D01*
G01X-806450Y-40640D02*
X-745360D01*
G03X-723900Y-31750I-1J30350D01*
G01X-415380Y276770D01*
G02X-393700Y285750I21680J-21681D01*
G01X-361950D01*
G03X-340270Y294730I0J30661D01*
G01X-317500Y317500D01*
G02X-286840Y330200I30660J-30660D01*
G01X-170360D01*
G03X-139700Y342900I0J43360D01*
G01X-102450Y380150D01*
G02X-79320Y389730I23130J-23133D01*
G01X-63500D01*
G01Y353220D02*
X-83150D01*
G03X-107870Y342980I0J-34958D01*
G01X-127000Y323850D01*
G02X-157660Y311150I-30660J30660D01*
G01X-280490D01*
G03X-311150Y298450I0J-43360D01*
G01X-333920Y275680D01*
G02X-355600Y266700I-21680J21681D01*
G01X-387350D01*
G03X-409030Y257720I0J-30661D01*
G01X-717550Y-50800D01*
X-721110Y-54370D01*
G02X-749300Y-66040I-28182J28193D01*
G01X-806450D01*
G01X-323850Y699650D02*
X-342900D01*
G03X-351770Y695970I7J-12547D01*
G01X-361950Y685800D01*
X-500880Y546870D01*
G03X-514350Y514350I32521J-32520D01*
G01Y297360D01*
G02X-527050Y266700I-43360J0D01*
G01X-720230Y73520D01*
X-725600Y68140D01*
G02X-742950Y60960I-17342J17353D01*
G01X-806450D01*
G01X-323850Y645320D02*
X-351030D01*
G03X-388500Y629800I-1J-52990D01*
G01X-477400Y540900D01*
X-484690Y533600D01*
G03X-495300Y508000I25597J-25607D01*
G01Y291010D01*
G02X-508000Y260350I-43360J0D01*
G01X-721880Y46470D01*
X-725600Y42740D01*
G02X-742950Y35560I-17342J17353D01*
G01X-806450D01*
G01Y10160D02*
X-742950D01*
G03X-725600Y17340I8J24533D01*
G01X-723900Y19050D01*
X-489720Y253230D01*
G03X-476250Y285750I-32521J32520D01*
G01Y457200D01*
G02X-462780Y489720I45991J0D01*
G01X-400050Y552450D01*
G02X-351280Y572650I48768J-48770D01*
G01X-323850D01*
G01X-806450Y340360D02*
X-793530D01*
G03X-787400Y342900I-1J8670D01*
G01X-698500Y431800D01*
G03X-679450Y477790I-45990J45990D01*
G01Y977100D01*
G02X-670090Y999700I31960J2D01*
G02X-666750Y1003300I49316J-42405D01*
G03X-660400Y1018630I-15330J15330D01*
G01Y1046600D01*
G01X-806450Y416560D02*
X-793530D01*
G03X-787400Y419100I-1J8670D01*
G01X-717550Y488950D01*
G03X-698500Y534940I-45990J45990D01*
G01Y1209370D01*
G02X-688410Y1233730I34450J0D01*
G02X-678360Y1245690I74006J-51985D01*
G03X-660400Y1289050I-43361J43360D01*
G01Y1313300D01*
G01X-806450Y518160D02*
X-793530D01*
G03X-787400Y520700I-1J8670D01*
G01X-758280Y549820D01*
G03X-749300Y571500I-21680J21680D01*
G01Y1410790D01*
G02X-736600Y1441450I43360J0D01*
G01X-529680Y1648370D01*
G02X-508000Y1657350I21680J-21681D01*
G01X-355600D01*
G02X-346550Y1653600I0J-12795D01*
G03X-337500Y1649850I9052J9050D01*
G01X-323850D01*
G01X-806450Y492760D02*
X-796160D01*
G03X-774700Y501650I-1J30350D01*
G01X-743720Y532630D01*
G03X-730250Y565150I-32520J32520D01*
G01Y1404440D01*
G02X-717550Y1435100I43360J0D01*
G01X-623070Y1529580D01*
G02X-590550Y1543050I32520J-32521D01*
G01X-355600D01*
G03X-346550Y1546800I0J12795D01*
G02X-337500Y1550550I9052J-9050D01*
G01X-323850D01*
G01X-806450Y467360D02*
X-796160D01*
G03X-774700Y476250I-1J30350D01*
G01X-736600Y514350D01*
G03X-717550Y560340I-45990J45990D01*
G01Y1398090D01*
G02X-704850Y1428750I43360J0D01*
G01X-609600Y1524000D01*
G02X-594270Y1530350I15330J-15330D01*
G01X-355600D01*
G02X-346550Y1526600I0J-12795D01*
G03X-337500Y1522850I9052J9050D01*
G01X-323850D01*
G01X-393700Y1775950D02*
X-475940D01*
G03X-501650Y1765300I1J-36360D01*
G01X-803820Y1463130D01*
G03X-812800Y1441450I21681J-21680D01*
G01Y760910D01*
G03X-800100Y730250I43360J0D01*
G01X-790030Y720180D01*
G02X-781050Y698500I-21681J-21680D01*
G01Y581440D01*
G02X-793530Y568960I-12480J0D01*
G01X-806450D01*
G01Y543560D02*
X-793530D01*
G03X-787400Y546100I-1J8670D01*
G01X-774700Y558800D01*
G03X-762000Y589460I-30660J30660D01*
G01Y1416050D01*
G02X-748530Y1448570I45991J0D01*
G01X-540520Y1656580D01*
G02X-508000Y1670050I32520J-32521D01*
G01X-355600D01*
G03X-346550Y1673800I0J12795D01*
G02X-337500Y1677550I9052J-9050D01*
G01X-323850D01*
G01X-435200Y-63500D02*
X-450850D01*
G03X-456040Y-65650I0J-7339D01*
G02X-461230Y-67800I-5190J5190D01*
G01X-482600D01*
G01Y40150D02*
X-473930D01*
G03X-463550Y44450I-1J14680D01*
G01X-461690Y46310D01*
G03X-457200Y57150I-10840J10840D01*
G01Y76200D01*
G02X-444500Y88900I12700J0D01*
G01X-435200D01*
G01Y114300D02*
G03X-474720Y97930I0J-55889D01*
G01X-482600Y90050D01*
G01X-435200Y-38100D02*
X-421170D01*
G02X-417640Y-39560I-1J-5000D01*
G01X-412750Y-44450D01*
G01Y107950D02*
Y-44450D01*
G01Y107950D02*
X-417640Y112840D01*
G03X-421170Y114300I-3531J-3540D01*
G01X-435200D01*
G01X-393700Y321800D02*
X-371920D01*
G02X-368300Y320300I-1J-5120D01*
G01X-406400Y304800D02*
G02X-403360Y312140I10381J0D01*
G01X-393700Y321800D01*
G01Y351300D02*
X-371920D01*
G03X-368300Y352800I-1J5120D01*
G01X-393700Y385300D02*
X-371920D01*
G02X-368300Y383800I-1J-5120D01*
G01X-393700Y385300D02*
X-406090D01*
G03X-431800Y374650I1J-36360D01*
G01X-393700Y414800D02*
X-371920D01*
G03X-368300Y416300I-1J5120D01*
G01X-393700Y1805450D02*
X-368300D01*
G01Y352800D02*
X-352290D01*
G03X-330200Y361950I0J31240D01*
G01X-317500Y374650D01*
G03X-311150Y389980I-15330J15330D01*
G01Y419100D01*
G03X-323850Y431800I-12700J0D01*
G01X-337600D01*
G01Y406400D02*
G02X-346650Y410150I2J12800D01*
G01X-349250Y412750D01*
G03X-357820Y416300I-8570J-8570D01*
G01X-368300D01*
G01X-336550Y1758950D02*
X-361950D01*
G02X-368300Y1765300I0J6350D01*
G01Y1775950D01*
G01X-342900Y1774450D02*
Y1765300D01*
G03X-336550Y1758950I6350J0D01*
G01X-311150Y1765300D02*
X-313010Y1763440D01*
G02X-323850Y1758950I-10840J10840D01*
G01X-336550D01*
G01X-321900Y1781200D02*
Y1776050D01*
G03X-311150Y1765300I10750J0D01*
G01X-342900Y1806950D02*
X-364680D01*
G03X-368300Y1805450I1J-5120D01*
G01X-321900Y1800200D02*
X-326600D01*
G02X-342900Y1806950I-2J23050D01*
G01X-292100Y-78250D02*
Y-63500D01*
G01X-266700Y-48750D02*
X-240950D01*
G02X-236000Y-50800I0J-7000D01*
G01X-292100Y-48750D02*
X-266700D01*
G01X-292100Y74150D02*
Y88900D01*
G01X-266700Y103650D02*
X-240950D01*
G02X-236000Y101600I0J-7001D01*
G01X-292100Y103650D02*
X-266700D01*
G01X-300400Y1790700D02*
Y1820540D01*
G02X-298450Y1825250I6660J1D01*
G01Y1857750D02*
X-282440D01*
G03X-260350Y1866900I0J31240D01*
G01X-298450Y1825250D02*
X-282440D01*
G02X-260350Y1816100I0J-31240D01*
G54D18*
X-533400Y1043780D03*
Y1089820D03*
Y1310480D03*
Y1356520D03*
X-323850Y518320D03*
Y472280D03*
Y599280D03*
Y645320D03*
X-279400Y581820D03*
Y535780D03*
Y662780D03*
Y708820D03*
Y1513680D03*
Y1559720D03*
Y1640680D03*
Y1686720D03*
X-63500Y205580D03*
Y251620D03*
Y353220D03*
Y307180D03*
Y389730D03*
Y435770D03*
Y1075530D03*
Y1121570D03*
G54D19*
X-435200Y-88900D03*
Y-63500D03*
Y-38100D03*
Y63500D03*
Y88900D03*
Y114300D03*
X-352200Y-88900D03*
Y-38100D03*
Y-63500D03*
Y63500D03*
Y114300D03*
Y88900D03*
M02*
