G04 ================== begin FILE IDENTIFICATION RECORD ==================*
G04 Layout Name:  D:/Project/Circuit/ORCAD/KSZ/02v3/pcb/KSZ_02v3.brd*
G04 Film Name:    MASK_BOT*
G04 File Format:  Gerber RS274X*
G04 File Origin:  Cadence Allegro 16.6-S018*
G04 Origin Date:  Wed Nov 27 09:27:39 2013*
G04 *
G04 Layer:  VIA CLASS/SOLDERMASK_BOTTOM*
G04 Layer:  PIN/SOLDERMASK_BOTTOM*
G04 Layer:  PACKAGE GEOMETRY/SOLDERMASK_BOTTOM*
G04 *
G04 Offset:    (0.000 0.000)*
G04 Mirror:    No*
G04 Mode:      Positive*
G04 Rotation:  0*
G04 FullContactRelief:  No*
G04 UndefLineWidth:     0.000*
G04 ================== end FILE IDENTIFICATION RECORD ====================*
%FSLAX34Y34*MOMM*%
%IR0*IPPOS*OFA0.00000B0.00000*MIA0B0*SFA1.00000B1.00000*%
%ADD16C,2.*%
%ADD10C,4.2*%
%ADD14C,2.15*%
%ADD17C,2.7*%
%ADD13C,1.8*%
%ADD19C,2.8*%
%ADD11C,1.75*%
%ADD15R,2.15X2.15*%
%ADD12R,1.75X1.75*%
%ADD18R,2.7X2.7*%
%LPD*%
G75*
G54D10*
X-882650Y-193040D03*
Y695960D03*
G54D11*
X-857250Y-91440D03*
Y-116840D03*
Y-15240D03*
Y-40640D03*
Y-66040D03*
Y60960D03*
Y35560D03*
Y10160D03*
Y137160D03*
Y111760D03*
Y213360D03*
Y187960D03*
Y162560D03*
Y289560D03*
Y264160D03*
Y238760D03*
Y365760D03*
Y314960D03*
Y441960D03*
Y416560D03*
Y391160D03*
Y518160D03*
Y492760D03*
Y467360D03*
Y568960D03*
Y543560D03*
Y645160D03*
Y619760D03*
X-806450Y-91440D03*
Y-116840D03*
Y-15240D03*
Y-40640D03*
Y-66040D03*
Y60960D03*
Y35560D03*
Y10160D03*
Y137160D03*
Y111760D03*
Y213360D03*
Y187960D03*
Y162560D03*
Y289560D03*
Y264160D03*
Y238760D03*
Y365760D03*
Y314960D03*
Y441960D03*
Y416560D03*
Y391160D03*
Y518160D03*
Y492760D03*
Y467360D03*
Y568960D03*
Y543560D03*
Y645160D03*
Y619760D03*
X-260050Y1866900D03*
X-158450Y1816100D03*
X-183850D03*
X-209250D03*
Y1866900D03*
X-183850D03*
X-158450D03*
G54D12*
X-857250Y-142240D03*
Y86360D03*
Y340360D03*
Y594360D03*
X-806450Y-142240D03*
Y86360D03*
Y340360D03*
Y594360D03*
X-260050Y1816100D03*
G54D13*
X-622300Y871350D03*
Y1046350D03*
Y1138050D03*
Y1313050D03*
X-468500Y908050D03*
Y1174750D03*
X-239900Y495300D03*
Y558800D03*
Y622300D03*
Y685800D03*
X-293500Y908050D03*
Y1174750D03*
X-239900Y1504950D03*
Y1568450D03*
Y1631950D03*
Y1695450D03*
X-64900Y495300D03*
Y558800D03*
Y622300D03*
Y685800D03*
Y1504950D03*
Y1568450D03*
Y1631950D03*
Y1695450D03*
G54D14*
X-419100Y997350D03*
Y1264050D03*
X-292100Y1047350D03*
Y1314050D03*
G54D15*
X-419100Y1047350D03*
Y1314050D03*
X-292100Y997350D03*
Y1264050D03*
G54D16*
X-146050Y229800D03*
Y379800D03*
Y883850D03*
Y1033850D03*
Y1080700D03*
Y1277550D03*
Y1230700D03*
Y1427550D03*
G54D17*
X0Y0D03*
Y50800D03*
Y101600D03*
Y152400D03*
Y203200D03*
Y254000D03*
Y355600D03*
Y304800D03*
Y406400D03*
Y457200D03*
Y508000D03*
Y558800D03*
Y609600D03*
Y660400D03*
Y711200D03*
Y1073150D03*
Y1123950D03*
Y1174750D03*
Y1225550D03*
Y1276350D03*
Y1327150D03*
Y1428750D03*
Y1377950D03*
Y1479550D03*
Y1530350D03*
Y1581150D03*
Y1631950D03*
Y1682750D03*
Y1733550D03*
Y1784350D03*
G54D18*
Y762000D03*
Y1835150D03*
G54D19*
X82750Y-193040D03*
Y2029460D03*
M02*
