G04 ================== begin FILE IDENTIFICATION RECORD ==================*
G04 Layout Name:  D:/Project/Circuit/ORCAD/KSZ/02v3/pcb/KSZ_02v3.brd*
G04 Film Name:    TOP*
G04 File Format:  Gerber RS274X*
G04 File Origin:  Cadence Allegro 16.6-S018*
G04 Origin Date:  Wed Nov 27 09:27:39 2013*
G04 *
G04 Layer:  ETCH/TOP*
G04 Layer:  PIN/TOP*
G04 Layer:  VIA CLASS/TOP*
G04 *
G04 Offset:    (0.000 0.000)*
G04 Mirror:    No*
G04 Mode:      Positive*
G04 Rotation:  0*
G04 FullContactRelief:  No*
G04 UndefLineWidth:     0.250*
G04 ================== end FILE IDENTIFICATION RECORD ====================*
%FSLAX34Y34*MOMM*%
%IR0*IPPOS*OFA0.00000B0.00000*MIA0B0*SFA1.00000B1.00000*%
%ADD13C,1.*%
%ADD10C,4.*%
%ADD24C,2.5*%
%ADD15C,1.6*%
%ADD23C,1.8*%
%ADD11C,1.55*%
%ADD18R,2.05X2.05*%
%ADD20C,1.95*%
%ADD12R,1.55X1.55*%
%ADD21R,1.95X1.95*%
%ADD19O,2.X1.75*%
%ADD16O,1.95X1.*%
%ADD25R,2.5X2.5*%
%ADD17R,1.75X1.*%
%ADD26C,.2*%
%ADD14R,1.8X1.25*%
%ADD22R,1.75X1.15*%
%ADD27C,.5*%
G75*
%LPD*%
G75*
G54D10*
X-882650Y-193040D03*
Y695960D03*
G54D20*
X-419100Y997350D03*
Y1264050D03*
X-292100Y1047350D03*
Y1314050D03*
G54D11*
X-857250Y-91440D03*
Y-116840D03*
Y-15240D03*
Y-40640D03*
Y-66040D03*
Y60960D03*
Y35560D03*
Y10160D03*
Y137160D03*
Y111760D03*
Y213360D03*
Y187960D03*
Y162560D03*
Y289560D03*
Y264160D03*
Y238760D03*
Y365760D03*
Y314960D03*
Y441960D03*
Y416560D03*
Y391160D03*
Y518160D03*
Y492760D03*
Y467360D03*
Y568960D03*
Y543560D03*
Y645160D03*
Y619760D03*
X-806450Y-91440D03*
Y-116840D03*
Y-15240D03*
Y-40640D03*
Y-66040D03*
Y60960D03*
Y35560D03*
Y10160D03*
Y137160D03*
Y111760D03*
Y213360D03*
Y187960D03*
Y162560D03*
Y289560D03*
Y264160D03*
Y238760D03*
Y365760D03*
Y314960D03*
Y441960D03*
Y416560D03*
Y391160D03*
Y518160D03*
Y492760D03*
Y467360D03*
Y568960D03*
Y543560D03*
Y645160D03*
Y619760D03*
X-260050Y1866900D03*
X-158450Y1816100D03*
X-183850D03*
X-209250D03*
Y1866900D03*
X-183850D03*
X-158450D03*
G54D21*
X-419100Y1047350D03*
Y1314050D03*
X-292100Y997350D03*
Y1264050D03*
G54D12*
X-857250Y-142240D03*
Y86360D03*
Y340360D03*
Y594360D03*
X-806450Y-142240D03*
Y86360D03*
Y340360D03*
Y594360D03*
X-260050Y1816100D03*
G54D22*
X-368300Y353550D03*
Y319550D03*
Y417050D03*
Y383050D03*
Y491000D03*
Y525000D03*
X-298450Y1858500D03*
Y1824500D03*
G54D13*
G01X-857250Y-91440D02*
X-806450D01*
G01X-857250Y111760D02*
X-806450D01*
G01Y175260D02*
X-857250D01*
G01Y162560D02*
Y175260D01*
G01D02*
Y187960D01*
G01Y251460D02*
X-806450D01*
G01X-857250Y264160D02*
Y251460D01*
G01D02*
Y238760D01*
G01X-518400Y91200D02*
X-699580Y-89980D01*
G02X-703110Y-91440I-3531J3540D01*
G01X-806450D01*
G01X-63500Y734150D02*
X-78030D01*
G02X-81560Y735610I1J5000D01*
G01X-93790Y747840D01*
G03X-97320Y749300I-3531J-3540D01*
G01X-372580D01*
G03X-376110Y747840I1J-5000D01*
G01X-538290Y585660D01*
G03X-539750Y582130I3540J-3531D01*
G01Y297980D01*
G02X-541210Y294450I-5000J1D01*
G01X-722440Y113220D01*
G02X-725970Y111760I-3531J3540D01*
G01X-806450D01*
G01X-762000Y179310D02*
X-771570D01*
G03X-775100Y177850I1J-5000D01*
G01X-776230Y176720D01*
G02X-779760Y175260I-3531J3540D01*
G01X-806450D01*
G01Y162560D02*
Y175260D01*
G01D02*
Y187960D01*
G01Y264160D02*
Y251460D01*
G01D02*
Y238760D01*
G01X-146050Y1080700D02*
X-184750Y1042000D01*
X-184150Y1041400D01*
Y941870D01*
G02X-185610Y938340I-5000J1D01*
G01X-290640Y833310D01*
G02X-294170Y831850I-3531J3540D01*
G01X-486880D01*
G03X-490410Y830390I1J-5000D01*
G01X-627190Y693610D01*
G03X-628650Y690080I3540J-3531D01*
G01Y414820D01*
G02X-630110Y411290I-5000J1D01*
G01X-788480Y252920D01*
G02X-792010Y251460I-3531J3540D01*
G01X-806450D01*
G01X-590550Y374650D02*
Y344970D01*
G02X-592010Y341440I-5000J1D01*
G01X-752680Y180770D01*
G02X-756210Y179310I-3531J3540D01*
G01X-762000D01*
G01Y209310D02*
Y221830D01*
G01X-622300Y1046350D02*
X-570500Y1045300D01*
G03X-570400I50J5000D01*
G01X-533400D01*
G01X-654050Y1045450D02*
X-637480D01*
X-636580Y1046350D01*
X-622300D01*
G01X-654050Y1075450D02*
Y1087970D01*
G01Y1342150D02*
Y1354670D01*
G01X-622300Y1313050D02*
X-637870D01*
X-638770Y1312150D01*
X-654050D01*
G01X-533400Y1312000D02*
X-570400D01*
G02X-570500I-50J5000D01*
G01X-622300Y1313050D01*
G01X-146050Y883850D02*
X-241040Y788860D01*
G02X-244570Y787400I-3531J3540D01*
G01X-467830D01*
G03X-471360Y785940I1J-5000D01*
G01X-589090Y668210D01*
G03X-590550Y664680I3540J-3531D01*
G01Y374650D01*
G01D02*
X-577850D01*
G01X-578900Y971550D02*
Y996950D01*
G01X-533400Y1045300D02*
Y1024420D01*
G02X-534860Y1020890I-5000J1D01*
G01X-557340Y998410D01*
G02X-560870Y996950I-3531J3540D01*
G01X-578900D01*
G01X-533400Y1088300D02*
X-549920D01*
G01X-578900Y1238250D02*
Y1263650D01*
G01D02*
X-560870D01*
G03X-557340Y1265110I-1J5000D01*
G01X-534860Y1287590D01*
G03X-533400Y1291120I-3540J3531D01*
G01Y1312000D01*
G01Y1355000D02*
X-550000D01*
G01X-482600Y61200D02*
X-499350D01*
G01X-518400Y91200D02*
X-407860Y201740D01*
G01X-482600Y91200D02*
X-518400D01*
G01X-487900Y971550D02*
Y929520D01*
G03X-486440Y925990I5000J1D01*
G01X-468500Y908050D01*
G01X-419100Y997350D02*
X-435120D01*
X-435520Y996950D01*
X-487900D01*
G01X-419100Y1047350D02*
X-513380D01*
G03X-515840Y1046330I-3J-3470D01*
G02X-518320Y1045300I-2480J2470D01*
G01X-533400D01*
G01Y1088300D02*
Y1104900D01*
G01Y1088300D02*
X-516800D01*
G01X-487900Y1238250D02*
Y1196220D01*
G03X-486440Y1192690I5000J1D01*
G01X-468500Y1174750D01*
G01X-419100Y1264050D02*
X-435120D01*
X-435520Y1263650D01*
X-487900D01*
G01X-533400Y1355000D02*
Y1371600D01*
G01Y1355000D02*
X-516800D01*
G01X-419100Y1314050D02*
X-513380D01*
G03X-515840Y1313030I-3J-3470D01*
G02X-518320Y1312000I-2480J2470D01*
G01X-533400D01*
G01X-146050Y229800D02*
X-159260D01*
G02X-162790Y231260I1J5000D01*
G01X-165020Y233490D01*
G03X-168550Y234950I-3531J-3540D01*
G01X-374650D01*
X-407860Y201740D01*
G01X-406400Y228600D02*
Y205270D01*
G02X-407860Y201740I-5000J1D01*
G01X-292100Y997350D02*
X-419100D01*
G01X-292100Y1264050D02*
X-419100D01*
G01X-350200Y-88900D02*
Y-104930D01*
G03X-348740Y-108460I5000J1D01*
G01X-338010Y-119190D01*
G03X-334480Y-120650I3531J3540D01*
G01X-160820D01*
G03X-157290Y-119190I-1J5000D01*
G01X-146460Y-108360D01*
G03X-145000Y-104830I-3540J3531D01*
G01Y-76200D01*
G01X-350200Y-38100D02*
Y-22070D01*
G02X-348740Y-18540I5000J-1D01*
G01X-338010Y-7810D01*
G02X-334480Y-6350I3531J-3540D01*
G01X-160820D01*
G02X-157290Y-7810I-1J-5000D01*
G01X-146460Y-18640D01*
G02X-145000Y-22170I-3540J-3531D01*
G01Y-50800D01*
G01X-350200Y63500D02*
Y47470D01*
G03X-348740Y43940I5000J1D01*
G01X-338010Y33210D01*
G03X-334480Y31750I3531J3540D01*
G01X-160820D01*
G03X-157290Y33210I-1J5000D01*
G01X-146460Y44040D01*
G03X-145000Y47570I-3540J3531D01*
G01Y76200D01*
G01X-350200Y114300D02*
Y130330D01*
G02X-348740Y133860I5000J-1D01*
G01X-338010Y144590D01*
G02X-334480Y146050I3531J-3540D01*
G01X-160820D01*
G02X-157290Y144590I-1J-5000D01*
G01X-146460Y133760D01*
G02X-145000Y130230I-3540J-3531D01*
G01Y101600D01*
G01X-323850Y516800D02*
X-303250D01*
G02X-299720Y515340I-1J-5000D01*
G01X-296140Y511760D01*
G03X-292610Y510300I3531J3540D01*
G01X-279400D01*
G01X-323850Y516800D02*
X-348190Y492460D01*
G02X-351720Y491000I-3531J3540D01*
G01X-368300D01*
G01X-323850Y473800D02*
X-307250D01*
G01X-323850D02*
Y490320D01*
G01Y573800D02*
X-304500D01*
G03X-300970Y575260I-1J5000D01*
G01X-297390Y578840D01*
G02X-293860Y580300I3531J-3540D01*
G01X-279400D01*
G01X-323850Y543800D02*
X-307100D01*
G01X-368300Y525000D02*
Y537020D01*
G01X-279400Y637300D02*
X-298750D01*
G02X-302280Y638760I1J5000D01*
G01X-305860Y642340D01*
G03X-309390Y643800I-3531J-3540D01*
G01X-323850D01*
G01Y600800D02*
X-307250D01*
G01X-323850Y670800D02*
X-307100D01*
G01X-323850Y600800D02*
Y617320D01*
G01Y700800D02*
X-304500D01*
G03X-300970Y702260I-1J5000D01*
G01X-297390Y705840D01*
G02X-293860Y707300I3531J-3540D01*
G01X-279400D01*
G01X-317500Y1558050D02*
X-301500D01*
G03X-297970Y1559510I-1J5000D01*
G01X-294390Y1563090D01*
G02X-290860Y1564550I3531J-3540D01*
G01X-279400D01*
G01X-317500Y1528050D02*
X-301500D01*
G02X-297970Y1526590I-1J-5000D01*
G01X-294390Y1523010D01*
G03X-290860Y1521550I3531J3540D01*
G01X-279400D01*
G01Y1648550D02*
X-294200D01*
G02X-297150Y1649770I-3J4170D01*
G01X-298380Y1651000D01*
X-298450D01*
X-301040Y1653590D01*
G03X-304570Y1655050I-3531J-3540D01*
G01X-317500D01*
G01X-279400Y1691550D02*
X-291400D01*
G03X-294930Y1690090I1J-5000D01*
G01X-298510Y1686510D01*
G02X-302040Y1685050I-3531J3540D01*
G01X-317500D01*
G01X-266700Y-67230D02*
Y-78500D01*
G01Y85170D02*
Y73900D01*
G01X-239900Y495300D02*
Y448850D01*
G02X-241360Y445320I-5000J1D01*
G01X-245140Y441540D01*
G03X-246600Y438010I3540J-3531D01*
G01Y431800D01*
G01Y406400D02*
Y431800D01*
G01X-279400Y510300D02*
X-256970D01*
G02X-253440Y508840I-1J-5000D01*
G01X-239900Y495300D01*
G01X-279400Y480300D02*
X-262650D01*
G01X-279400Y580300D02*
X-263470D01*
G02X-259940Y578840I-1J-5000D01*
G01X-239900Y558800D01*
G01X-279400Y537300D02*
X-262800D01*
G01X-279400D02*
Y553820D01*
G01Y637300D02*
X-256970D01*
G02X-253440Y635840I-1J-5000D01*
G01X-239900Y622300D01*
G01X-279400Y664300D02*
X-262800D01*
G01X-279400Y607300D02*
X-262650D01*
G01X-279400Y664300D02*
Y680820D01*
G01Y707300D02*
X-263470D01*
G02X-259940Y705840I-1J-5000D01*
G01X-239900Y685800D01*
G01X-254000Y1064730D02*
Y949620D01*
G02X-255460Y946090I-5000J1D01*
G01X-293500Y908050D01*
G01X-292100Y1047350D02*
X-271380D01*
X-254000Y1064730D01*
G01X-63500Y1304200D02*
X-84380D01*
G03X-87910Y1302740I1J-5000D01*
G01X-100140Y1290510D01*
G03X-101600Y1286980I3540J-3531D01*
G01Y1221270D01*
G02X-103060Y1217740I-5000J1D01*
G01X-252540Y1068260D01*
G03X-254000Y1064730I3540J-3531D01*
G01Y1333500D02*
Y1216320D01*
G02X-255460Y1212790I-5000J1D01*
G01X-293500Y1174750D01*
G01X-292100Y1314050D02*
X-274110Y1332040D01*
G02X-270580Y1333500I3531J-3540D01*
G01X-254000D01*
G01X-63500Y1393100D02*
X-90730D01*
G03X-94260Y1391640I1J-5000D01*
G01X-150940Y1334960D01*
G02X-154470Y1333500I-3531J3540D01*
G01X-254000D01*
G01X-279400Y1521550D02*
X-258570D01*
G02X-255040Y1520090I-1J-5000D01*
G01X-239900Y1504950D01*
G01Y1568450D02*
X-256900D01*
G03X-260430Y1566990I1J-5000D01*
G01X-261410Y1566010D01*
G02X-264940Y1564550I-3531J3540D01*
G01X-279400D01*
G01Y1648550D02*
X-258570D01*
G02X-255040Y1647090I-1J-5000D01*
G01X-239900Y1631950D01*
G01X-279400Y1691550D02*
X-260150D01*
G03X-256620Y1693010I-1J5000D01*
G01X-255640Y1693990D01*
G02X-252110Y1695450I3531J-3540D01*
G01X-239900D01*
G01X-260050Y1816100D02*
Y1773420D01*
G03X-258590Y1769890I5000J1D01*
G01X-147510Y1658810D01*
G02X-146050Y1655280I-3540J-3531D01*
G01Y1427550D01*
G01X-298450Y1824500D02*
X-284550D01*
G02X-281020Y1823040I-1J-5000D01*
G01X-275540Y1817560D01*
G03X-272010Y1816100I3531J3540D01*
G01X-260050D01*
G01X-298450Y1858500D02*
X-284540D01*
G03X-281010Y1859960I-1J5000D01*
G01X-275530Y1865440D01*
G02X-272000Y1866900I3531J-3540D01*
G01X-260050D01*
G01X-63500Y1799500D02*
X-84380D01*
G03X-87910Y1798040I1J-5000D01*
G01X-93790Y1792160D01*
G02X-97320Y1790700I-3531J3540D01*
G01X-169380D01*
G02X-172910Y1792160I1J5000D01*
G01X-182390Y1801640D01*
G02X-183850Y1805170I3540J3531D01*
G01Y1816100D01*
G01Y1866900D02*
Y1816100D01*
G01X-63500Y1756500D02*
X-78300D01*
G02X-81250Y1757720I-3J4170D01*
G01X-82480Y1758950D01*
X-82550D01*
X-87440Y1763840D01*
G03X-90970Y1765300I-3531J-3540D01*
G01X-182080D01*
G02X-185610Y1766760I1J5000D01*
G01X-207790Y1788940D01*
G02X-209250Y1792470I3540J3531D01*
G01Y1816100D01*
G01Y1866900D02*
Y1816100D01*
G01X-63500Y3900D02*
X-78650D01*
G03X-82550Y0I0J-3900D01*
G01Y-42380D01*
G02X-84010Y-45910I-5000J1D01*
G01X-112840Y-74740D01*
G02X-116370Y-76200I-3531J3540D01*
G01X-145000D01*
G01Y-50800D02*
X-129070D01*
G03X-125540Y-49340I-1J5000D01*
G01X-109410Y-33210D01*
G03X-107950Y-29680I-3540J3531D01*
G01Y16980D01*
G02X-106490Y20510I5000J-1D01*
G01X-81560Y45440D01*
G02X-78030Y46900I3531J-3540D01*
G01X-63500D01*
G01Y148500D02*
X-77960D01*
G03X-81490Y147040I1J-5000D01*
G01X-83200Y145330D01*
X-83270D01*
X-125540Y103060D01*
G02X-129070Y101600I-3531J3540D01*
G01X-145000D01*
G01Y76200D02*
X-116370D01*
G03X-112840Y77660I-1J5000D01*
G01X-86460Y104040D01*
G02X-82930Y105500I3531J-3540D01*
G01X-63500D01*
G01Y250100D02*
X-123680D01*
G03X-127210Y248640I1J-5000D01*
G01X-146050Y229800D01*
G01X-63500Y1077050D02*
Y968470D01*
G02X-64960Y964940I-5000J1D01*
G01X-146050Y883850D01*
G01X-63500Y1178650D02*
X-144590Y1097560D01*
G03X-146050Y1094030I3540J-3531D01*
G01Y1080700D01*
G01Y1427550D02*
X-133610Y1439990D01*
G02X-130080Y1441450I3531J-3540D01*
G01X-21120D01*
G02X-17590Y1439990I-1J-5000D01*
G01X-7810Y1430210D01*
G03X-4280Y1428750I3531J3540D01*
G01X0D01*
G01X-158450Y1866900D02*
Y1816100D01*
G01X-63500Y1869350D02*
X-140250D01*
G03X-143200Y1868130I-3J-4170D01*
G01X-143210Y1868120D01*
G02X-146160Y1866900I-2947J2950D01*
G01X-158450D01*
G01X0Y0D02*
X-41000D01*
G02X-44530Y1460I1J5000D01*
G01X-45510Y2440D01*
G03X-49040Y3900I-3531J-3540D01*
G01X-63500D01*
G01X0Y50800D02*
X-41000D01*
G03X-44530Y49340I1J-5000D01*
G01X-45510Y48360D01*
G02X-49040Y46900I-3531J3540D01*
G01X-63500D01*
G01X0Y101600D02*
X-41000D01*
G02X-44530Y103060I1J5000D01*
G01X-45510Y104040D01*
G03X-49040Y105500I-3531J-3540D01*
G01X-63500D01*
G01X0Y152400D02*
X-41000D01*
G03X-44530Y150940I1J-5000D01*
G01X-45510Y149960D01*
G02X-49040Y148500I-3531J3540D01*
G01X-63500D01*
G01Y207100D02*
Y190500D01*
G01Y207100D02*
X-46900D01*
G01X-63500D02*
X-80100D01*
G01X0Y254000D02*
X-41000D01*
G03X-44530Y252540I1J-5000D01*
G01X-45510Y251560D01*
G02X-49040Y250100I-3531J3540D01*
G01X-63500D01*
G01Y308700D02*
Y292100D01*
G01X0Y355600D02*
X-41000D01*
G03X-44530Y354140I1J-5000D01*
G01X-45510Y353160D01*
G02X-49040Y351700I-3531J3540D01*
G01X-63500D01*
G01Y308700D02*
X-46900D01*
G01X-63500D02*
X-80100D01*
G01X-63500Y391250D02*
X-48700D01*
G03X-45750Y392470I3J4170D01*
G01X-44520Y393700D01*
X-44450D01*
X-33210Y404940D01*
G02X-29680Y406400I3531J-3540D01*
G01X0D01*
G01X-63500Y434250D02*
X-80100D01*
G01X-63500D02*
X-46900D01*
G01X-63500D02*
Y450850D01*
G01X0Y508000D02*
X-50130D01*
G03X-53660Y506540I1J-5000D01*
G01X-64900Y495300D01*
G01X0Y558800D02*
X-64900D01*
G01X0Y660400D02*
X-37430D01*
G02X-40960Y661860I1J5000D01*
G01X-64900Y685800D01*
G01X0Y609600D02*
X-50130D01*
G02X-53660Y611060I1J5000D01*
G01X-64900Y622300D01*
G01X-63500Y734150D02*
X-44070D01*
G02X-40540Y732690I-1J-5000D01*
G01X-20510Y712660D01*
G03X-16980Y711200I3531J3540D01*
G01X0D01*
G01X-63500Y777150D02*
Y793750D01*
G01Y777150D02*
X-80100D01*
G01X-63500D02*
X-46900D01*
G01X-63500Y1077050D02*
X-18060Y1122490D01*
G02X-14530Y1123950I3531J-3540D01*
G01X0D01*
G01X-63500Y1120050D02*
Y1136650D01*
G01Y1120050D02*
X-80100D01*
G01X0Y1174750D02*
X-41000D01*
G02X-44530Y1176210I1J5000D01*
G01X-45510Y1177190D01*
G03X-49040Y1178650I-3531J-3540D01*
G01X-63500D01*
G01Y1221650D02*
Y1205130D01*
G01Y1261200D02*
X-46900D01*
G01X-63500Y1221650D02*
X-46900D01*
G01X-63500Y1261200D02*
Y1277720D01*
G01X0Y1327150D02*
X-16980D01*
G03X-20510Y1325690I1J-5000D01*
G01X-40540Y1305660D01*
G02X-44070Y1304200I-3531J3540D01*
G01X-63500D01*
G01Y1350100D02*
X-46900D01*
G01X-63500D02*
Y1366620D01*
G01Y1393100D02*
X-48700D01*
G02X-45750Y1391880I3J-4170D01*
G01X-44520Y1390650D01*
X-44450D01*
X-33210Y1379410D01*
G03X-29680Y1377950I3531J3540D01*
G01X0D01*
G01X-64900Y1504950D02*
X-53660Y1493710D01*
G03X-50130Y1492250I3531J3540D01*
G01X-21120D01*
G02X-17590Y1490790I-1J-5000D01*
G01X-7810Y1481010D01*
G03X-4280Y1479550I3531J3540D01*
G01X0D01*
G01X-64900Y1568450D02*
X-40960Y1544510D01*
G03X-37430Y1543050I3531J3540D01*
G01X-21120D01*
G02X-17590Y1541590I-1J-5000D01*
G01X-7810Y1531810D01*
G03X-4280Y1530350I3531J3540D01*
G01X0D01*
G01X-64900Y1631950D02*
X-59220D01*
G02X-55690Y1630490I-1J-5000D01*
G01X-7810Y1582610D01*
G03X-4280Y1581150I3531J3540D01*
G01X0D01*
G01Y1631950D02*
X-62510Y1694460D01*
G03X-64900Y1695450I-2386J-2380D01*
G01X0Y1733550D02*
X-10630D01*
G02X-14160Y1735010I1J5000D01*
G01X-34190Y1755040D01*
G03X-37720Y1756500I-3531J-3540D01*
G01X-63500D01*
G01X-34200Y1799500D02*
X-36640Y1801940D01*
G02X-38100Y1805470I3540J3531D01*
G01Y1815410D01*
G03X-39560Y1818940I-5000J-1D01*
G01X-45510Y1824890D01*
G03X-49040Y1826350I-3531J-3540D01*
G01X-63500D01*
G01X-34200Y1799500D02*
X-20510Y1785810D01*
G03X-16980Y1784350I3531J3540D01*
G01X0D01*
G01X-63500Y1799500D02*
X-34200D01*
G01X-63500Y1869350D02*
X-36270D01*
G02X-32740Y1867890I-1J-5000D01*
G01X0Y1835150D01*
G01Y1073150D02*
Y762000D01*
G01Y1428750D02*
X23330D01*
G02X26860Y1427290I-1J-5000D01*
G01X49340Y1404810D01*
G02X50800Y1401280I-3540J-3531D01*
G01Y1151420D01*
G02X49340Y1147890I-5000J1D01*
G01X26860Y1125410D01*
G02X23330Y1123950I-3531J3540D01*
G01X0D01*
X-806450Y-193040D03*
Y2029460D03*
X-762000Y221830D03*
X-654050Y1087970D03*
Y1354670D03*
X-577850Y374650D03*
X-549920Y1088300D03*
X-550000Y1355000D03*
X-499350Y61200D03*
X-516800Y1088300D03*
X-533400Y1104900D03*
X-516800Y1355000D03*
X-533400Y1371600D03*
X-412750Y-44450D03*
Y107950D03*
X-406400Y228600D03*
Y304800D03*
X-431800Y374650D03*
X-323850Y490320D03*
X-368300Y537020D03*
X-323850Y617320D03*
X-292100Y-63500D03*
X-266700Y-67230D03*
X-292100Y88900D03*
X-266700Y85170D03*
X-262650Y480300D03*
X-307250Y473800D03*
X-279400Y553820D03*
X-262800Y537300D03*
X-307100Y543800D03*
X-262800Y664300D03*
X-262650Y607300D03*
X-307250Y600800D03*
X-307100Y670800D03*
X-279400Y680820D03*
X-6150Y-193040D03*
X-80100Y207100D03*
X-46900D03*
X-63500Y190500D03*
Y292100D03*
X-80100Y308700D03*
X-46900D03*
Y434250D03*
X-80100D03*
X-63500Y450850D03*
X-46900Y777150D03*
X-80100D03*
X-63500Y793750D03*
X-80100Y1120050D03*
X-63500Y1205130D03*
Y1136650D03*
Y1277720D03*
X-46900Y1261200D03*
Y1221650D03*
Y1350100D03*
X-63500Y1366620D03*
X-6150Y2029460D03*
G54D14*
X-762000Y209310D03*
Y179310D03*
X-654050Y1045450D03*
Y1075450D03*
Y1342150D03*
Y1312150D03*
X-482600Y61200D03*
Y91200D03*
X-323850Y543800D03*
Y573800D03*
Y670800D03*
Y700800D03*
X-317500Y1528050D03*
Y1558050D03*
Y1655050D03*
Y1685050D03*
X-279400Y480300D03*
Y510300D03*
Y607300D03*
Y637300D03*
G54D23*
X-146050Y229800D03*
Y379800D03*
Y883850D03*
Y1033850D03*
Y1080700D03*
Y1277550D03*
Y1230700D03*
Y1427550D03*
G54D15*
X-622300Y871350D03*
Y1046350D03*
Y1138050D03*
Y1313050D03*
X-468500Y908050D03*
Y1174750D03*
X-239900Y495300D03*
Y558800D03*
Y622300D03*
Y685800D03*
X-293500Y908050D03*
Y1174750D03*
X-239900Y1504950D03*
Y1568450D03*
Y1631950D03*
Y1695450D03*
X-64900Y495300D03*
Y558800D03*
Y622300D03*
Y685800D03*
Y1504950D03*
Y1568450D03*
Y1631950D03*
Y1695450D03*
G54D24*
X0Y0D03*
Y50800D03*
Y101600D03*
Y152400D03*
Y203200D03*
Y254000D03*
Y355600D03*
Y304800D03*
Y406400D03*
Y457200D03*
Y508000D03*
Y558800D03*
Y609600D03*
Y660400D03*
Y711200D03*
Y1073150D03*
Y1123950D03*
Y1174750D03*
Y1225550D03*
Y1276350D03*
Y1327150D03*
Y1428750D03*
Y1377950D03*
Y1479550D03*
Y1530350D03*
Y1581150D03*
Y1631950D03*
Y1682750D03*
Y1733550D03*
Y1784350D03*
G54D25*
Y762000D03*
Y1835150D03*
G54D16*
X-578900Y971550D03*
Y996950D03*
Y1238250D03*
Y1263650D03*
X-487900Y971550D03*
Y996950D03*
Y1263650D03*
Y1238250D03*
X-337600Y406400D03*
Y431800D03*
X-236000Y-76200D03*
Y-50800D03*
Y76200D03*
Y101600D03*
X-246600Y431800D03*
Y406400D03*
X-145000Y-50800D03*
Y-76200D03*
Y101600D03*
Y76200D03*
G54D26*
X82750Y-193040D03*
Y2029460D03*
G54D17*
X-482600Y-97550D03*
Y-67550D03*
Y40400D03*
Y10400D03*
X-393700Y351550D03*
Y321550D03*
Y415050D03*
Y385050D03*
X-266700Y-48500D03*
Y-78500D03*
X-292100Y-48500D03*
Y-78500D03*
X-266700Y103900D03*
Y73900D03*
X-292100Y103900D03*
Y73900D03*
G54D27*
G01X-857250Y-116840D02*
X-806450D01*
G01X-857250Y-142240D02*
X-806450D01*
G01X-857250Y-15240D02*
X-806450D01*
G01X-857250Y-40640D02*
X-806450D01*
G01X-857250Y-66040D02*
X-806450D01*
G01X-857250Y60960D02*
X-806450D01*
G01X-857250Y35560D02*
X-806450D01*
G01X-857250Y10160D02*
X-806450D01*
G01X-857250Y340360D02*
X-806450D01*
G01X-857250Y416560D02*
X-806450D01*
G01X-857250Y518160D02*
X-806450D01*
G01X-857250Y492760D02*
X-806450D01*
G01X-857250Y467360D02*
X-806450D01*
G01X-831850Y575310D02*
X-836740Y570420D01*
G02X-840270Y568960I-3531J3540D01*
G01X-857250D01*
G01X-806450Y543560D02*
X-857250D01*
G01X-482600Y10400D02*
Y2070D01*
G02X-484060Y-1460I-5000J1D01*
G01X-597980Y-115380D01*
G02X-601510Y-116840I-3531J3540D01*
G01X-806450D01*
G01X-482600Y-97550D02*
X-552680D01*
G03X-556210Y-99010I1J-5000D01*
G01X-597980Y-140780D01*
G02X-601510Y-142240I-3531J3540D01*
G01X-806450D01*
G01X-368300Y491000D02*
X-402280D01*
G03X-405810Y489540I1J-5000D01*
G01X-455740Y439610D01*
G03X-457200Y436080I3540J-3531D01*
G01Y262420D01*
G02X-458660Y258890I-5000J1D01*
G01X-731330Y-13780D01*
G02X-734860Y-15240I-3531J3540D01*
G01X-806450D01*
G01X-63500Y391250D02*
X-89280D01*
G03X-92810Y389790I1J-5000D01*
G01X-150940Y331660D01*
G02X-154470Y330200I-3531J3540D01*
G01X-302730D01*
G03X-306260Y328740I1J-5000D01*
G01X-347790Y287210D01*
G02X-351320Y285750I-3531J3540D01*
G01X-404330D01*
G03X-407860Y284290I1J-5000D01*
G01X-731330Y-39180D01*
G02X-734860Y-40640I-3531J3540D01*
G01X-806450D01*
G01Y-66040D02*
X-734860D01*
G03X-731330Y-64580I-1J5000D01*
G01X-401510Y265240D01*
G02X-397980Y266700I3531J-3540D01*
G01X-344970D01*
G03X-341440Y268160I-1J5000D01*
G01X-299910Y309690D01*
G02X-296380Y311150I3531J-3540D01*
G01X-141770D01*
G03X-138240Y312610I-1J5000D01*
G01X-100610Y350240D01*
G02X-97080Y351700I3531J-3540D01*
G01X-63500D01*
G01X-323850Y700800D02*
X-344880D01*
G03X-348410Y699340I1J-5000D01*
G01X-512890Y534860D01*
G03X-514350Y531330I3540J-3531D01*
G01Y281470D01*
G02X-515810Y277940I-5000J1D01*
G01X-731330Y62420D01*
G02X-734860Y60960I-3531J3540D01*
G01X-806450D01*
G01X-323850Y643800D02*
X-372430D01*
G03X-375960Y642340I1J-5000D01*
G01X-493840Y524460D01*
G03X-495300Y520930I3540J-3531D01*
G01Y275120D01*
G02X-496760Y271590I-5000J1D01*
G01X-731330Y37020D01*
G02X-734860Y35560I-3531J3540D01*
G01X-806450D01*
G01X-323850Y573800D02*
X-376630D01*
G03X-380160Y572340I1J-5000D01*
G01X-474790Y477710D01*
G03X-476250Y474180I3540J-3531D01*
G01Y268770D01*
G02X-477710Y265240I-5000J1D01*
G01X-731330Y11620D01*
G02X-734860Y10160I-3531J3540D01*
G01X-806450D01*
G01X-654050Y1045450D02*
X-666980D01*
G03X-670510Y1043990I1J-5000D01*
G01X-684340Y1030160D01*
G03X-685800Y1026630I3540J-3531D01*
G01Y446570D01*
G02X-687260Y443040I-5000J1D01*
G01X-788480Y341820D01*
G02X-792010Y340360I-3531J3540D01*
G01X-806450D01*
G01X-654050Y1312150D02*
X-666980D01*
G03X-670510Y1310690I1J-5000D01*
G01X-703390Y1277810D01*
G03X-704850Y1274280I3540J-3531D01*
G01Y503720D01*
G02X-706310Y500190I-5000J1D01*
G01X-788480Y418020D01*
G02X-792010Y416560I-3531J3540D01*
G01X-806450D01*
G01X-317500Y1655050D02*
X-332180D01*
G02X-335710Y1656510I1J5000D01*
G01X-341440Y1662240D01*
G03X-344970Y1663700I-3531J-3540D01*
G01X-512280D01*
G03X-515810Y1662240I1J-5000D01*
G01X-754190Y1423860D01*
G03X-755650Y1420330I3540J-3531D01*
G01Y554520D01*
G02X-757110Y550990I-5000J1D01*
G01X-788480Y519620D01*
G02X-792010Y518160I-3531J3540D01*
G01X-806450D01*
G01X-317500Y1558050D02*
X-332180D01*
G03X-335710Y1556590I1J-5000D01*
G01X-341440Y1550860D01*
G02X-344970Y1549400I-3531J3540D01*
G01X-601180D01*
G03X-604710Y1547940I1J-5000D01*
G01X-735140Y1417510D01*
G03X-736600Y1413980I3540J-3531D01*
G01Y541820D01*
G02X-738060Y538290I-5000J1D01*
G01X-782130Y494220D01*
G02X-785660Y492760I-3531J3540D01*
G01X-806450D01*
G01X-317500Y1528050D02*
X-332180D01*
G02X-335710Y1529510I1J5000D01*
G01X-341440Y1535240D01*
G03X-344970Y1536700I-3531J-3540D01*
G01X-594830D01*
G03X-598360Y1535240I1J-5000D01*
G01X-722440Y1411160D01*
G03X-723900Y1407630I3540J-3531D01*
G01Y529120D01*
G02X-725360Y525590I-5000J1D01*
G01X-782130Y468820D01*
G02X-785660Y467360I-3531J3540D01*
G01X-806450D01*
G01X-831850Y575310D02*
Y671030D01*
G02X-830390Y674560I5000J-1D01*
G01X-814260Y690690D01*
G03X-812800Y694220I-3540J3531D01*
G01Y1452080D01*
G02X-811340Y1455610I5000J-1D01*
G01X-409910Y1857040D01*
G02X-406380Y1858500I3531J-3540D01*
G01X-298450D01*
G01X-806450Y568960D02*
X-823430D01*
G02X-826960Y570420I1J5000D01*
G01X-831850Y575310D01*
G01X-806450Y543560D02*
X-792010D01*
G03X-788480Y545020I-1J5000D01*
G01X-769810Y563690D01*
G03X-768350Y567220I-3540J3531D01*
G01Y1426680D01*
G02X-766890Y1430210I5000J-1D01*
G01X-522160Y1674940D01*
G02X-518630Y1676400I3531J-3540D01*
G01X-344970D01*
G03X-341440Y1677860I-1J5000D01*
G01X-335710Y1683590D01*
G02X-332180Y1685050I3531J-3540D01*
G01X-317500D01*
G01X-482600Y-67550D02*
X-472140D01*
G03X-468610Y-66090I-1J5000D01*
G01X-467480Y-64960D01*
G02X-463950Y-63500I3531J-3540D01*
G01X-437200D01*
G01X-482600Y40400D02*
X-469670D01*
G03X-466140Y41860I-1J5000D01*
G01X-458660Y49340D01*
G03X-457200Y52870I-3540J3531D01*
G01Y68080D01*
G02X-455740Y71610I5000J-1D01*
G01X-439330Y88020D01*
G02X-437200Y88900I2127J-2130D01*
G01Y114300D02*
X-454680D01*
G03X-458210Y112840I1J-5000D01*
G01X-478390Y92660D01*
G02X-481920Y91200I-3531J3540D01*
G01X-482600D01*
G01X-437200Y-38100D02*
X-421170D01*
G02X-417640Y-39560I-1J-5000D01*
G01X-412750Y-44450D01*
G01Y107950D02*
Y-44450D01*
G01X-437200Y114300D02*
X-421170D01*
G02X-417640Y112840I-1J-5000D01*
G01X-412750Y107950D01*
G01X-393700Y321550D02*
X-372370D01*
G02X-368840Y320090I-1J-5000D01*
G01X-368300Y319550D01*
G01X-393700Y321550D02*
Y319570D01*
G02X-395160Y316040I-5000J1D01*
G01X-406400Y304800D01*
G01X-393700Y351550D02*
X-372370D01*
G03X-368840Y353010I-1J5000D01*
G01X-368300Y353550D01*
G01X-393700Y385050D02*
X-372370D01*
G02X-368840Y383590I-1J-5000D01*
G01X-368300Y383050D01*
G01X-431800Y374650D02*
X-409920D01*
G03X-406390Y376110I-1J5000D01*
G01X-398910Y383590D01*
G02X-395380Y385050I3531J-3540D01*
G01X-393700D01*
G01Y415050D02*
X-372370D01*
G03X-368840Y416510I-1J5000D01*
G01X-368300Y417050D01*
G01X-337600Y431800D02*
X-325920D01*
G02X-322390Y430340I-1J-5000D01*
G01X-312610Y420560D01*
G02X-311150Y417030I-3540J-3531D01*
G01Y383070D01*
G02X-312610Y379540I-5000J1D01*
G01X-337140Y355010D01*
G02X-340670Y353550I-3531J3540D01*
G01X-368300D01*
G01X-337600Y406400D02*
X-352580D01*
G02X-356110Y407860I1J5000D01*
G01X-363840Y415590D01*
G03X-367370Y417050I-3531J-3540D01*
G01X-368300D01*
G01X-292100Y-78500D02*
Y-63500D01*
G01X-266700Y-78500D02*
X-255790D01*
G03X-253020Y-77350I0J3910D01*
G02X-250250Y-76200I2770J-2760D01*
G01X-236000D01*
G01X-292100Y-48500D02*
X-266700D01*
G01D02*
X-255790D01*
G02X-253020Y-49650I0J-3910D01*
G03X-250250Y-50800I2770J2760D01*
G01X-236000D01*
G01X-292100Y73900D02*
Y88900D01*
G01X-266700Y73900D02*
X-255790D01*
G03X-253020Y75050I0J3910D01*
G02X-250250Y76200I2770J-2760D01*
G01X-236000D01*
G01X-292100Y103900D02*
X-266700D01*
G01D02*
X-255790D01*
G02X-253020Y102750I0J-3910D01*
G03X-250250Y101600I2770J2760D01*
G01X-236000D01*
G54D18*
X-533400Y1045300D03*
Y1088300D03*
Y1355000D03*
Y1312000D03*
X-323850Y473800D03*
Y516800D03*
Y600800D03*
Y643800D03*
X-279400Y537300D03*
Y580300D03*
Y664300D03*
Y707300D03*
Y1521550D03*
Y1564550D03*
Y1648550D03*
Y1691550D03*
X-63500Y3900D03*
Y46900D03*
Y105500D03*
Y148500D03*
Y207100D03*
Y250100D03*
Y308700D03*
Y351700D03*
Y434250D03*
Y391250D03*
Y734150D03*
Y777150D03*
Y1120050D03*
Y1077050D03*
Y1178650D03*
Y1261200D03*
Y1221650D03*
Y1350100D03*
Y1304200D03*
Y1393100D03*
Y1756500D03*
Y1799500D03*
Y1826350D03*
Y1869350D03*
G54D19*
X-437200Y-88900D03*
Y-63500D03*
Y-38100D03*
Y63500D03*
Y88900D03*
Y114300D03*
X-350200Y-88900D03*
Y-38100D03*
Y-63500D03*
Y63500D03*
Y114300D03*
Y88900D03*
M02*
